<?xml version="1.0" encoding="iso-8859-1"?>
<!-- Generator: Adobe Illustrator 26.0.1, SVG Export Plug-In . SVG Version: 6.00 Build 0)  -->
<svg version="1.1" id="Layer_1" xmlns="http://www.w3.org/2000/svg" xmlns:xlink="http://www.w3.org/1999/xlink" x="0px" y="0px"
	 viewBox="0 0 900 900" style="enable-background:new 0 0 900 900;" xml:space="preserve">
<g>
	<path fill="white" d="M500.058,749.745c-136.111,2.296-250.604-113.644-250.056-250.838c0.538-134.412,113.993-249.221,250.963-248.684
		c134.98,0.529,249.975,113.908,249.029,251.779C749.068,637.047,635.952,751.818,500.058,749.745z M556.202,596.894
		c0,14.071-0.049,28.142,0.021,42.212c0.034,6.848,2.088,9.045,8.739,9.062c27.776,0.071,55.552,0.072,83.328,0
		c6.753-0.017,9.432-2.648,9.448-9.253c0.069-27.593,0.07-55.186,0.002-82.779c-0.017-7.027-2.617-9.492-9.696-9.5
		c-27.593-0.033-55.187-0.033-82.78-0.001c-7.22,0.008-9.007,1.788-9.046,9.142C556.144,569.483,556.196,583.189,556.202,596.894z
		 M450.717,597.164c0-13.886,0.042-27.772-0.017-41.657c-0.032-7.556-1.393-8.868-9.083-8.876
		c-27.223-0.026-54.447-0.026-81.67,0.002c-8.231,0.009-9.977,1.719-9.989,9.987c-0.043,27.223-0.039,54.447,0.002,81.67
		c0.012,7.823,1.937,9.861,9.658,9.881c27.406,0.071,54.812,0.067,82.218-0.002c6.969-0.018,8.833-1.94,8.863-8.801
		C450.762,625.301,450.718,611.233,450.717,597.164z M503.483,544.253c14.253,0,28.506,0.059,42.758-0.027
		c6.186-0.037,7.576-1.367,7.589-7.372c0.059-28.505,0.062-57.011-0.012-85.517c-0.015-5.769-1.914-7.714-7.54-7.728
		c-28.323-0.071-56.646-0.074-84.969,0.002c-6.296,0.017-8.175,1.991-8.185,8.278c-0.047,28.14-0.043,56.28-0.002,84.421
		c0.01,6.674,1.276,7.899,8.151,7.93C475.342,544.303,489.413,544.259,503.483,544.253z M606.74,441.131
		c14.063,0,28.127,0.046,42.19-0.02c6.846-0.032,8.801-1.953,8.816-8.862c0.06-27.396,0.057-54.792,0.003-82.188
		c-0.014-6.953-1.916-8.869-8.787-8.882c-28.309-0.051-56.618-0.051-84.927,0.004c-6.456,0.013-7.806,1.359-7.816,7.701
		c-0.048,27.944-0.05,55.888,0,83.832c0.013,7.056,1.352,8.374,8.333,8.403C578.613,441.178,592.677,441.136,606.74,441.131z
		 M400.631,441.135c14.064,0,28.129,0.048,42.193-0.021c6.545-0.033,7.856-1.267,7.869-7.651
		c0.059-28.129,0.055-56.258,0.004-84.387c-0.012-6.663-1.299-7.89-8.181-7.901c-27.946-0.044-55.892-0.049-83.839,0.004
		c-6.944,0.013-8.708,1.832-8.719,8.876c-0.044,27.581-0.04,55.162-0.002,82.743c0.009,6.828,1.454,8.272,8.481,8.312
		C372.502,441.191,386.567,441.134,400.631,441.135z"/>
</g>
</svg>
