<svg width="71" height="25" viewBox="0 0 71 25" fill="none" xmlns="http://www.w3.org/2000/svg">
<path fill-rule="evenodd" clip-rule="evenodd" d="M68.8759 4.43248C68.9901 4.30611 69.0591 4.14279 69.0838 3.94252H68.4472C68.4259 4.13622 68.3262 4.23307 68.1481 4.23307C68.0432 4.23307 67.958 4.19859 67.8941 4.12965C67.8106 4.04099 67.7679 3.91215 67.7679 3.7431C67.7679 3.57403 67.8123 3.43699 67.8992 3.33194C67.9546 3.263 68.0321 3.22854 68.131 3.22854C68.3185 3.22854 68.4242 3.32127 68.4472 3.50674H69.0642C69.0438 3.23756 68.9185 3.03076 68.6867 2.88632C68.5188 2.78127 68.3296 2.72875 68.1191 2.72875C67.854 2.72875 67.6299 2.81163 67.4475 2.97741C67.2353 3.16945 67.1288 3.41811 67.1288 3.72339C67.1288 4.05328 67.2464 4.3143 67.4799 4.50629C67.664 4.65732 67.8881 4.73284 68.1532 4.73284C68.4574 4.73284 68.6986 4.63266 68.8759 4.43248ZM69.0216 2.25851C68.7421 2.08617 68.4463 2 68.1336 2C67.8387 2 67.5677 2.0632 67.3188 2.18958C67.0197 2.34057 66.7861 2.55477 66.6183 2.83216C66.4452 3.11447 66.3592 3.4214 66.3592 3.75294C66.3592 4.03032 66.4231 4.29459 66.5518 4.54571C66.7035 4.8395 66.9191 5.07177 67.2004 5.24243C67.4807 5.41317 67.7833 5.4985 68.1089 5.4985C68.3884 5.4985 68.6534 5.4345 68.9032 5.30642C69.1946 5.1571 69.4256 4.94207 69.5969 4.66142C69.7682 4.38239 69.8534 4.07871 69.8534 3.75048C69.8534 3.47145 69.7895 3.20638 69.6608 2.95525C69.5125 2.6631 69.3003 2.43085 69.0216 2.25851ZM67.4305 2.61304C67.641 2.48337 67.8626 2.41854 68.0961 2.41854C68.3151 2.41854 68.5171 2.46696 68.7012 2.5638C68.9202 2.68033 69.0915 2.84364 69.2168 3.05374C69.3455 3.26875 69.4094 3.50182 69.4094 3.75294C69.4094 4.11736 69.2816 4.43001 69.0267 4.69094C68.7736 4.95026 68.4677 5.07996 68.1089 5.07996C67.7518 5.07996 67.4458 4.95111 67.191 4.69342C66.9327 4.43248 66.8032 4.11736 66.8032 3.74802C66.8032 3.53628 66.8509 3.3344 66.9464 3.14237C67.058 2.92079 67.2199 2.74434 67.4305 2.61304ZM48.0315 2.02558H44.2747V20.0898H48.0315V2.02558ZM11.3197 16.4522C10.6771 16.7326 9.97678 16.8729 9.21887 16.8729C8.44442 16.8729 7.73594 16.7326 7.09334 16.4522C6.46719 16.1553 5.91526 15.7593 5.4374 15.2644C4.97608 14.7695 4.61353 14.1921 4.34992 13.5322C4.10277 12.8723 3.97919 12.1712 3.97919 11.4289V11.3794C3.97919 10.637 4.10277 9.94415 4.34992 9.30077C4.61353 8.64083 4.96781 8.06349 5.41269 7.56858C5.87402 7.07368 6.41776 6.68594 7.04391 6.40555C7.68651 6.12507 8.395 5.98487 9.16944 5.98487C9.92736 5.98487 10.6277 6.13335 11.2703 6.43029C11.9129 6.71069 12.4649 7.09842 12.9262 7.59333C13.4041 8.08824 13.7665 8.66558 14.0137 9.32551C14.2773 9.98537 14.4091 10.6865 14.4091 11.4289V11.4784C14.4091 12.2207 14.2773 12.9218 14.0137 13.5817C13.7665 14.2251 13.4122 14.7943 12.9509 15.2892C12.506 15.7841 11.9623 16.1717 11.3197 16.4522ZM5.48684 19.6939C6.6073 20.1558 7.83481 20.3867 9.16944 20.3867C10.5041 20.3867 11.7316 20.1558 12.852 19.6939C13.989 19.2154 14.9611 18.572 15.7685 17.7637C16.5924 16.9388 17.235 15.9902 17.6963 14.918C18.1576 13.8292 18.3883 12.6662 18.3883 11.4289V11.3794C18.3883 10.1421 18.1576 8.98727 17.6963 7.91502C17.2514 6.82622 16.6171 5.88589 15.7932 5.09404C14.9858 4.28563 14.0219 3.65053 12.9015 3.18862C11.781 2.7102 10.5535 2.471 9.21887 2.471C7.88423 2.471 6.64846 2.7102 5.51155 3.18862C4.39109 3.65053 3.419 4.29391 2.59513 5.11878C1.78778 5.92711 1.15336 6.87571 0.692033 7.96451C0.230706 9.03676 0 10.1916 0 11.4289V11.4784C0 12.7156 0.222441 13.8787 0.667319 14.9675C1.12865 16.0397 1.76307 16.9801 2.57041 17.7885C3.39429 18.5803 4.36637 19.2154 5.48684 19.6939ZM24.3845 6.82622H20.6278V20.0898H24.3845V15.1902C24.3845 13.5899 24.7387 12.4104 25.4473 11.6516C26.1722 10.8927 27.1609 10.5133 28.4132 10.5133H28.6109V6.57877C27.4904 6.52928 26.6007 6.77673 25.9416 7.32113C25.2825 7.86553 24.7635 8.59134 24.3845 9.49873V6.82622ZM35.1103 17.739C36 17.739 36.7085 17.5245 37.2358 17.0956C37.7796 16.6666 38.0514 16.1058 38.0514 15.4129V14.7448C37.7219 14.5963 37.3511 14.4808 36.9392 14.3983C36.5438 14.2994 36.1154 14.2499 35.654 14.2499C34.8466 14.2499 34.2123 14.4065 33.7509 14.72C33.2895 15.0334 33.0589 15.4871 33.0589 16.081V16.1305C33.0589 16.6419 33.2484 17.0378 33.6274 17.3183C34.0063 17.5987 34.5006 17.739 35.1103 17.739ZM33.9734 20.3373C33.3472 20.3373 32.7541 20.2547 32.1939 20.0898C31.6501 19.9083 31.1723 19.6444 30.7604 19.2979C30.3484 18.9515 30.0189 18.5308 29.7717 18.0359C29.541 17.5245 29.4257 16.9388 29.4257 16.279V16.2295C29.4257 15.5036 29.5575 14.8767 29.8212 14.3488C30.0848 13.8209 30.4472 13.3838 30.9087 13.0373C31.3864 12.6909 31.9467 12.4352 32.5893 12.2702C33.2484 12.0887 33.9734 11.998 34.7643 11.998C35.4398 11.998 36.0248 12.0475 36.5191 12.1465C37.0298 12.2455 37.5241 12.3774 38.002 12.5424V12.3197C38.002 11.5279 37.763 10.9257 37.2852 10.5133C36.8074 10.1008 36.0989 9.89466 35.1597 9.89466C34.4347 9.89466 33.7921 9.96062 33.2319 10.0926C32.6882 10.2081 32.1114 10.3813 31.5018 10.6123L30.5626 7.7418C31.2876 7.4283 32.0456 7.17266 32.8365 6.97469C33.6274 6.77673 34.583 6.67775 35.7035 6.67775C36.7415 6.67775 37.623 6.80967 38.348 7.07368C39.0895 7.32113 39.6991 7.68404 40.177 8.16248C40.6713 8.65739 41.0337 9.26775 41.2644 9.99364C41.4951 10.703 41.6105 11.5031 41.6105 12.394V20.0898H37.9773V18.6546C37.5159 19.1659 36.9639 19.5783 36.3213 19.8918C35.6787 20.1888 34.896 20.3373 33.9734 20.3373ZM50.9913 2.02558H54.748V20.0898H50.9913V2.02558ZM58.8695 23.8759C59.3971 24.0408 60.0064 24.1233 60.6985 24.1233C61.2584 24.1233 61.7527 24.0573 62.1814 23.9253C62.6101 23.7933 62.9885 23.5789 63.3183 23.282C63.6643 22.985 63.9771 22.5973 64.2575 22.1189C64.5379 21.657 64.8012 21.0878 65.0484 20.4115L70.1398 6.82622H66.2347L63.343 15.8583L60.3277 6.82622H56.3485L61.5388 20.1393C61.3743 20.4692 61.1928 20.6919 60.9951 20.8074C60.8135 20.9393 60.5587 21.0054 60.2289 21.0054C59.9817 21.0054 59.7099 20.9559 59.4133 20.8569C59.1329 20.7579 58.8695 20.6342 58.6224 20.4857L57.3619 23.2077C57.84 23.4881 58.342 23.7108 58.8695 23.8759Z" fill="white"/>
</svg>
