<svg width="98" height="30" viewBox="0 0 98 30" fill="none" xmlns="http://www.w3.org/2000/svg">
<path d="M25.5491 28.7133H21.4987V9.00256H25.5491V28.7133Z" fill="white"/>
<path d="M40.1851 8.6156C42.4211 8.6156 44.2478 9.39963 45.6631 10.9677C47.0764 12.5358 47.7851 14.5294 47.7851 16.9467V28.7112H43.7346V17.5637C43.7346 16.0466 43.2459 14.7921 42.2684 13.8024C41.2909 12.8127 40.0833 12.3179 38.6435 12.3179C37.0225 12.3179 35.6988 12.8127 34.6704 13.8024C33.642 14.7921 33.1268 16.0466 33.1268 17.5637V28.7112H29.0763V9.00252H33.1268V14.0936C33.6664 12.3973 34.5604 11.0593 35.8088 10.0818C37.0551 9.10435 38.5152 8.6156 40.1871 8.6156H40.1851Z" fill="white"/>
<path d="M60.4131 8.6156C63.5757 8.6156 66.1477 9.74786 68.1271 12.0103C70.1065 14.2749 70.917 17.0118 70.5566 20.2274H54.2406C54.5237 21.8219 55.2568 23.1151 56.44 24.1048C57.6232 25.0945 59.0487 25.5893 60.7206 25.5893C62.0056 25.5893 63.1562 25.2737 64.1724 24.6444C65.1885 24.0152 65.9787 23.1599 66.5448 22.0785L69.9396 23.5834C69.0659 25.2554 67.8176 26.5913 66.1986 27.5952C64.5796 28.5992 62.7143 29.1002 60.6045 29.1002C57.6476 29.1002 55.1652 28.1227 53.1593 26.1697C51.1534 24.2168 50.1494 21.7853 50.1494 18.8793C50.1494 15.9733 51.133 13.5377 53.1002 11.5684C55.0674 9.60124 57.503 8.61764 60.411 8.61764L60.4131 8.6156ZM60.4131 12.1264C58.9204 12.1264 57.6293 12.5826 56.5357 13.497C55.4421 14.4093 54.7151 15.5986 54.3567 17.0648H66.4695C66.1355 15.5986 65.4207 14.4093 64.3292 13.497C63.2356 12.5846 61.9302 12.1264 60.4131 12.1264Z" fill="white"/>
<path d="M81.755 8.6156C84.1213 8.6156 86.0498 9.23264 87.5405 10.4667C89.0312 11.7008 89.7786 13.4766 89.7786 15.79V28.7132H85.7281V23.4674C84.5184 27.2226 82.089 29.1002 78.4376 29.1002C76.7392 29.1002 75.3259 28.5931 74.1937 27.5769C73.0614 26.5607 72.4973 25.2309 72.4973 23.5855C72.4973 21.657 73.1775 20.2091 74.5419 19.2458C75.9043 18.2826 77.6414 17.6839 79.7491 17.4517L83.5674 17.0648C85.0072 16.9365 85.7281 16.293 85.7281 15.1363C85.7281 14.1853 85.3615 13.4257 84.6284 12.8616C83.8953 12.2955 82.9382 12.0124 81.755 12.0124C80.5718 12.0124 79.523 12.3219 78.6881 12.939C77.8532 13.556 77.3196 14.4561 77.0875 15.6393L73.0757 14.674C73.4361 12.8229 74.3993 11.3505 75.9694 10.257C77.5375 9.16544 79.466 8.61764 81.755 8.61764V8.6156ZM79.7491 25.8195C81.421 25.8195 82.8343 25.2594 83.991 24.1414C85.1477 23.0234 85.726 21.7181 85.726 20.2254V19.146C85.4185 19.6613 84.6712 19.981 83.488 20.1093L79.747 20.5716C78.7696 20.7019 77.9916 20.989 77.4133 21.4391C76.8349 21.8891 76.5458 22.5001 76.5458 23.2719C76.5458 24.0437 76.8349 24.6607 77.4133 25.123C77.9916 25.5853 78.7696 25.8174 79.747 25.8174L79.7491 25.8195Z" fill="white"/>
<path d="M18.7088 28.7133H0V9.00256H4.2806V24.895H18.7088V28.7133Z" fill="white"/>
<path d="M93.5969 8.61554C95.7057 8.61554 97.4152 6.90601 97.4152 4.79721C97.4152 2.68841 95.7057 0.978882 93.5969 0.978882C91.4881 0.978882 89.7786 2.68841 89.7786 4.79721C89.7786 6.90601 91.4881 8.61554 93.5969 8.61554Z" fill="white"/>
</svg>
