<svg class="color-white" xmlns="http://www.w3.org/2000/svg" viewBox="0 0 38.922 35.38" preserveAspectRatio="xMinYMin meet">
    <title>Go to homepage</title>
    <path d="M80.124,79.241c.2-.253.395-.511.582-.772l3.54,2.161H89.2l-7.138-4.359a17.947,17.947,0,0,0,1.173-2.779,19.691,19.691,0,0,0,1.014-6.1,19.14,19.14,0,0,0-1.039-6.129,18.65,18.65,0,0,0-3.136-5.72,15.436,15.436,0,0,0-5.334-4.217A17.174,17.174,0,0,0,67.07,49.73a16.266,16.266,0,0,0-7.408,1.593,15.751,15.751,0,0,0-5.26,4.2,17.848,17.848,0,0,0-3.11,5.72,19.771,19.771,0,0,0-1.012,6.154,21.211,21.211,0,0,0,.959,6.276,17.259,17.259,0,0,0,3.009,5.718,14.608,14.608,0,0,0,5.334,4.125,18.337,18.337,0,0,0,7.867,1.545,16.235,16.235,0,0,0,7.433-1.593c.308-.156.605-.322.9-.494l3.5,2.138h4.955l-6.171-3.763A15.32,15.32,0,0,0,80.124,79.241ZM69.743,76.259H64.787l7.964,4.853c-.09.062-.177.126-.269.177A9.184,9.184,0,0,1,67.4,82.666,10.313,10.313,0,0,1,62.03,81.33a10.727,10.727,0,0,1-3.658-3.561,16.6,16.6,0,0,1-2.06-4.955,22.846,22.846,0,0,1-.658-5.426,21.375,21.375,0,0,1,.69-5.324,17.047,17.047,0,0,1,2.124-4.947,11.661,11.661,0,0,1,3.6-3.623,9.215,9.215,0,0,1,5.062-1.377,9.707,9.707,0,0,1,5.242,1.377,11.387,11.387,0,0,1,3.644,3.649A17.757,17.757,0,0,1,78.16,62.1a20.529,20.529,0,0,1,.708,5.309,21.238,21.238,0,0,1-.692,5.281c-.092.354-.195.708-.3,1.041L74.7,71.8H69.744l7.145,4.352a16.846,16.846,0,0,1-.839,1.5,12.606,12.606,0,0,1-1.274,1.687Z" transform="translate(-50.28 -49.73)" fill="currentColor" fill-rule="evenodd"></path>
</svg>