<svg width="34" height="30" viewBox="0 0 34 30" fill="white" xmlns="http://www.w3.org/2000/svg">
<g id="img-taiko">
    <g clip-path="url(#clip0_357_3864)">
        <path
                d="M29.0806 23.477L23.9905 16.5614C23.4375 15.81 22.6187 15.3598 21.7467 15.2605C21.5482 15.2375 21.371 15.1223 21.2717 14.9486C21.1707 14.7749 21.1601 14.564 21.2398 14.3797C21.589 13.575 21.6102 12.641 21.2345 11.7868L17.7909 3.9212C17.2805 2.75324 16.1267 2 14.8524 2C13.5781 2 12.4243 2.75501 11.9138 3.9212L8.47023 11.7868C8.09627 12.641 8.11577 13.575 8.46492 14.3797C8.54469 14.564 8.53227 14.7749 8.433 14.9486C8.332 15.1223 8.15654 15.2375 7.95804 15.2605C7.08604 15.3598 6.26723 15.81 5.71427 16.5614L0.624158 23.477C-0.130853 24.5032 -0.207064 25.8785 0.4292 26.9827C1.06724 28.0851 2.29723 28.7072 3.56267 28.5672L12.0964 27.6172C13.0233 27.5144 13.8227 27.0305 14.3437 26.3252C14.4625 26.1639 14.6521 26.0682 14.8524 26.0682C15.0527 26.0682 15.2405 26.1639 15.361 26.3252C15.8821 27.0305 16.6814 27.5144 17.6083 27.6172L26.1421 28.5672C27.4075 28.7089 28.6375 28.0868 29.2755 26.9827C29.9118 25.8785 29.8356 24.5032 29.0806 23.477ZM10.6963 12.774L14.1452 4.89952C14.2693 4.61772 14.5475 4.43517 14.8542 4.43517C15.1608 4.43517 15.439 4.61772 15.5631 4.89952L19.012 12.774C19.1202 13.0221 19.0971 13.3092 18.9482 13.5361C18.7993 13.7629 18.5477 13.8994 18.2747 13.8994H11.4318C11.1606 13.8994 10.9072 13.7629 10.7583 13.5361C10.6094 13.3092 10.5864 13.0221 10.6945 12.774H10.6963ZM12.4668 24.762C12.3445 25.0048 12.107 25.1678 11.8377 25.198L3.29505 26.1479C2.99021 26.1816 2.69246 26.0327 2.53827 25.7669C2.38407 25.501 2.40357 25.1696 2.58612 24.9215L7.68154 17.9988C7.84285 17.7808 8.10158 17.6567 8.37277 17.6727C8.64392 17.6868 8.8885 17.8375 9.02496 18.0732L9.03031 18.0821L12.442 23.991L12.4473 23.9998C12.5838 24.2356 12.5909 24.5227 12.4686 24.7637L12.4668 24.762ZM15.5542 22.0893C15.4089 22.3392 15.143 22.4952 14.8524 22.4952C14.5635 22.4952 14.2959 22.341 14.1505 22.0911L11.5293 17.5522C11.3839 17.3022 11.3839 16.9921 11.5293 16.7422C11.6746 16.4923 11.9405 16.3363 12.2311 16.3363H17.4719C17.7608 16.3363 18.0284 16.4888 18.1737 16.7404C18.319 16.9921 18.319 17.3005 18.1737 17.5504L15.5542 22.0893ZM27.1683 25.7669C27.0141 26.0327 26.7181 26.1834 26.4115 26.1497L17.8689 25.1997C17.5995 25.1696 17.362 25.0065 17.2397 24.7637C17.1174 24.5209 17.1245 24.2338 17.261 23.9998L17.2663 23.991L20.678 18.0821L20.6833 18.0732C20.8198 17.8375 21.0644 17.6868 21.3355 17.6727C21.6067 17.6585 21.8655 17.7808 22.0267 17.9988L27.1222 24.9215C27.3047 25.1696 27.3225 25.501 27.17 25.7669H27.1683Z"
                fill="white"
        />
    </g>
    <defs>
        <clipPath id="clip0_357_3864">
            <rect width="30" height="30" fill="white" />
        </clipPath>
    </defs>
</g>
</svg>