<svg xmlns:xlink="http://www.w3.org/1999/xlink" xmlns="http://www.w3.org/2000/svg" width="20" height="20" class="icon"><defs><symbol id="github" width="20" height="20" viewBox="0 0 20 20" fill="#fff">
                    <path d="M8.39226 17.0857C8.39224 16.9635 8.36535 16.8428 8.31347 16.7321C8.2616 16.6214 8.18603 16.5236 8.09211 16.4454C7.99818 16.3672 7.88821 16.3106 7.76998 16.2796C7.65175 16.2486 7.52816 16.2441 7.40797 16.2662C6.31707 16.4664 4.93971 16.4965 4.57349 15.4679C4.25417 14.6712 3.72522 13.9758 3.04274 13.4554C2.99404 13.4289 2.94763 13.3984 2.90399 13.3642C2.84425 13.2067 2.73816 13.0709 2.5997 12.9749C2.46125 12.8788 2.29693 12.827 2.12843 12.8263H2.12436C1.90403 12.8262 1.69263 12.9134 1.53645 13.0688C1.38027 13.2243 1.29203 13.4352 1.29103 13.6556C1.28777 14.3351 1.96686 14.7705 2.24236 14.9178C2.56723 15.2442 2.82832 15.6284 3.01222 16.0506C3.31577 16.9034 4.19793 18.1974 6.73374 18.0306C6.73457 18.0599 6.73536 18.0875 6.73577 18.1128L6.73943 18.3357C6.73943 18.5568 6.82723 18.7687 6.98351 18.925C7.13979 19.0813 7.35175 19.1691 7.57276 19.1691C7.79378 19.1691 8.00574 19.0813 8.16202 18.925C8.3183 18.7687 8.4061 18.5568 8.4061 18.3357L8.40203 18.0704C8.39796 17.9125 8.39226 17.6838 8.39226 17.0857ZM17.2814 4.4807C17.3079 4.37653 17.3339 4.26097 17.3567 4.13077C17.4915 3.20209 17.374 2.25426 17.0165 1.3866C16.9714 1.27349 16.9021 1.17161 16.8135 1.0881C16.7249 1.0046 16.619 0.941493 16.5034 0.903209C16.2068 0.803109 15.1114 0.606167 13.0167 1.94488C11.2755 1.53512 9.46292 1.53512 7.7217 1.94488C5.63551 0.625776 4.54583 0.804775 4.25204 0.899175C4.1336 0.935909 4.02487 0.998681 3.93383 1.08289C3.8428 1.1671 3.77176 1.27061 3.72592 1.38584C3.36117 2.27016 3.24495 3.23732 3.38982 4.18287C3.41017 4.28948 3.43214 4.38796 3.45493 4.47828C2.76457 5.39782 2.39685 6.51942 2.40879 7.6692C2.40654 7.92573 2.41835 8.18219 2.44419 8.43743C2.72252 12.2729 5.22252 13.4244 6.96444 13.8199C6.92824 13.9241 6.89528 14.0356 6.86598 14.1536C6.81376 14.368 6.8487 14.5944 6.96314 14.7831C7.07758 14.9717 7.26218 15.1073 7.47645 15.1601C7.69073 15.2129 7.91719 15.1786 8.10618 15.0646C8.29518 14.9507 8.43127 14.7665 8.48463 14.5523C8.53765 14.2747 8.67356 14.0196 8.87444 13.8207C8.99591 13.7144 9.08385 13.575 9.12757 13.4196C9.1713 13.2642 9.16891 13.0995 9.12072 12.9454C9.07252 12.7913 8.98059 12.6546 8.8561 12.5518C8.73161 12.449 8.57994 12.3846 8.41953 12.3665C5.54111 12.0377 4.29151 10.865 4.10353 8.28444C4.0827 8.08005 4.07333 7.87465 4.07545 7.66921C4.06208 6.84975 4.33281 6.05094 4.84164 5.40847C4.89277 5.34149 4.94723 5.27711 5.00481 5.21559C5.10684 5.10143 5.17543 4.96136 5.20307 4.81076C5.23071 4.66017 5.21632 4.50487 5.16148 4.36192C5.10526 4.21152 5.06197 4.05661 5.03209 3.89886C4.9642 3.45029 4.98646 2.99268 5.09759 2.55283C5.82186 2.75739 6.50352 3.09036 7.11009 3.53589C7.21039 3.6027 7.3239 3.64716 7.4429 3.66626C7.56189 3.68536 7.68361 3.67865 7.79979 3.64658C9.48404 3.18949 11.2597 3.18978 12.9438 3.64741C13.0606 3.67944 13.183 3.68577 13.3025 3.66596C13.422 3.64616 13.5357 3.60068 13.636 3.53267C14.2397 3.08528 14.9185 2.74933 15.6404 2.54064C15.751 2.96994 15.7757 3.41686 15.7132 3.85574C15.683 4.02869 15.6359 4.19824 15.5724 4.36193C15.5176 4.50489 15.5032 4.66018 15.5308 4.81078C15.5584 4.96137 15.627 5.10144 15.7291 5.21561C15.7934 5.28803 15.8577 5.36616 15.9154 5.4394C16.4207 6.071 16.6868 6.86063 16.667 7.6692C16.6685 7.88554 16.6581 8.1018 16.6357 8.31698C16.4522 10.8634 15.1977 12.0369 12.3058 12.3665C12.1454 12.3847 11.9937 12.4492 11.8692 12.5521C11.7447 12.655 11.6529 12.7918 11.6047 12.946C11.5566 13.1001 11.5542 13.2649 11.598 13.4204C11.6418 13.5758 11.7298 13.7152 11.8513 13.8215C12.0585 14.0257 12.1947 14.291 12.2399 14.5784C12.2962 14.8015 12.3221 15.0311 12.3168 15.2612V17.2062C12.3087 17.7457 12.3087 18.1501 12.3087 18.3357C12.3087 18.5567 12.3965 18.7687 12.5527 18.925C12.709 19.0812 12.921 19.169 13.142 19.169C13.363 19.169 13.575 19.0812 13.7313 18.925C13.8875 18.7687 13.9753 18.5567 13.9753 18.3357C13.9753 18.155 13.9753 17.7587 13.9835 17.2192V15.2612C13.9902 14.8927 13.9468 14.525 13.8545 14.1682C13.8281 14.0511 13.7958 13.9354 13.7576 13.8215C15.0254 13.611 16.1772 12.9573 17.0082 11.9771C17.8391 10.9968 18.2953 9.75344 18.2954 8.46836C18.3229 8.20288 18.3356 7.93609 18.3337 7.6692C18.3522 6.51818 17.9814 5.39464 17.2814 4.48072L17.2814 4.4807Z" fill="#fff"></path>
                  </symbol></defs><use xlink:href="#github"></use></svg>
