<svg viewBox="0 0 23 23" fill="none" xmlns="http://www.w3.org/2000/svg">
<g clip-path="url(#clip0_267_11912)">
<path fill-rule="evenodd" clip-rule="evenodd" d="M6.10754 15.9852C8.60627 18.8995 12.9915 19.2338 15.9022 16.732C18.8129 14.2303 19.1468 9.83975 16.6481 6.92559C14.1494 4.01134 9.76415 3.67698 6.85352 6.1787C3.94281 8.68047 3.60881 13.071 6.10754 15.9852ZM2.74496 18.8754C6.83792 23.6491 14.0211 24.1967 18.7889 20.0988C23.5567 16.0008 24.1037 8.80897 20.0108 4.03532C15.9177 -0.738248 8.73462 -1.28595 3.96675 2.81203C-0.801031 6.90997 -1.34807 14.1019 2.74496 18.8754Z" fill="#0089D7"/>
<path fill-rule="evenodd" clip-rule="evenodd" d="M4.49945 2.38054C4.41584 2.4347 4.33488 2.49514 4.25715 2.5619C3.327 3.36139 3.22029 4.76446 4.01877 5.69574C4.80992 6.6184 6.19263 6.73189 7.12278 5.95659L7.12355 5.95753C10.0297 3.6998 14.2252 4.10034 16.6475 6.92559C19.1 9.78574 18.8238 14.0681 16.0608 16.591L16.0622 16.5925C15.2494 17.4062 15.1881 18.7224 15.9492 19.61C16.7149 20.5031 18.035 20.638 18.9623 19.9426L18.9641 19.9446C18.9722 19.9374 18.9803 19.93 18.9885 19.9228C19.0192 19.899 19.0494 19.8743 19.0793 19.8487C19.1567 19.7821 19.2284 19.7115 19.2944 19.6372C23.5899 15.4781 23.9536 8.63439 20.0102 4.03532C16.0671 -0.563457 9.25598 -1.24018 4.49945 2.38054Z" fill="#2F21FF"/>
<path d="M21.3919 2.73054C22.145 2.73054 22.7555 2.11928 22.7555 1.36527C22.7555 0.611251 22.145 0 21.3919 0C20.6388 0 20.0283 0.611251 20.0283 1.36527C20.0283 2.11928 20.6388 2.73054 21.3919 2.73054Z" fill="#2F21FF"/>
</g>
<defs>
<clipPath id="clip0_267_11912">
<rect width="23" height="23" fill="white"/>
</clipPath>
</defs>
</svg>
