<svg viewBox="0 0 99 24" fill="none" xmlns="http://www.w3.org/2000/svg">
<path fill-rule="evenodd" clip-rule="evenodd" d="M97.6327 4.30895C97.7469 4.18257 97.816 4.01925 97.8407 3.81898H97.204C97.1827 4.01268 97.083 4.10953 96.9049 4.10953C96.8001 4.10953 96.7148 4.07506 96.6509 4.00611C96.5674 3.91745 96.5248 3.78862 96.5248 3.61956C96.5248 3.4505 96.5691 3.31345 96.656 3.2084C96.7114 3.13947 96.789 3.105 96.8878 3.105C97.0753 3.105 97.181 3.19774 97.204 3.38321H97.8211C97.8006 3.11403 97.6753 2.90722 97.4435 2.76279C97.2756 2.65774 97.0864 2.60522 96.8759 2.60522C96.6109 2.60522 96.3867 2.6881 96.2043 2.85388C95.9921 3.04591 95.8856 3.29458 95.8856 3.59986C95.8856 3.92974 96.0032 4.19076 96.2367 4.38276C96.4208 4.53379 96.645 4.6093 96.91 4.6093C97.2143 4.6093 97.4555 4.50913 97.6327 4.30895ZM97.7785 2.13498C97.4989 1.96264 97.2032 1.87646 96.8904 1.87646C96.5955 1.87646 96.3245 1.93966 96.0757 2.06604C95.7765 2.21704 95.543 2.43123 95.3751 2.70862C95.2021 2.99093 95.116 3.29786 95.116 3.62941C95.116 3.90679 95.1799 4.17105 95.3086 4.42218C95.4603 4.71597 95.6759 4.94823 95.9572 5.11889C96.2376 5.28963 96.5401 5.37496 96.8657 5.37496C97.1452 5.37496 97.4103 5.31097 97.66 5.18289C97.9515 5.03356 98.1824 4.81853 98.3537 4.53788C98.525 4.25886 98.6103 3.95517 98.6103 3.62694C98.6103 3.34792 98.5463 3.08284 98.4177 2.83172C98.2694 2.53957 98.0572 2.30732 97.7785 2.13498ZM96.1873 2.4895C96.3978 2.35984 96.6194 2.295 96.8529 2.295C97.0719 2.295 97.2739 2.34342 97.458 2.44026C97.677 2.55679 97.8483 2.72011 97.9736 2.9302C98.1023 3.14522 98.1662 3.37828 98.1662 3.62941C98.1662 3.99382 98.0384 4.30647 97.7836 4.56741C97.5304 4.82672 97.2245 4.95642 96.8657 4.95642C96.5086 4.95642 96.2026 4.82758 95.9478 4.56988C95.6896 4.30895 95.56 3.99382 95.56 3.62449C95.56 3.41275 95.6077 3.21087 95.7032 3.01884C95.8148 2.79725 95.9768 2.62081 96.1873 2.4895ZM76.7883 1.90205H73.0315V19.9663H76.7883V1.90205ZM40.0765 16.3287C39.4339 16.6091 38.7336 16.7493 37.9757 16.7493C37.2013 16.7493 36.4928 16.6091 35.8502 16.3287C35.224 16.0317 34.6721 15.6358 34.1942 15.1409C33.7329 14.646 33.3704 14.0686 33.1068 13.4087C32.8596 12.7488 32.736 12.0477 32.736 11.3053V11.2559C32.736 10.5135 32.8596 9.82062 33.1068 9.17723C33.3704 8.5173 33.7246 7.93996 34.1695 7.44505C34.6309 6.95014 35.1746 6.56241 35.8007 6.28201C36.4433 6.00154 37.1518 5.86134 37.9263 5.86134C38.6842 5.86134 39.3845 6.00981 40.0271 6.30676C40.6697 6.58715 41.2217 6.97489 41.683 7.4698C42.1609 7.96471 42.5234 8.54204 42.7705 9.20198C43.0341 9.86183 43.166 10.563 43.166 11.3053V11.3548C43.166 12.0972 43.0341 12.7983 42.7705 13.4582C42.5234 14.1016 42.1691 14.6707 41.7077 15.1656C41.2629 15.6605 40.7191 16.0482 40.0765 16.3287ZM34.2437 19.5703C35.3641 20.0322 36.5916 20.2632 37.9263 20.2632C39.2609 20.2632 40.4884 20.0322 41.6089 19.5703C42.7458 19.0919 43.718 18.4485 44.5253 17.6402C45.3492 16.8153 45.9918 15.8667 46.4531 14.7945C46.9144 13.7057 47.1451 12.5426 47.1451 11.3053V11.2559C47.1451 10.0186 46.9144 8.86373 46.4531 7.79149C46.0082 6.70269 45.3739 5.76236 44.55 4.9705C43.7427 4.16209 42.7788 3.527 41.6583 3.06508C40.5379 2.58667 39.3103 2.34746 37.9757 2.34746C36.6411 2.34746 35.4053 2.58667 34.2684 3.06508C33.1479 3.527 32.1758 4.17037 31.352 4.99525C30.5446 5.80357 29.9102 6.75218 29.4489 7.84098C28.9875 8.91322 28.7568 10.0681 28.7568 11.3053V11.3548C28.7568 12.5921 28.9793 13.7551 29.4242 14.8439C29.8855 15.9162 30.5199 16.8565 31.3272 17.6649C32.1511 18.4568 33.1232 19.0919 34.2437 19.5703ZM53.1414 6.70269H49.3846V19.9663H53.1414V15.0667C53.1414 13.4664 53.4956 12.2869 54.2041 11.5281C54.9291 10.7691 55.9177 10.3898 57.17 10.3898H57.3677V6.45523C56.2473 6.40574 55.3575 6.65319 54.6985 7.1976C54.0393 7.742 53.5203 8.46781 53.1414 9.3752V6.70269ZM63.8671 17.6154C64.7569 17.6154 65.4654 17.4009 65.9927 16.9721C66.5364 16.5431 66.8083 15.9822 66.8083 15.2894V14.6212C66.4787 14.4728 66.108 14.3572 65.6961 14.2748C65.3006 14.1758 64.8722 14.1263 64.4109 14.1263C63.6034 14.1263 62.9691 14.283 62.5078 14.5965C62.0464 14.9099 61.8157 15.3636 61.8157 15.9575V16.007C61.8157 16.5184 62.0052 16.9143 62.3842 17.1948C62.7631 17.4752 63.2574 17.6154 63.8671 17.6154ZM62.7302 20.2137C62.1041 20.2137 61.5109 20.1312 60.9507 19.9663C60.407 19.7848 59.9291 19.5208 59.5172 19.1744C59.1052 18.828 58.7757 18.4073 58.5286 17.9124C58.2979 17.4009 58.1826 16.8153 58.1826 16.1555V16.106C58.1826 15.3801 58.3143 14.7532 58.578 14.2253C58.8416 13.6974 59.2041 13.2602 59.6655 12.9138C60.1433 12.5674 60.7035 12.3116 61.3461 12.1467C62.0052 11.9652 62.7302 11.8745 63.5211 11.8745C64.1966 11.8745 64.7816 11.924 65.2759 12.023C65.7867 12.1219 66.281 12.2539 66.7588 12.4189V12.1962C66.7588 11.4043 66.5199 10.8022 66.0421 10.3898C65.5642 9.97728 64.8557 9.77113 63.9166 9.77113C63.1915 9.77113 62.5489 9.83708 61.9887 9.96909C61.445 10.0845 60.8683 10.2578 60.2587 10.4887L59.3195 7.61827C60.0444 7.30477 60.8024 7.04912 61.5933 6.85116C62.3842 6.6532 63.3398 6.55421 64.4603 6.55421C65.4983 6.55421 66.3798 6.68613 67.1049 6.95014C67.8463 7.1976 68.4559 7.5605 68.9338 8.03894C69.4281 8.53385 69.7906 9.14421 70.0213 9.87011C70.2519 10.5794 70.3673 11.3796 70.3673 12.2704V19.9663H66.7341V18.531C66.2727 19.0424 65.7208 19.4548 65.0782 19.7683C64.4356 20.0652 63.6529 20.2137 62.7302 20.2137ZM79.7481 1.90205H83.5049V19.9663H79.7481V1.90205ZM87.6264 23.7523C88.1539 23.9173 88.7633 23.9998 89.4553 23.9998C90.0152 23.9998 90.5096 23.9337 90.9382 23.8018C91.3669 23.6698 91.7453 23.4554 92.0751 23.1584C92.4212 22.8615 92.7339 22.4737 93.0143 21.9954C93.2947 21.5334 93.5581 20.9643 93.8052 20.288L98.8966 6.70269H94.9916L92.0999 15.7348L89.0846 6.70269H85.1054L90.2956 20.0158C90.1311 20.3456 89.9496 20.5683 89.7519 20.6839C89.5704 20.8158 89.3155 20.8818 88.9857 20.8818C88.7386 20.8818 88.4667 20.8324 88.1701 20.7334C87.8897 20.6344 87.6264 20.5107 87.3792 20.3622L86.1187 23.0842C86.5968 23.3646 87.0988 23.5873 87.6264 23.7523Z" fill="white"/>
<path fill-rule="evenodd" clip-rule="evenodd" d="M6.10754 15.9855C8.60627 18.8997 12.9915 19.234 15.9022 16.7323C18.8129 14.2305 19.1468 9.83996 16.6481 6.9258C14.1494 4.01155 9.76415 3.67719 6.85352 6.17891C3.94281 8.68068 3.60881 13.0712 6.10754 15.9855ZM2.74496 18.8756C6.83792 23.6493 14.0211 24.1969 18.7889 20.099C23.5567 16.001 24.1037 8.80919 20.0108 4.03553C15.9177 -0.738035 8.73462 -1.28574 3.96675 2.81224C-0.801031 6.91018 -1.34807 14.1021 2.74496 18.8756Z" fill="#0089D7"/>
<path fill-rule="evenodd" clip-rule="evenodd" d="M4.49957 2.38075C4.41596 2.43492 4.335 2.49536 4.25727 2.56211C3.32712 3.3616 3.22042 4.76467 4.0189 5.69595C4.81005 6.61862 6.19275 6.73211 7.1229 5.9568L7.12367 5.95774C10.0298 3.70001 14.2253 4.10055 16.6476 6.9258C19.1001 9.78595 18.8239 14.0683 16.061 16.5912L16.0623 16.5928C15.2495 17.4065 15.1882 18.7227 15.9493 19.6102C16.7151 20.5033 18.0351 20.6382 18.9625 19.9429L18.9643 19.9448C18.9723 19.9376 18.9804 19.9302 18.9886 19.923C19.0193 19.8992 19.0496 19.8745 19.0794 19.8489C19.1568 19.7824 19.2285 19.7117 19.2945 19.6374C23.5901 15.4784 23.9537 8.63461 20.0103 4.03553C16.0672 -0.563244 9.2561 -1.23996 4.49957 2.38075Z" fill="#2F21FF"/>
<path d="M21.3919 2.73054C22.145 2.73054 22.7555 2.11928 22.7555 1.36527C22.7555 0.611251 22.145 0 21.3919 0C20.6388 0 20.0283 0.611251 20.0283 1.36527C20.0283 2.11928 20.6388 2.73054 21.3919 2.73054Z" fill="#2F21FF"/>
</svg>
