<svg xmlns:xlink="http://www.w3.org/1999/xlink" xmlns="http://www.w3.org/2000/svg" width="20" height="20" class="icon"><defs><symbol id="twitter" width="20" height="20" viewBox="0 0 20 20">
                    <path d="M19.1595 3.29192C19.1596 3.14473 19.1207 3.00014 19.0467 2.87287C18.9728 2.74561 18.8664 2.64023 18.7384 2.56745C18.6105 2.49467 18.4656 2.45709 18.3184 2.45856C18.1712 2.46002 18.027 2.50046 17.9005 2.57577C17.4128 2.86609 16.8876 3.08842 16.3397 3.2366C15.5572 2.56513 14.5592 2.19769 13.528 2.20144C12.3969 2.20275 11.3104 2.64361 10.4982 3.43093C9.68599 4.21825 9.21153 5.29041 9.17502 6.42101C6.945 6.0654 4.92388 4.90145 3.49706 3.15113C3.41109 3.04682 3.3013 2.96472 3.17694 2.91175C3.05259 2.85878 2.91732 2.83648 2.78254 2.84675C2.64784 2.85784 2.51787 2.90158 2.40387 2.97418C2.28986 3.04678 2.19526 3.14605 2.12824 3.26342C1.78451 3.86326 1.5871 4.53572 1.55203 5.22618C1.51696 5.91663 1.64523 6.60563 1.92642 7.23721L1.92479 7.23884C1.79841 7.31667 1.69412 7.42563 1.62188 7.55529C1.54964 7.68495 1.51187 7.83098 1.51219 7.9794C1.51066 8.10184 1.518 8.22423 1.53417 8.34561C1.61928 9.39417 2.08398 10.3757 2.84113 11.106C2.78977 11.2039 2.75842 11.311 2.74892 11.4211C2.73942 11.5312 2.75195 11.6421 2.78579 11.7473C3.11589 12.7758 3.81787 13.644 4.75438 14.1822C3.80292 14.5501 2.77557 14.6784 1.76284 14.5557C1.5754 14.5322 1.38553 14.5731 1.22438 14.6717C1.06323 14.7702 0.940363 14.9207 0.875936 15.0982C0.81151 15.2758 0.809349 15.47 0.869808 15.649C0.930267 15.828 1.04976 15.9811 1.20867 16.0832C2.95042 17.205 4.9784 17.8015 7.05015 17.8012C9.39953 17.8276 11.6918 17.0769 13.5703 15.6657C15.4489 14.2546 16.8084 12.2622 17.4375 9.99842C17.7317 9.01228 17.8819 7.98881 17.8835 6.95972C17.8835 6.90519 17.8835 6.84904 17.8826 6.79289C18.3177 6.32367 18.6548 5.77231 18.874 5.17114C19.0933 4.56997 19.1903 3.93108 19.1595 3.29192ZM16.404 5.96851C16.2663 6.1313 16.1967 6.34084 16.2095 6.55364C16.2176 6.69114 16.2168 6.82947 16.2168 6.95972C16.2151 7.82934 16.0876 8.69414 15.8384 9.52727C15.3246 11.4534 14.1793 13.1515 12.5859 14.3494C10.9925 15.5474 9.04322 16.176 7.05015 16.1345C6.33421 16.1347 5.62075 16.0506 4.9245 15.8839C5.81234 15.5978 6.64249 15.1566 7.37648 14.581C7.51167 14.4745 7.61061 14.3289 7.65972 14.164C7.70884 13.9991 7.70572 13.823 7.65079 13.6599C7.59587 13.4969 7.49184 13.3548 7.35297 13.2532C7.21409 13.1516 7.04719 13.0955 6.87515 13.0925C6.18251 13.0818 5.52109 12.8026 5.03026 12.3137C5.15477 12.2901 5.27847 12.2608 5.40136 12.2258C5.58137 12.1746 5.73889 12.0643 5.84857 11.9126C5.95826 11.761 6.01371 11.5768 6.006 11.3898C5.9983 11.2028 5.92788 11.0238 5.80609 10.8817C5.68431 10.7396 5.51824 10.6426 5.33462 10.6064C4.93257 10.527 4.55425 10.3559 4.22905 10.1065C3.90386 9.85712 3.64056 9.53609 3.45962 9.16838C3.61023 9.18893 3.7618 9.2017 3.91372 9.20663C4.09421 9.20935 4.27089 9.15461 4.4182 9.0503C4.56552 8.94599 4.67585 8.79753 4.73322 8.62639C4.78821 8.45369 4.78538 8.26777 4.72517 8.09683C4.66495 7.92588 4.55064 7.77924 4.39957 7.67912C4.03302 7.43493 3.73277 7.10364 3.5257 6.71492C3.31862 6.3262 3.2112 5.89218 3.21304 5.45175C3.21304 5.39642 3.21467 5.34108 3.21792 5.28655C5.08564 7.02843 7.50819 8.05526 10.0588 8.18613C10.1875 8.1912 10.3157 8.16695 10.4337 8.11521C10.5517 8.06347 10.6564 7.98559 10.7399 7.88746C10.8226 7.78838 10.8811 7.67147 10.9109 7.54593C10.9407 7.42039 10.9409 7.28964 10.9116 7.16399C10.8639 6.96513 10.8396 6.76139 10.8392 6.55689C10.8399 5.84401 11.1234 5.16054 11.6275 4.65645C12.1316 4.15236 12.8151 3.86884 13.528 3.86809C13.8948 3.8671 14.2578 3.94217 14.5941 4.08854C14.9304 4.23491 15.2327 4.44942 15.4819 4.71851C15.578 4.82191 15.699 4.89901 15.8333 4.94246C15.9676 4.98591 16.1108 4.99427 16.2493 4.96675C16.5916 4.90013 16.9291 4.81041 17.2592 4.6982C17.034 5.15901 16.7462 5.58649 16.404 5.96851Z" fill="#000000"></path>
                  </symbol></defs><use xlink:href="#twitter"></use></svg>
