<svg width="30" height="30" viewBox="0 0 30 30" fill="none" xmlns="http://www.w3.org/2000/svg">
<g clip-path="url(#clip0_308_3864)">
<path fill-rule="evenodd" clip-rule="evenodd" d="M28.0658 8.60235C28.0658 7.93989 27.7143 7.32875 27.1459 7.00295L15.9231 0.570725C15.3706 0.254094 14.6952 0.254094 14.1427 0.570725L2.91994 7.00295C2.35152 7.32875 2 7.93989 2 8.60235V21.3975C2 22.06 2.35152 22.6711 2.91994 22.9969L14.1427 29.4291C14.6952 29.7458 15.3706 29.7458 15.9231 29.4291L27.1459 22.9969C27.7143 22.6711 28.0658 22.06 28.0658 21.3975V8.60235ZM20.8178 20.7268C22.2075 20.7268 23.0788 19.2035 22.3896 17.9789L16.6792 7.83309C15.9844 6.59862 14.2304 6.59862 13.5356 7.83309L7.82522 17.9789C7.13602 19.2035 8.00738 20.7268 9.39707 20.7268H20.8178Z" fill="white"/>
</g>
<defs>
<clipPath id="clip0_308_3864">
<rect width="26" height="30" fill="white" transform="translate(2)"/>
</clipPath>
</defs>
</svg>
