<svg width="104" height="104" viewBox="0 0 104 104" fill="none" xmlns="http://www.w3.org/2000/svg">
<path d="M78.995 44.146C78.036 30.099 66.345 19 52.054 19C37.764 19 26.073 30.1 25.114 44.146C14.469 44.673 6 53.47 6 64.244C6 75.359 15.009 84.369 26.124 84.369H77.986C89.1 84.369 98.11 75.359 98.11 64.244C98.11 53.471 89.64 44.674 78.995 44.146Z" fill="url(#paint0_radial_1012_28454)"/>
<path d="M52.0569 46.6501C44.4819 40.5041 41.5219 31.1461 45.4499 25.7481C49.3799 20.3461 58.7059 20.9531 66.2849 27.0941C73.8579 33.2401 76.814 42.6021 72.889 47.9981C68.958 53.4001 59.6309 52.7931 52.0569 46.6501Z" fill="url(#paint1_radial_1012_28454)"/>
<path opacity="0.4" d="M79.1379 64.8161C73.1849 59.9841 70.8589 52.6311 73.9449 48.3861C77.0339 44.1421 84.3639 44.6201 90.3199 49.4471C96.2719 54.2751 98.5939 61.6331 95.5099 65.8731C92.4199 70.1191 85.0899 69.6421 79.1379 64.8161Z" fill="url(#paint2_radial_1012_28454)"/>
<path opacity="0.2" d="M20.388 65.49C15.995 58.636 10.892 55.338 8.98102 58.117C7.07702 60.894 9.09102 68.707 13.481 75.562C17.877 82.416 22.983 85.716 24.888 82.935C26.794 80.15 24.781 72.346 20.388 65.49Z" fill="url(#paint3_radial_1012_28454)"/>
<defs>
<radialGradient id="paint0_radial_1012_28454" cx="0" cy="0" r="1" gradientUnits="userSpaceOnUse" gradientTransform="translate(63.6695 32.7764) rotate(180) scale(70.2572 51.3229)">
<stop stop-color="white"/>
<stop offset="0.198" stop-color="#D5F3FF"/>
<stop offset="1" stop-color="#85BCF1"/>
</radialGradient>
<radialGradient id="paint1_radial_1012_28454" cx="0" cy="0" r="1" gradientUnits="userSpaceOnUse" gradientTransform="translate(59.1701 36.8714) rotate(126.034) scale(12.0919 17.6398)">
<stop stop-color="white"/>
<stop offset="1" stop-color="white" stop-opacity="0"/>
</radialGradient>
<radialGradient id="paint2_radial_1012_28454" cx="0" cy="0" r="1" gradientUnits="userSpaceOnUse" gradientTransform="translate(84.7269 57.1301) rotate(126.034) scale(9.50311 13.8632)">
<stop stop-color="white"/>
<stop offset="1" stop-color="white" stop-opacity="0"/>
</radialGradient>
<radialGradient id="paint3_radial_1012_28454" cx="0" cy="0" r="1" gradientUnits="userSpaceOnUse" gradientTransform="translate(16.9347 70.5213) rotate(-25.7092) scale(4.87116 14.1804)">
<stop stop-color="white"/>
<stop offset="1" stop-color="white" stop-opacity="0"/>
</radialGradient>
</defs>
</svg>
