<svg width="104" height="104" viewBox="0 0 104 104" fill="none" xmlns="http://www.w3.org/2000/svg">
<g clip-path="url(#clip0_1012_28466)">
<path d="M87.3856 39.6795C86.5588 27.569 76.4795 18 64.1585 18C51.8385 18 41.7582 27.5698 40.9314 39.6795C31.7539 40.1322 24.4524 47.7165 24.4524 57.0069C24.4524 66.5897 32.2203 74.3559 41.8022 74.3559H86.5148C96.0959 74.3559 103.865 66.5897 103.865 57.0069C103.865 47.7165 96.5631 40.1322 87.3856 39.6795Z" fill="url(#paint0_radial_1012_28466)"/>
<path opacity="0.6" d="M65.7898 41.8381C59.2591 36.5377 56.708 28.4714 60.0945 23.8158C63.4819 19.1602 71.5231 19.6836 78.0573 24.978C84.5864 30.275 87.134 38.3482 83.7509 42.9986C80.3618 47.6576 72.3206 47.1334 65.7898 41.8381Z" fill="url(#paint1_radial_1012_28466)"/>
<path opacity="0.4" d="M87.5072 57.4981C82.3748 53.334 80.3704 46.9938 83.031 43.3348C85.6933 39.6759 92.0128 40.0862 97.1477 44.2478C102.279 48.412 104.281 54.7557 101.622 58.4112C98.9582 62.071 92.6396 61.6606 87.5072 57.4981Z" fill="url(#paint2_radial_1012_28466)"/>
<path opacity="0.2" d="M36.858 58.0801C33.0698 52.171 28.6711 49.3276 27.0227 51.7235C25.3812 54.116 27.1175 60.8519 30.9023 66.7637C34.6923 72.6711 39.0944 75.5162 40.7377 73.1186C42.3801 70.7201 40.6454 63.991 36.858 58.0801Z" fill="url(#paint3_radial_1012_28466)"/>
<path d="M62.9332 51.6126C62.1064 39.5021 52.0262 29.9331 39.7062 29.9331C27.3852 29.9331 17.3067 39.5029 16.4799 51.6126C7.3024 52.067 0 59.6513 0 68.94C0 78.5228 7.76796 86.2907 17.3498 86.2907H62.0633C71.6435 86.2907 79.4123 78.5228 79.4123 68.94C79.4123 59.6521 72.1099 52.0678 62.9332 51.6126Z" fill="url(#paint4_radial_1012_28466)"/>
<path d="M39.7072 53.7715C33.1773 48.4727 30.6253 40.4047 34.011 35.7509C37.3992 31.0936 45.4396 31.6169 51.9747 36.9113C58.5037 42.2101 61.0513 50.2815 57.6683 54.9336C54.2801 59.5909 46.238 59.0676 39.7072 53.7715Z" fill="url(#paint5_radial_1012_28466)"/>
<path opacity="0.4" d="M63.0547 69.433C57.9215 65.2671 55.917 58.9277 58.5776 55.2679C61.2407 51.6089 67.5594 52.021 72.6952 56.1826C77.8267 60.3451 79.8277 66.6887 77.1689 70.3442C74.5057 74.0049 68.187 73.5937 63.0547 69.433Z" fill="url(#paint6_radial_1012_28466)"/>
<path opacity="0.2" d="M12.4037 70.0145C8.61542 64.1053 4.21676 61.262 2.56834 63.6579C0.926813 66.052 2.66318 72.788 6.448 78.698C10.2371 84.6072 14.6392 87.4522 16.2834 85.0546C17.9257 82.6535 16.1911 75.9253 12.4037 70.0145Z" fill="url(#paint7_radial_1012_28466)"/>
<g filter="url(#filter0_f_1012_28466)">
<rect x="-3" y="45" width="103" height="45" rx="14" fill="url(#paint8_radial_1012_28466)"/>
</g>
<g filter="url(#filter1_f_1012_28466)">
<rect y="50" width="58" height="45" rx="14" fill="url(#paint9_radial_1012_28466)"/>
</g>
<g filter="url(#filter2_f_1012_28466)">
<rect x="61" y="46" width="43" height="45" rx="14" fill="url(#paint10_radial_1012_28466)" fill-opacity="0.7"/>
</g>
<g filter="url(#filter3_f_1012_28466)">
<rect x="49" y="46" width="43" height="45" rx="14" fill="url(#paint11_radial_1012_28466)"/>
</g>
</g>
<defs>
<filter id="filter0_f_1012_28466" x="-23" y="25" width="143" height="85" filterUnits="userSpaceOnUse" color-interpolation-filters="sRGB">
<feFlood flood-opacity="0" result="BackgroundImageFix"/>
<feBlend mode="normal" in="SourceGraphic" in2="BackgroundImageFix" result="shape"/>
<feGaussianBlur stdDeviation="10" result="effect1_foregroundBlur_1012_28466"/>
</filter>
<filter id="filter1_f_1012_28466" x="-20" y="30" width="98" height="85" filterUnits="userSpaceOnUse" color-interpolation-filters="sRGB">
<feFlood flood-opacity="0" result="BackgroundImageFix"/>
<feBlend mode="normal" in="SourceGraphic" in2="BackgroundImageFix" result="shape"/>
<feGaussianBlur stdDeviation="10" result="effect1_foregroundBlur_1012_28466"/>
</filter>
<filter id="filter2_f_1012_28466" x="41" y="26" width="83" height="85" filterUnits="userSpaceOnUse" color-interpolation-filters="sRGB">
<feFlood flood-opacity="0" result="BackgroundImageFix"/>
<feBlend mode="normal" in="SourceGraphic" in2="BackgroundImageFix" result="shape"/>
<feGaussianBlur stdDeviation="10" result="effect1_foregroundBlur_1012_28466"/>
</filter>
<filter id="filter3_f_1012_28466" x="29" y="26" width="83" height="85" filterUnits="userSpaceOnUse" color-interpolation-filters="sRGB">
<feFlood flood-opacity="0" result="BackgroundImageFix"/>
<feBlend mode="normal" in="SourceGraphic" in2="BackgroundImageFix" result="shape"/>
<feGaussianBlur stdDeviation="10" result="effect1_foregroundBlur_1012_28466"/>
</filter>
<radialGradient id="paint0_radial_1012_28466" cx="0" cy="0" r="1" gradientUnits="userSpaceOnUse" gradientTransform="translate(74.1724 29.8764) rotate(180) scale(60.5708 44.247)">
<stop stop-color="#B6CCD2"/>
<stop offset="0.198" stop-color="#97B6BE"/>
<stop offset="1" stop-color="#5D87B4"/>
</radialGradient>
<radialGradient id="paint1_radial_1012_28466" cx="0" cy="0" r="1" gradientUnits="userSpaceOnUse" gradientTransform="translate(71.9226 33.4066) rotate(126.034) scale(10.4251 15.2082)">
<stop stop-color="white"/>
<stop offset="1" stop-color="white" stop-opacity="0"/>
</radialGradient>
<radialGradient id="paint2_radial_1012_28466" cx="0" cy="0" r="1" gradientUnits="userSpaceOnUse" gradientTransform="translate(92.3266 50.872) rotate(126.034) scale(8.19295 11.952)">
<stop stop-color="white"/>
<stop offset="1" stop-color="white" stop-opacity="0"/>
</radialGradient>
<radialGradient id="paint3_radial_1012_28466" cx="0" cy="0" r="1" gradientUnits="userSpaceOnUse" gradientTransform="translate(33.8777 62.415) rotate(-25.7092) scale(4.19939 12.2248)">
<stop stop-color="white"/>
<stop offset="1" stop-color="white" stop-opacity="0"/>
</radialGradient>
<radialGradient id="paint4_radial_1012_28466" cx="0" cy="0" r="1" gradientUnits="userSpaceOnUse" gradientTransform="translate(49.7196 41.8104) rotate(180) scale(60.5722 44.248)">
<stop stop-color="white"/>
<stop offset="0.198" stop-color="#D5F3FF"/>
<stop offset="1" stop-color="#85BCF1"/>
</radialGradient>
<radialGradient id="paint5_radial_1012_28466" cx="0" cy="0" r="1" gradientUnits="userSpaceOnUse" gradientTransform="translate(45.8409 45.3411) rotate(126.034) scale(10.4252 15.2084)">
<stop stop-color="white"/>
<stop offset="1" stop-color="white" stop-opacity="0"/>
</radialGradient>
<radialGradient id="paint6_radial_1012_28466" cx="0" cy="0" r="1" gradientUnits="userSpaceOnUse" gradientTransform="translate(67.8732 62.8063) rotate(126.034) scale(8.19283 11.9518)">
<stop stop-color="white"/>
<stop offset="1" stop-color="white" stop-opacity="0"/>
</radialGradient>
<radialGradient id="paint7_radial_1012_28466" cx="0" cy="0" r="1" gradientUnits="userSpaceOnUse" gradientTransform="translate(9.42469 74.3503) rotate(-25.7092) scale(4.19956 12.2253)">
<stop stop-color="white"/>
<stop offset="1" stop-color="white" stop-opacity="0"/>
</radialGradient>
<radialGradient id="paint8_radial_1012_28466" cx="0" cy="0" r="1" gradientUnits="userSpaceOnUse" gradientTransform="translate(48.5 67.5) rotate(90) scale(22.5 51.5)">
<stop offset="0.398304" stop-color="white"/>
<stop offset="1" stop-color="#D9D9D9" stop-opacity="0"/>
</radialGradient>
<radialGradient id="paint9_radial_1012_28466" cx="0" cy="0" r="1" gradientUnits="userSpaceOnUse" gradientTransform="translate(29 72.5) rotate(90) scale(22.5 29)">
<stop offset="0.398304" stop-color="white"/>
<stop offset="1" stop-color="#D9D9D9" stop-opacity="0"/>
</radialGradient>
<radialGradient id="paint10_radial_1012_28466" cx="0" cy="0" r="1" gradientUnits="userSpaceOnUse" gradientTransform="translate(82.5 68.5) rotate(90) scale(22.5 21.5)">
<stop offset="0.398304" stop-color="white"/>
<stop offset="1" stop-color="#D9D9D9" stop-opacity="0"/>
</radialGradient>
<radialGradient id="paint11_radial_1012_28466" cx="0" cy="0" r="1" gradientUnits="userSpaceOnUse" gradientTransform="translate(70.5 68.5) rotate(90) scale(22.5 21.5)">
<stop offset="0.398304" stop-color="white"/>
<stop offset="1" stop-color="#D9D9D9" stop-opacity="0"/>
</radialGradient>
<clipPath id="clip0_1012_28466">
<rect width="104" height="104" fill="white"/>
</clipPath>
</defs>
</svg>
