<svg width="104" height="104" viewBox="0 0 104 104" fill="none" xmlns="http://www.w3.org/2000/svg">
<path d="M97.5169 59.834L91.1529 60.254L89.9539 66.518L83.8309 64.732L80.5639 70.209L75.4199 66.439L70.4759 70.467L66.9319 65.166L60.9089 67.258L59.3919 61.064L53.0159 60.971L53.7079 54.631L47.7489 52.363L50.5679 46.645L45.7439 42.475L50.3499 38.062L47.2419 32.496L53.0779 29.926L52.0629 23.631L58.4239 23.213L59.6239 16.949L65.7469 18.732L69.0149 13.258L74.1579 17.025L79.1029 13L82.6479 18.301L88.6699 16.207L90.1869 22.402L96.5629 22.494L95.8689 28.834L101.83 31.102L99.0109 36.82L103.835 40.992L99.2299 45.402L102.338 50.971L96.4999 53.539L97.5169 59.834Z" fill="url(#paint0_linear_1012_28483)"/>
<path d="M74.7889 63.246C86.6707 63.246 96.3029 53.6139 96.3029 41.732C96.3029 29.8502 86.6707 20.218 74.7889 20.218C62.907 20.218 53.2749 29.8502 53.2749 41.732C53.2749 53.6139 62.907 63.246 74.7889 63.246Z" fill="url(#paint1_radial_1012_28483)"/>
<path d="M78.0667 39.52C72.5877 35.075 70.4477 28.307 73.2877 24.401C76.1307 20.495 82.8747 20.934 88.3567 25.376C93.8357 29.821 95.9717 36.591 93.1327 40.495C90.2907 44.4 83.5447 43.963 78.0667 39.52Z" fill="url(#paint2_radial_1012_28483)"/>
<path opacity="0.4" d="M55.7748 46.4881C56.5018 44.1091 60.1888 45.0931 64.0188 48.6911C67.8468 52.2871 70.3618 57.1271 69.6388 59.5111C68.9148 61.8881 65.2238 60.9041 61.3938 57.3081C57.5668 53.7111 55.0508 48.8651 55.7748 46.4881Z" fill="url(#paint3_radial_1012_28483)"/>
<path d="M73.0038 50.4409C72.0448 36.3939 60.3528 25.2949 46.0628 25.2949C31.7718 25.2949 20.0808 36.3949 19.1218 50.4409C8.47683 50.9679 0.0078125 59.7649 0.0078125 70.5389C0.0078125 81.6539 9.01881 90.6639 20.1318 90.6639H71.9948C83.1078 90.6639 92.1188 81.6539 92.1188 70.5389C92.1178 59.7659 83.6478 50.9689 73.0038 50.4409Z" fill="url(#paint4_radial_1012_28483)"/>
<path d="M73.0038 50.4409C72.0448 36.3939 60.3528 25.2949 46.0628 25.2949C31.7718 25.2949 20.0808 36.3949 19.1218 50.4409C8.47683 50.9679 0.0078125 59.7649 0.0078125 70.5389C0.0078125 81.6539 9.01881 90.6639 20.1318 90.6639H71.9948C83.1078 90.6639 92.1188 81.6539 92.1188 70.5389C92.1178 59.7659 83.6478 50.9689 73.0038 50.4409Z" fill="url(#paint5_radial_1012_28483)"/>
<path d="M46.0648 52.945C38.4898 46.799 35.5298 37.441 39.4578 32.043C43.3878 26.641 52.7148 27.248 60.2928 33.389C67.8668 39.535 70.8208 48.897 66.8968 54.293C62.9648 59.695 53.6388 59.088 46.0648 52.945Z" fill="url(#paint6_radial_1012_28483)"/>
<path opacity="0.4" d="M73.1459 71.111C67.1929 66.279 64.8679 58.926 67.9539 54.681C71.0419 50.437 78.3719 50.915 84.3279 55.742C90.2799 60.57 92.6019 67.928 89.5179 72.168C86.4269 76.414 79.0979 75.937 73.1459 71.111Z" fill="url(#paint7_radial_1012_28483)"/>
<path opacity="0.2" d="M14.3958 71.7849C10.0018 64.9309 4.89979 61.6329 2.98879 64.4119C1.08579 67.1889 3.09779 75.0019 7.48879 81.8569C11.8848 88.7109 16.9908 92.0109 18.8968 89.2299C20.8008 86.4449 18.7888 78.6409 14.3958 71.7849Z" fill="url(#paint8_radial_1012_28483)"/>
<defs>
<linearGradient id="paint0_linear_1012_28483" x1="101.273" y1="12.1382" x2="50.2229" y2="69.185" gradientUnits="userSpaceOnUse">
<stop stop-color="#FFBA24"/>
<stop offset="1" stop-color="#FF5500"/>
</linearGradient>
<radialGradient id="paint1_radial_1012_28483" cx="0" cy="0" r="1" gradientUnits="userSpaceOnUse" gradientTransform="translate(79.7093 28.2437) rotate(180) scale(40.8406 40.8406)">
<stop stop-color="#FFF4C3"/>
<stop offset="0.1559" stop-color="#FFE036"/>
<stop offset="1" stop-color="#FA761C"/>
</radialGradient>
<radialGradient id="paint2_radial_1012_28483" cx="0" cy="0" r="1" gradientUnits="userSpaceOnUse" gradientTransform="translate(83.2114 32.4465) rotate(126.035) scale(8.74562 12.7582)">
<stop stop-color="white"/>
<stop offset="1" stop-color="white" stop-opacity="0"/>
</radialGradient>
<radialGradient id="paint3_radial_1012_28483" cx="0" cy="0" r="1" gradientUnits="userSpaceOnUse" gradientTransform="translate(62.7065 53.0005) rotate(-136.79) scale(9.51016 4.03934)">
<stop stop-color="white"/>
<stop offset="1" stop-color="white" stop-opacity="0"/>
</radialGradient>
<radialGradient id="paint4_radial_1012_28483" cx="0" cy="0" r="1" gradientUnits="userSpaceOnUse" gradientTransform="translate(57.6773 39.0713) rotate(180) scale(70.2576 51.3232)">
<stop stop-color="white"/>
<stop offset="0.198" stop-color="#D5F3FF"/>
<stop offset="1" stop-color="#85BCF1"/>
</radialGradient>
<radialGradient id="paint5_radial_1012_28483" cx="0" cy="0" r="1" gradientUnits="userSpaceOnUse" gradientTransform="translate(67.6328 44.9637) scale(59.7268 59.7268)">
<stop stop-color="#FFE036"/>
<stop offset="0.0052" stop-color="#FFDF36" stop-opacity="0.9933"/>
<stop offset="0.1623" stop-color="#FDB92C" stop-opacity="0.789"/>
<stop offset="0.319" stop-color="#FC9C25" stop-opacity="0.5851"/>
<stop offset="0.4735" stop-color="#FB8720" stop-opacity="0.3841"/>
<stop offset="0.6247" stop-color="#FA7A1D" stop-opacity="0.1875"/>
<stop offset="0.7688" stop-color="#FA761C" stop-opacity="0"/>
</radialGradient>
<radialGradient id="paint6_radial_1012_28483" cx="0" cy="0" r="1" gradientUnits="userSpaceOnUse" gradientTransform="translate(53.1776 43.1664) rotate(126.034) scale(12.0919 17.6398)">
<stop stop-color="white"/>
<stop offset="1" stop-color="white" stop-opacity="0"/>
</radialGradient>
<radialGradient id="paint7_radial_1012_28483" cx="0" cy="0" r="1" gradientUnits="userSpaceOnUse" gradientTransform="translate(78.7351 63.4255) rotate(126.034) scale(9.50283 13.8628)">
<stop stop-color="white"/>
<stop offset="1" stop-color="white" stop-opacity="0"/>
</radialGradient>
<radialGradient id="paint8_radial_1012_28483" cx="0" cy="0" r="1" gradientUnits="userSpaceOnUse" gradientTransform="translate(10.9377 76.8115) rotate(-25.7092) scale(4.87106 14.1801)">
<stop stop-color="white"/>
<stop offset="1" stop-color="white" stop-opacity="0"/>
</radialGradient>
</defs>
</svg>
