<svg width="104" height="104" viewBox="0 0 104 104" fill="none" xmlns="http://www.w3.org/2000/svg">
<path d="M49.7656 41.8731C49.7656 56.7207 61.8033 68.7565 76.6509 68.7565C91.4985 68.7565 103.536 56.7207 103.536 41.8731C103.536 27.0256 91.4985 14.9878 76.6509 14.9878C61.8033 14.9878 49.7656 27.0256 49.7656 41.8731Z" fill="url(#paint0_radial_1012_28789)"/>
<path d="M57.8656 46.6306C60.3917 46.4026 62.1968 43.537 61.8991 40.2283C61.6034 36.9207 59.3143 34.4235 56.7863 34.6506C54.2622 34.8776 52.4551 37.7441 52.7528 41.0508C53.0505 44.3584 55.3396 46.8556 57.8656 46.6306Z" fill="#ACADB2"/>
<path d="M55.6757 49.0343C54.1613 49.8299 53.7799 52.0821 54.8204 54.0615C55.8609 56.0429 57.93 57.0037 59.4454 56.2102C60.9568 55.4166 61.3392 53.1644 60.2987 51.185C59.2592 49.2026 57.1882 48.2408 55.6757 49.0343Z" fill="#ACADB2"/>
<path d="M61.6709 46.6455C60.7768 47.1164 60.5508 48.4447 61.1651 49.6146C61.7794 50.7855 63.0031 51.353 63.8973 50.8841C64.7894 50.4151 65.0154 49.0849 64.4031 47.9139C63.7887 46.745 62.566 46.1775 61.6709 46.6455Z" fill="#ACADB2"/>
<path d="M101.483 42.8461C101.018 39.5573 98.6066 37.1796 96.0945 37.5331C93.5844 37.8866 91.9246 40.8408 92.3896 44.1295C92.8526 47.4182 95.2662 49.7959 97.7763 49.4405C100.287 49.086 101.948 46.1328 101.483 42.8461Z" fill="#ACADB2"/>
<path d="M98.1618 35.02C99.6314 34.1488 99.9002 31.8816 98.7602 29.956C97.6221 28.0303 95.5063 27.175 94.0347 28.0442C92.5641 28.9115 92.2963 31.1806 93.4353 33.1063C94.5734 35.0339 96.6892 35.8892 98.1618 35.02Z" fill="#ACADB2"/>
<path d="M92.6463 34.7172C91.9733 33.5792 90.7247 33.0744 89.8535 33.5872C88.9862 34.1009 88.827 35.4401 89.499 36.5782C90.1721 37.7182 91.4227 38.221 92.2919 37.7082C93.1611 37.1945 93.3204 35.8543 92.6463 34.7172Z" fill="#ACADB2"/>
<path d="M80.7487 39.1083C73.9034 33.5504 71.225 25.0951 74.7766 20.2152C78.3272 15.3344 86.7576 15.8801 93.6089 21.433C100.454 26.9869 103.125 35.4482 99.5769 40.324C96.0214 45.2108 87.594 44.6602 80.7487 39.1083Z" fill="url(#paint1_radial_1012_28789)"/>
<path opacity="0.4" d="M52.8883 47.8145C53.7964 44.8414 58.4054 46.0741 63.1916 50.5686C67.9759 55.0631 71.1182 61.1148 70.2141 64.0899C69.3101 67.061 64.6991 65.8323 59.9109 61.3378C55.1286 56.8433 51.9862 50.7856 52.8883 47.8145Z" fill="url(#paint2_radial_1012_28789)"/>
<path d="M72.6797 49.1155C71.7228 35.1292 60.0843 24.0781 45.8551 24.0781C31.6258 24.0781 19.9873 35.1302 19.0324 49.1155C8.4324 49.6402 0 58.3972 0 69.1267C0 80.1937 8.97106 89.1647 20.0361 89.1647H71.675C82.74 89.1647 91.7111 80.1937 91.7111 69.1267C91.7101 58.3972 83.2787 49.6402 72.6797 49.1155Z" fill="url(#paint3_radial_1012_28789)"/>
<path d="M45.8568 51.6084C38.3136 45.4879 35.3673 36.1714 39.2783 30.7947C43.1913 25.418 52.477 26.0224 60.0243 32.1369C67.5636 38.2553 70.5078 47.5759 66.5998 52.9506C62.6838 58.3293 53.3981 57.7239 45.8568 51.6084Z" fill="url(#paint4_radial_1012_28789)"/>
<path opacity="0.4" d="M72.8219 69.6941C66.8926 64.885 64.5787 57.5628 67.6513 53.3371C70.726 49.1115 78.0243 49.5874 83.9536 54.3915C89.8809 59.2007 92.1928 66.5269 89.1221 70.7486C86.0455 74.9752 78.7472 74.5013 72.8219 69.6941Z" fill="url(#paint5_radial_1012_28789)"/>
<path opacity="0.2" d="M14.3256 70.3662C9.95055 63.5418 4.87057 60.2581 2.96683 63.0251C1.07106 65.7881 3.07536 73.5673 7.44739 80.3927C11.8254 87.2171 16.9084 90.5028 18.8061 87.7359C20.7019 84.9619 18.6986 77.1926 14.3256 70.3662Z" fill="url(#paint6_radial_1012_28789)"/>
<defs>
<radialGradient id="paint0_radial_1012_28789" cx="0" cy="0" r="1" gradientUnits="userSpaceOnUse" gradientTransform="translate(82.8 25.0163) rotate(180) scale(51.0366 51.0367)">
<stop stop-color="#F8F8F8"/>
<stop offset="0.1559" stop-color="#EDE9F1"/>
<stop offset="1" stop-color="#9B9DA2"/>
</radialGradient>
<radialGradient id="paint1_radial_1012_28789" cx="0" cy="0" r="1" gradientUnits="userSpaceOnUse" gradientTransform="translate(87.1766 30.2688) rotate(126.034) scale(10.9288 15.943)">
<stop stop-color="white"/>
<stop offset="1" stop-color="white" stop-opacity="0"/>
</radialGradient>
<radialGradient id="paint2_radial_1012_28789" cx="0" cy="0" r="1" gradientUnits="userSpaceOnUse" gradientTransform="translate(61.5509 55.9528) rotate(-136.79) scale(11.885 5.048)">
<stop stop-color="white"/>
<stop offset="1" stop-color="white" stop-opacity="0"/>
</radialGradient>
<radialGradient id="paint3_radial_1012_28789" cx="0" cy="0" r="1" gradientUnits="userSpaceOnUse" gradientTransform="translate(57.4191 37.7917) rotate(180) scale(69.9537 51.1012)">
<stop stop-color="white"/>
<stop offset="0.198" stop-color="#D5F3FF"/>
<stop offset="1" stop-color="#85BCF1"/>
</radialGradient>
<radialGradient id="paint4_radial_1012_28789" cx="0" cy="0" r="1" gradientUnits="userSpaceOnUse" gradientTransform="translate(52.9387 41.8707) rotate(126.034) scale(12.0399 17.564)">
<stop stop-color="white"/>
<stop offset="1" stop-color="white" stop-opacity="0"/>
</radialGradient>
<radialGradient id="paint5_radial_1012_28789" cx="0" cy="0" r="1" gradientUnits="userSpaceOnUse" gradientTransform="translate(78.3866 62.0419) rotate(126.034) scale(9.46149 13.8025)">
<stop stop-color="white"/>
<stop offset="1" stop-color="white" stop-opacity="0"/>
</radialGradient>
<radialGradient id="paint6_radial_1012_28789" cx="0" cy="0" r="1" gradientUnits="userSpaceOnUse" gradientTransform="translate(10.8866 75.3646) rotate(-25.7092) scale(4.84992 14.1185)">
<stop stop-color="white"/>
<stop offset="1" stop-color="white" stop-opacity="0"/>
</radialGradient>
</defs>
</svg>
