<svg width="104" height="104" viewBox="0 0 104 104" fill="none" xmlns="http://www.w3.org/2000/svg">
<path d="M82.9769 66.9348L74.8334 67.47L73.2987 75.4853L65.4651 73.2027L61.2816 80.2088L54.7 75.3843L48.3729 80.539L43.8378 73.7544L36.1305 76.4333L34.1898 68.5074L26.0288 68.3879L26.9166 60.2755L19.2899 57.3732L22.8983 50.0525L16.7246 44.7161L22.6166 39.0718L18.641 31.9462L26.1085 28.6593L24.8088 20.6042L32.9514 20.069L34.487 12.0537L42.3216 14.3354L46.5031 7.32832L53.0867 12.1518L59.4128 7L63.9479 13.7817L71.6562 11.1028L73.5989 19.0316L81.7579 19.1502L80.8701 27.2606L88.4978 30.1629L84.8894 37.4837L91.063 42.821L85.1701 48.4644L89.1467 55.5899L81.6773 58.8778L82.9769 66.9348Z" fill="url(#paint0_linear_1012_28809)"/>
<path d="M26.3618 43.7672C26.3618 58.9722 38.6878 71.3001 53.8927 71.3001C69.0976 71.3001 81.4255 58.9731 81.4255 43.7672C81.4255 28.5642 69.0986 16.2383 53.8927 16.2383C38.6878 16.2393 26.3618 28.5642 26.3618 43.7672Z" fill="url(#paint1_radial_1012_28809)"/>
<path d="M58.0878 40.9368C51.0749 35.2459 48.3368 26.5876 51.9714 21.5883C55.609 16.5899 64.2411 17.1532 71.2559 22.8364C78.2668 28.5234 81.0011 37.1875 77.3684 42.183C73.7298 47.1843 65.0978 46.6209 58.0878 40.9368Z" fill="url(#paint2_radial_1012_28809)"/>
<path opacity="0.4" d="M29.5588 49.8535C30.4893 46.8085 35.2089 48.0702 40.1092 52.6723C45.0085 57.2744 48.2245 63.4704 47.3008 66.5193C46.3741 69.5625 41.6526 68.3027 36.7513 63.7006C31.853 59.0956 28.6341 52.8947 29.5588 49.8535Z" fill="url(#paint3_radial_1012_28809)"/>
<path d="M48.1114 55.5738C47.4789 46.3156 39.7732 39 30.3537 39C20.9355 39 13.2298 46.3156 12.5973 55.5738C5.58295 55.9201 0 61.7194 0 68.8199C0 76.1468 5.93923 82.0848 13.2636 82.0848H47.4464C54.7707 82.0848 60.71 76.1468 60.71 68.8199C60.71 61.7194 55.127 55.9201 48.1114 55.5738Z" fill="url(#paint4_radial_1012_28809)"/>
<path d="M48.1114 55.5738C47.4789 46.3156 39.7732 39 30.3537 39C20.9355 39 13.2298 46.3156 12.5973 55.5738C5.58295 55.9201 0 61.7194 0 68.8199C0 76.1468 5.93923 82.0848 13.2636 82.0848H47.4464C54.7707 82.0848 60.71 76.1468 60.71 68.8199C60.71 61.7194 55.127 55.9201 48.1114 55.5738Z" fill="url(#paint5_radial_1012_28809)"/>
<path d="M24.6793 71.6025L23.43 70.8633L23.8165 70.6348C24.1233 70.4536 24.2287 70.0513 24.0517 69.7371C23.8747 69.423 23.4823 69.315 23.1759 69.4962L22.1479 70.1039L21.199 69.5427C21.2399 69.3682 21.2641 69.1873 21.2641 69C21.2641 68.8129 21.2399 68.6318 21.199 68.4573L22.1479 67.8957L23.1755 68.5038C23.2765 68.5636 23.3867 68.5924 23.4953 68.5924C23.7169 68.5924 23.9324 68.4744 24.0511 68.2633C24.2281 67.9493 24.1231 67.5472 23.8165 67.3656L23.4297 67.1367L24.6793 66.3975C24.9861 66.2159 25.0909 65.814 24.9141 65.4998C24.7371 65.1854 24.3456 65.0773 24.0383 65.2593L22.7889 65.9985L22.7894 65.5412C22.7894 65.178 22.502 64.8839 22.1482 64.8839C21.7943 64.8839 21.507 65.178 21.507 65.5408L21.5067 66.7571L20.5571 67.3191C20.3009 67.0696 19.989 66.8806 19.6411 66.7752V65.653L20.669 65.0446C20.9757 64.8633 21.0804 64.4615 20.9034 64.1472C20.7264 63.8328 20.3342 63.7248 20.0276 63.9064L19.6411 64.1352V62.6569C19.6411 62.294 19.3541 62 19.0001 62C18.6458 62 18.3589 62.294 18.3589 62.6569V64.1352L17.9721 63.9064C17.6657 63.7248 17.2736 63.8326 17.0963 64.1472C16.9193 64.4613 17.0245 64.8633 17.3309 65.0446L18.3589 65.653V66.7752C18.0113 66.8806 17.699 67.0696 17.4428 67.3193L16.4932 66.7569V65.5406C16.4932 65.1778 16.206 64.8837 15.852 64.8837C15.4977 64.8837 15.211 65.1778 15.211 65.5406V65.9983L13.9619 65.2591C13.6552 65.0772 13.2631 65.185 13.0861 65.4996C12.909 65.8137 13.0138 66.2157 13.3207 66.3973L14.5698 67.1365L14.1828 67.365C13.8764 67.5462 13.7712 67.9485 13.9482 68.2631C14.0668 68.4737 14.2826 68.5918 14.5042 68.5918C14.6128 68.5918 14.723 68.5636 14.824 68.5036L15.852 67.8955L16.8012 68.4571C16.7598 68.6316 16.736 68.8125 16.736 68.9998C16.736 69.1869 16.7598 69.368 16.8012 69.5425L15.852 70.1037L14.8245 69.4956C14.5178 69.3137 14.1257 69.4219 13.9487 69.7361C13.7712 70.0502 13.8764 70.4526 14.1833 70.6339L14.5702 70.8627L13.3207 71.6023C13.014 71.7835 12.909 72.1856 13.0861 72.5C13.2047 72.7109 13.4202 72.8287 13.6418 72.8287C13.7507 72.8287 13.861 72.8003 13.9619 72.7405L15.2105 72.0013V72.4586C15.2105 72.8215 15.4977 73.1159 15.8515 73.1159C16.2054 73.1159 16.4928 72.8219 16.4928 72.4586L16.4932 71.2423L17.4428 70.68C17.699 70.9298 18.0113 71.1188 18.3586 71.224V72.3466L17.3309 72.9547C17.0241 73.1359 16.9189 73.538 17.0963 73.8524C17.2733 74.1668 17.6653 74.2749 17.9721 74.0929L18.3589 73.864V75.3428C18.3589 75.7056 18.6462 76 19.0001 76C19.3541 76 19.6411 75.7056 19.6411 75.3428V73.8644L20.0274 74.0933C20.1284 74.1531 20.2386 74.1815 20.3476 74.1815C20.5688 74.1815 20.7848 74.0639 20.903 73.8528C21.0804 73.5385 20.9754 73.1367 20.669 72.9551L19.6409 72.3466V71.224C19.9886 71.119 20.3009 70.93 20.5571 70.6802L21.5067 71.2417V72.4585C21.5067 72.8217 21.7933 73.1157 22.1479 73.1157C22.5018 73.1157 22.7889 72.8217 22.7889 72.4585V72.0007L24.0383 72.7403C24.1393 72.8001 24.2495 72.8285 24.3581 72.8285C24.5797 72.8285 24.7957 72.7106 24.9141 72.4998C25.0909 72.1858 24.9859 71.7839 24.6793 71.6025ZM18.9999 70.0065C18.4586 70.0065 18.0184 69.5551 18.0184 69.0002C18.0184 68.4453 18.4586 67.9938 18.9999 67.9938C19.5413 67.9938 19.9817 68.4453 19.9817 69.0002C19.9817 69.5551 19.5413 70.0065 18.9999 70.0065Z" fill="url(#paint6_radial_1012_28809)"/>
<path d="M46.6793 71.6025L45.43 70.8633L45.8165 70.6348C46.1233 70.4536 46.2287 70.0513 46.0517 69.7371C45.8747 69.423 45.4823 69.315 45.1759 69.4962L44.1479 70.1039L43.199 69.5427C43.2399 69.3682 43.2641 69.1873 43.2641 69C43.2641 68.8129 43.2399 68.6318 43.199 68.4573L44.1479 67.8957L45.1755 68.5038C45.2765 68.5636 45.3867 68.5924 45.4953 68.5924C45.7169 68.5924 45.9324 68.4744 46.0511 68.2633C46.2281 67.9493 46.1231 67.5472 45.8165 67.3656L45.4297 67.1367L46.6793 66.3975C46.9861 66.2159 47.0909 65.814 46.9141 65.4998C46.7371 65.1854 46.3456 65.0773 46.0383 65.2593L44.7889 65.9985L44.7894 65.5412C44.7894 65.178 44.502 64.8839 44.1482 64.8839C43.7943 64.8839 43.507 65.178 43.507 65.5408L43.5067 66.7571L42.5571 67.3191C42.3009 67.0696 41.989 66.8806 41.6411 66.7752V65.653L42.669 65.0446C42.9757 64.8633 43.0804 64.4615 42.9034 64.1472C42.7264 63.8328 42.3342 63.7248 42.0276 63.9064L41.6411 64.1352V62.6569C41.6411 62.294 41.3541 62 41.0001 62C40.6458 62 40.3589 62.294 40.3589 62.6569V64.1352L39.9721 63.9064C39.6657 63.7248 39.2736 63.8326 39.0963 64.1472C38.9193 64.4613 39.0245 64.8633 39.3309 65.0446L40.3589 65.653V66.7752C40.0113 66.8806 39.699 67.0696 39.4428 67.3193L38.4932 66.7569V65.5406C38.4932 65.1778 38.206 64.8837 37.852 64.8837C37.4977 64.8837 37.211 65.1778 37.211 65.5406V65.9983L35.9619 65.2591C35.6552 65.0772 35.2631 65.185 35.0861 65.4996C34.909 65.8137 35.0138 66.2157 35.3207 66.3973L36.5698 67.1365L36.1828 67.365C35.8764 67.5462 35.7712 67.9485 35.9482 68.2631C36.0668 68.4737 36.2826 68.5918 36.5042 68.5918C36.6128 68.5918 36.723 68.5636 36.824 68.5036L37.852 67.8955L38.8012 68.4571C38.7598 68.6316 38.736 68.8125 38.736 68.9998C38.736 69.1869 38.7598 69.368 38.8012 69.5425L37.852 70.1037L36.8245 69.4956C36.5178 69.3137 36.1257 69.4219 35.9487 69.7361C35.7712 70.0502 35.8764 70.4526 36.1833 70.6339L36.5702 70.8627L35.3207 71.6023C35.014 71.7835 34.909 72.1856 35.0861 72.5C35.2047 72.7109 35.4202 72.8287 35.6418 72.8287C35.7507 72.8287 35.861 72.8003 35.9619 72.7405L37.2105 72.0013V72.4586C37.2105 72.8215 37.4977 73.1159 37.8515 73.1159C38.2054 73.1159 38.4928 72.8219 38.4928 72.4586L38.4932 71.2423L39.4428 70.68C39.699 70.9298 40.0113 71.1188 40.3586 71.224V72.3466L39.3309 72.9547C39.0241 73.1359 38.9189 73.538 39.0963 73.8524C39.2733 74.1668 39.6653 74.2749 39.9721 74.0929L40.3589 73.864V75.3428C40.3589 75.7056 40.6462 76 41.0001 76C41.3541 76 41.6411 75.7056 41.6411 75.3428V73.8644L42.0274 74.0933C42.1284 74.1531 42.2386 74.1815 42.3476 74.1815C42.5688 74.1815 42.7848 74.0639 42.903 73.8528C43.0804 73.5385 42.9754 73.1367 42.669 72.9551L41.6409 72.3466V71.224C41.9886 71.119 42.3009 70.93 42.5571 70.6802L43.5067 71.2417V72.4585C43.5067 72.8217 43.7933 73.1157 44.1479 73.1157C44.5018 73.1157 44.7889 72.8217 44.7889 72.4585V72.0007L46.0383 72.7403C46.1393 72.8001 46.2495 72.8285 46.3581 72.8285C46.5797 72.8285 46.7957 72.7106 46.9141 72.4998C47.0909 72.1858 46.9859 71.7839 46.6793 71.6025ZM40.9999 70.0065C40.4586 70.0065 40.0184 69.5551 40.0184 69.0002C40.0184 68.4453 40.4586 67.9938 40.9999 67.9938C41.5413 67.9938 41.9817 68.4453 41.9817 69.0002C41.9817 69.5551 41.5413 70.0065 40.9999 70.0065Z" fill="url(#paint7_radial_1012_28809)"/>
<path d="M30.355 57.2237C25.3621 53.1734 23.4107 47.0054 26.0009 43.4451C28.5899 39.8848 34.7379 40.2886 39.7321 44.3339C44.725 48.3843 46.6726 54.5548 44.0849 58.1126C41.4959 61.6729 35.3479 61.2716 30.355 57.2237Z" fill="url(#paint8_radial_1012_28809)"/>
<path opacity="0.4" d="M48.2058 69.1975C44.2817 66.0135 42.7503 61.1668 44.783 58.3691C46.8182 55.5714 51.6498 55.8864 55.5764 59.0679C59.4992 62.2519 61.0293 67.1011 58.9967 69.8938C56.959 72.6915 52.1286 72.379 48.2058 69.1975Z" fill="url(#paint9_radial_1012_28809)"/>
<path opacity="0.2" d="M9.48256 69.6426C6.58732 65.126 3.2233 62.9495 1.9632 64.7809C0.709345 66.6123 2.03695 71.7615 4.92969 76.2782C7.82618 80.7948 11.1927 82.9724 12.4491 81.1398C13.7054 79.3034 12.379 74.1592 9.48256 69.6426Z" fill="url(#paint10_radial_1012_28809)"/>
<path d="M95.0767 30.4013C94.6285 23.8442 89.1703 18.6616 82.4999 18.6616C75.8284 18.6616 70.3703 23.843 69.9232 30.4013C64.9544 30.6472 61 34.7548 61 39.7819C61 44.9702 65.2071 49.1784 70.3943 49.1784H94.6056C99.7939 49.1784 104 44.9702 104 39.7819C104 34.7548 100.045 30.6472 95.0767 30.4013Z" fill="url(#paint11_radial_1012_28809)"/>
<path d="M95.0767 30.4013C94.6285 23.8442 89.1703 18.6616 82.4999 18.6616C75.8284 18.6616 70.3703 23.843 69.9232 30.4013C64.9544 30.6472 61 34.7548 61 39.7819C61 44.9702 65.2071 49.1784 70.3943 49.1784H94.6056C99.7939 49.1784 104 44.9702 104 39.7819C104 34.7548 100.045 30.6472 95.0767 30.4013Z" fill="url(#paint12_radial_1012_28809)"/>
<path d="M78.7862 41.173L77.9534 40.6978L78.211 40.5509C78.4155 40.4344 78.4858 40.1758 78.3678 39.9738C78.2498 39.772 77.9882 39.7025 77.7839 39.819L77.0986 40.2097L76.466 39.8489C76.4933 39.7367 76.5094 39.6204 76.5094 39.5C76.5094 39.3797 76.4933 39.2633 76.466 39.1511L77.0986 38.7901L77.7837 39.181C77.851 39.2195 77.9245 39.238 77.9969 39.238C78.1446 39.238 78.2882 39.1621 78.3674 39.0264C78.4854 38.8245 78.4154 38.566 78.211 38.4493L77.9531 38.3022L78.7862 37.827C78.9907 37.7102 79.0606 37.4519 78.9427 37.2499C78.8248 37.0477 78.5637 36.9783 78.3589 37.0953L77.5259 37.5705L77.5263 37.2765C77.5263 37.043 77.3347 36.8539 77.0988 36.8539C76.8628 36.8539 76.6714 37.043 76.6714 37.2762L76.6711 38.0581L76.0381 38.4194C75.8673 38.2591 75.6593 38.1375 75.4274 38.0698V37.3484L76.1127 36.9572C76.3172 36.8407 76.3869 36.5824 76.2689 36.3804C76.151 36.1782 75.8894 36.1088 75.6851 36.2255L75.4274 36.3726V35.4223C75.4274 35.189 75.2361 35 75.0001 35C74.7639 35 74.5726 35.189 74.5726 35.4223V36.3726L74.3147 36.2255C74.1105 36.1088 73.8491 36.1781 73.7309 36.3804C73.6129 36.5822 73.683 36.8407 73.8873 36.9572L74.5726 37.3484V38.0698C74.3409 38.1375 74.1327 38.2591 73.9619 38.4195L73.3288 38.058V37.2761C73.3288 37.0429 73.1373 36.8538 72.9013 36.8538C72.6651 36.8538 72.474 37.0429 72.474 37.2761V37.5703L71.6413 37.0952C71.4368 36.9782 71.1754 37.0475 71.0574 37.2498C70.9393 37.4516 71.0092 37.7101 71.2138 37.8269L72.0466 38.3021L71.7885 38.4489C71.5843 38.5654 71.5141 38.824 71.6321 39.0263C71.7112 39.1616 71.8551 39.2376 72.0028 39.2376C72.0752 39.2376 72.1487 39.2195 72.216 39.1809L72.9013 38.79L73.5342 39.151C73.5065 39.2632 73.4907 39.3795 73.4907 39.4999C73.4907 39.6202 73.5065 39.7366 73.5342 39.8488L72.9013 40.2095L72.2164 39.8186C72.0119 39.7016 71.7505 39.7712 71.6325 39.9732C71.5141 40.1751 71.5843 40.4338 71.7889 40.5503L72.0468 40.6975L71.2138 41.1729C71.0093 41.2894 70.9393 41.5479 71.0574 41.75C71.1365 41.8856 71.2801 41.9613 71.4279 41.9613C71.5005 41.9613 71.574 41.9431 71.6413 41.9046L72.4736 41.4294V41.7234C72.4736 41.9567 72.6651 42.1459 72.901 42.1459C73.1369 42.1459 73.3286 41.9569 73.3286 41.7234L73.3288 40.9415L73.9619 40.58C74.1327 40.7406 74.3409 40.8621 74.5724 40.9297V41.6514L73.8873 42.0423C73.6828 42.1588 73.6126 42.4173 73.7309 42.6194C73.8488 42.8215 74.1102 42.891 74.3147 42.774L74.5726 42.6269V43.5775C74.5726 43.8107 74.7641 44 75.0001 44C75.2361 44 75.4274 43.8107 75.4274 43.5775V42.6271L75.685 42.7742C75.7523 42.8127 75.8257 42.831 75.8984 42.831C76.0459 42.831 76.1899 42.7554 76.2687 42.6196C76.3869 42.4176 76.3169 42.1593 76.1127 42.0425L75.4273 41.6514V40.9297C75.6591 40.8622 75.8673 40.7407 76.0381 40.5801L76.6711 40.9411V41.7233C76.6711 41.9568 76.8622 42.1458 77.0986 42.1458C77.3345 42.1458 77.5259 41.9568 77.5259 41.7233V41.429L78.3589 41.9045C78.4262 41.9429 78.4997 41.9612 78.572 41.9612C78.7198 41.9612 78.8638 41.8854 78.9427 41.7499C79.0606 41.548 78.9906 41.2896 78.7862 41.173ZM75 40.1471C74.6391 40.1471 74.3456 39.8568 74.3456 39.5001C74.3456 39.1434 74.6391 38.8532 75 38.8532C75.3609 38.8532 75.6545 39.1434 75.6545 39.5001C75.6545 39.8568 75.3609 40.1471 75 40.1471Z" fill="url(#paint13_radial_1012_28809)"/>
<path d="M95.7862 41.173L94.9534 40.6978L95.211 40.5509C95.4155 40.4344 95.4858 40.1758 95.3678 39.9738C95.2498 39.772 94.9882 39.7025 94.7839 39.819L94.0986 40.2097L93.466 39.8489C93.4933 39.7367 93.5094 39.6204 93.5094 39.5C93.5094 39.3797 93.4933 39.2633 93.466 39.1511L94.0986 38.7901L94.7837 39.181C94.851 39.2195 94.9245 39.238 94.9969 39.238C95.1446 39.238 95.2882 39.1621 95.3674 39.0264C95.4854 38.8245 95.4154 38.566 95.211 38.4493L94.9531 38.3022L95.7862 37.827C95.9907 37.7102 96.0606 37.4519 95.9427 37.2499C95.8248 37.0477 95.5637 36.9783 95.3589 37.0953L94.5259 37.5705L94.5263 37.2765C94.5263 37.043 94.3347 36.8539 94.0988 36.8539C93.8628 36.8539 93.6714 37.043 93.6714 37.2762L93.6711 38.0581L93.0381 38.4194C92.8673 38.2591 92.6593 38.1375 92.4274 38.0698V37.3484L93.1127 36.9572C93.3172 36.8407 93.3869 36.5824 93.2689 36.3804C93.151 36.1782 92.8894 36.1088 92.6851 36.2255L92.4274 36.3726V35.4223C92.4274 35.189 92.2361 35 92.0001 35C91.7639 35 91.5726 35.189 91.5726 35.4223V36.3726L91.3147 36.2255C91.1105 36.1088 90.8491 36.1781 90.7309 36.3804C90.6129 36.5822 90.683 36.8407 90.8873 36.9572L91.5726 37.3484V38.0698C91.3409 38.1375 91.1327 38.2591 90.9619 38.4195L90.3288 38.058V37.2761C90.3288 37.0429 90.1373 36.8538 89.9013 36.8538C89.6651 36.8538 89.474 37.0429 89.474 37.2761V37.5703L88.6413 37.0952C88.4368 36.9782 88.1754 37.0475 88.0574 37.2498C87.9393 37.4516 88.0092 37.7101 88.2138 37.8269L89.0466 38.3021L88.7885 38.4489C88.5843 38.5654 88.5141 38.824 88.6321 39.0263C88.7112 39.1616 88.8551 39.2376 89.0028 39.2376C89.0752 39.2376 89.1487 39.2195 89.216 39.1809L89.9013 38.79L90.5342 39.151C90.5065 39.2632 90.4907 39.3795 90.4907 39.4999C90.4907 39.6202 90.5065 39.7366 90.5342 39.8488L89.9013 40.2095L89.2164 39.8186C89.0119 39.7016 88.7505 39.7712 88.6325 39.9732C88.5141 40.1751 88.5843 40.4338 88.7889 40.5503L89.0468 40.6975L88.2138 41.1729C88.0093 41.2894 87.9393 41.5479 88.0574 41.75C88.1365 41.8856 88.2801 41.9613 88.4279 41.9613C88.5005 41.9613 88.574 41.9431 88.6413 41.9046L89.4736 41.4294V41.7234C89.4736 41.9567 89.6651 42.1459 89.901 42.1459C90.1369 42.1459 90.3286 41.9569 90.3286 41.7234L90.3288 40.9415L90.9619 40.58C91.1327 40.7406 91.3409 40.8621 91.5724 40.9297V41.6514L90.8873 42.0423C90.6828 42.1588 90.6126 42.4173 90.7309 42.6194C90.8488 42.8215 91.1102 42.891 91.3147 42.774L91.5726 42.6269V43.5775C91.5726 43.8107 91.7641 44 92.0001 44C92.2361 44 92.4274 43.8107 92.4274 43.5775V42.6271L92.685 42.7742C92.7523 42.8127 92.8257 42.831 92.8984 42.831C93.0459 42.831 93.1899 42.7554 93.2687 42.6196C93.3869 42.4176 93.3169 42.1593 93.1127 42.0425L92.4273 41.6514V40.9297C92.6591 40.8622 92.8673 40.7407 93.0381 40.5801L93.6711 40.9411V41.7233C93.6711 41.9568 93.8622 42.1458 94.0986 42.1458C94.3345 42.1458 94.5259 41.9568 94.5259 41.7233V41.429L95.3589 41.9045C95.4262 41.9429 95.4997 41.9612 95.572 41.9612C95.7198 41.9612 95.8638 41.8854 95.9427 41.7499C96.0606 41.548 95.9906 41.2896 95.7862 41.173ZM92 40.1471C91.6391 40.1471 91.3456 39.8568 91.3456 39.5001C91.3456 39.1434 91.6391 38.8532 92 38.8532C92.3609 38.8532 92.6545 39.1434 92.6545 39.5001C92.6545 39.8568 92.3609 40.1471 92 40.1471Z" fill="url(#paint14_radial_1012_28809)"/>
<path d="M82.5013 31.57C78.9643 28.6997 77.5829 24.3336 79.4172 21.8121C81.2514 19.2905 85.6061 19.5741 89.1442 22.4399C92.6789 25.3102 94.0581 29.6809 92.2273 32.2001C90.3907 34.7216 86.0372 34.4381 82.5013 31.57Z" fill="url(#paint15_radial_1012_28809)"/>
<path opacity="0.4" d="M95.1419 40.0506C92.3631 37.7943 91.2779 34.3614 92.7188 32.3808C94.1608 30.4001 97.5823 30.6231 100.362 32.8748C103.141 35.131 104.225 38.5663 102.785 40.5446C101.342 42.5252 97.9219 42.3022 95.1419 40.0506Z" fill="url(#paint16_radial_1012_28809)"/>
<path opacity="0.2" d="M67.7174 40.3627C65.6671 37.1642 63.2839 35.625 62.3919 36.9229C61.5045 38.2186 62.4445 41.8654 64.4926 45.0662C66.5453 48.2647 68.9285 49.8062 69.8182 48.5083C70.7078 47.2092 69.7678 43.5635 67.7174 40.3627Z" fill="url(#paint17_radial_1012_28809)"/>
<path d="M30.3174 94.7814C29.2149 96.692 26.773 97.3447 24.8625 96.2422C22.9529 95.1398 22.2982 92.6989 23.4007 90.7883C24.5031 88.8778 31.3237 85.0518 31.3237 85.0518C31.3237 85.0518 31.4198 92.8708 30.3174 94.7814Z" fill="url(#paint18_radial_1012_28809)"/>
<path d="M23.5184 94.117C22.8997 92.5008 23.2746 90.799 24.3586 90.3172C25.4416 89.8355 26.8228 90.7553 27.4415 92.3735C28.0612 93.9917 27.6843 95.6935 26.6013 96.1733C25.5173 96.6551 24.1371 95.7352 23.5184 94.117Z" fill="url(#paint19_radial_1012_28809)"/>
<path d="M47.0168 94.7814C45.9143 96.692 43.4715 97.3447 41.5619 96.2422C39.6523 95.1398 38.9976 92.6989 40.101 90.7883C41.2035 88.8778 48.0231 85.0518 48.0231 85.0518C48.0231 85.0518 48.1192 92.8708 47.0168 94.7814Z" fill="url(#paint20_radial_1012_28809)"/>
<path d="M40.2181 94.1173C39.5994 92.501 39.9743 90.7992 41.0583 90.3175C42.1413 89.8357 43.5215 90.7555 44.1412 92.3737C44.7609 93.992 44.3831 95.6937 43.301 96.1735C42.217 96.6553 40.8368 95.7355 40.2181 94.1173Z" fill="url(#paint21_radial_1012_28809)"/>
<path d="M63.7163 94.7814C62.6138 96.692 60.172 97.3447 58.2614 96.2422C56.3518 95.1398 55.6971 92.6989 56.7996 90.7883C57.902 88.8778 64.7226 85.0518 64.7226 85.0518C64.7226 85.0518 64.8197 92.8708 63.7163 94.7814Z" fill="url(#paint22_radial_1012_28809)"/>
<path d="M56.9161 94.1173C56.2974 92.501 56.6733 90.7992 57.7563 90.3175C58.8393 89.8357 60.2205 90.7555 60.8393 92.3737C61.459 93.992 61.0821 95.6937 59.9991 96.1735C58.9161 96.6553 57.5358 95.7355 56.9161 94.1173Z" fill="url(#paint23_radial_1012_28809)"/>
<path d="M80.4162 94.7814C79.3138 96.692 76.8719 97.3447 74.9613 96.2422C73.0517 95.1398 72.397 92.6989 73.5005 90.7883C74.6029 88.8778 81.4235 85.0518 81.4235 85.0518C81.4235 85.0518 81.5186 92.8708 80.4162 94.7814Z" fill="url(#paint24_radial_1012_28809)"/>
<path d="M73.6165 94.1173C72.9978 92.501 73.3727 90.7992 74.4567 90.3175C75.5397 89.8357 76.9209 90.7555 77.5397 92.3737C78.1594 93.992 77.7825 95.6937 76.6995 96.1735C75.6164 96.6553 74.2362 95.7355 73.6165 94.1173Z" fill="url(#paint25_radial_1012_28809)"/>
<defs>
<linearGradient id="paint0_linear_1012_28809" x1="87.7844" y1="5.89678" x2="22.4554" y2="78.9" gradientUnits="userSpaceOnUse">
<stop stop-color="#FFBA24"/>
<stop offset="1" stop-color="#FF5500"/>
</linearGradient>
<radialGradient id="paint1_radial_1012_28809" cx="0" cy="0" r="1" gradientUnits="userSpaceOnUse" gradientTransform="translate(60.1899 26.5082) rotate(180) scale(52.2635 52.2635)">
<stop stop-color="#FFF4C3"/>
<stop offset="0.1559" stop-color="#FFE036"/>
<stop offset="1" stop-color="#FA761C"/>
</radialGradient>
<radialGradient id="paint2_radial_1012_28809" cx="0" cy="0" r="1" gradientUnits="userSpaceOnUse" gradientTransform="translate(64.6701 31.8856) rotate(126.034) scale(11.1916 16.3264)">
<stop stop-color="white"/>
<stop offset="1" stop-color="white" stop-opacity="0"/>
</radialGradient>
<radialGradient id="paint3_radial_1012_28809" cx="0" cy="0" r="1" gradientUnits="userSpaceOnUse" gradientTransform="translate(38.4302 58.1861) rotate(-136.79) scale(12.1698 5.169)">
<stop stop-color="white"/>
<stop offset="1" stop-color="white" stop-opacity="0"/>
</radialGradient>
<radialGradient id="paint4_radial_1012_28809" cx="0" cy="0" r="1" gradientUnits="userSpaceOnUse" gradientTransform="translate(38.0097 48.0742) rotate(180) scale(46.3067 33.827)">
<stop stop-color="white"/>
<stop offset="0.198" stop-color="#D5F3FF"/>
<stop offset="1" stop-color="#85BCF1"/>
</radialGradient>
<radialGradient id="paint5_radial_1012_28809" cx="0" cy="0" r="1" gradientUnits="userSpaceOnUse" gradientTransform="translate(48.515 54.1231) scale(52.6449 52.6449)">
<stop stop-color="#FFE036"/>
<stop offset="0.0052" stop-color="#FFDF36" stop-opacity="0.9933"/>
<stop offset="0.1623" stop-color="#FDB92C" stop-opacity="0.789"/>
<stop offset="0.319" stop-color="#FC9C25" stop-opacity="0.5851"/>
<stop offset="0.4735" stop-color="#FB8720" stop-opacity="0.3841"/>
<stop offset="0.6247" stop-color="#FA7A1D" stop-opacity="0.1875"/>
<stop offset="0.7688" stop-color="#FA761C" stop-opacity="0"/>
</radialGradient>
<radialGradient id="paint6_radial_1012_28809" cx="0" cy="0" r="1" gradientUnits="userSpaceOnUse" gradientTransform="translate(22.917 66.2076) scale(11.6478 11.9394)">
<stop stop-color="#28CBE9"/>
<stop offset="1" stop-color="#0A4FBB"/>
</radialGradient>
<radialGradient id="paint7_radial_1012_28809" cx="0" cy="0" r="1" gradientUnits="userSpaceOnUse" gradientTransform="translate(44.917 66.2076) scale(11.6478 11.9394)">
<stop stop-color="#28CBE9"/>
<stop offset="1" stop-color="#0A4FBB"/>
</radialGradient>
<radialGradient id="paint8_radial_1012_28809" cx="0" cy="0" r="1" gradientUnits="userSpaceOnUse" gradientTransform="translate(35.0436 50.7787) rotate(126.034) scale(7.96973 11.6263)">
<stop stop-color="white"/>
<stop offset="1" stop-color="white" stop-opacity="0"/>
</radialGradient>
<radialGradient id="paint9_radial_1012_28809" cx="0" cy="0" r="1" gradientUnits="userSpaceOnUse" gradientTransform="translate(51.8893 64.1313) rotate(126.034) scale(6.26343 9.13716)">
<stop stop-color="white"/>
<stop offset="1" stop-color="white" stop-opacity="0"/>
</radialGradient>
<radialGradient id="paint10_radial_1012_28809" cx="0" cy="0" r="1" gradientUnits="userSpaceOnUse" gradientTransform="translate(7.22221 72.9471) rotate(-25.7092) scale(3.21061 9.34636)">
<stop stop-color="white"/>
<stop offset="1" stop-color="white" stop-opacity="0"/>
</radialGradient>
<radialGradient id="paint11_radial_1012_28809" cx="0" cy="0" r="1" gradientUnits="userSpaceOnUse" gradientTransform="translate(87.9218 25.0889) rotate(180) scale(32.7982 23.9591)">
<stop stop-color="white"/>
<stop offset="0.198" stop-color="#D5F3FF"/>
<stop offset="1" stop-color="#85BCF1"/>
</radialGradient>
<radialGradient id="paint12_radial_1012_28809" cx="0" cy="0" r="1" gradientUnits="userSpaceOnUse" gradientTransform="translate(66.4945 36.3564) scale(43.8292 43.8291)">
<stop stop-color="#FFE036"/>
<stop offset="0.0052" stop-color="#FFDF36" stop-opacity="0.9933"/>
<stop offset="0.1623" stop-color="#FDB92C" stop-opacity="0.789"/>
<stop offset="0.319" stop-color="#FC9C25" stop-opacity="0.5851"/>
<stop offset="0.4735" stop-color="#FB8720" stop-opacity="0.3841"/>
<stop offset="0.6247" stop-color="#FA7A1D" stop-opacity="0.1875"/>
<stop offset="0.7688" stop-color="#FA761C" stop-opacity="0"/>
</radialGradient>
<radialGradient id="paint13_radial_1012_28809" cx="0" cy="0" r="1" gradientUnits="userSpaceOnUse" gradientTransform="translate(77.6113 37.7049) scale(7.76518 7.67533)">
<stop stop-color="#28CBE9"/>
<stop offset="1" stop-color="#0A4FBB"/>
</radialGradient>
<radialGradient id="paint14_radial_1012_28809" cx="0" cy="0" r="1" gradientUnits="userSpaceOnUse" gradientTransform="translate(94.6113 37.7049) scale(7.76518 7.67533)">
<stop stop-color="#28CBE9"/>
<stop offset="1" stop-color="#0A4FBB"/>
</radialGradient>
<radialGradient id="paint15_radial_1012_28809" cx="0" cy="0" r="1" gradientUnits="userSpaceOnUse" gradientTransform="translate(85.8227 27.0048) rotate(126.034) scale(5.64524 8.23534)">
<stop stop-color="white"/>
<stop offset="1" stop-color="white" stop-opacity="0"/>
</radialGradient>
<radialGradient id="paint16_radial_1012_28809" cx="0" cy="0" r="1" gradientUnits="userSpaceOnUse" gradientTransform="translate(97.7526 36.4622) rotate(126.034) scale(4.43642 6.4719)">
<stop stop-color="white"/>
<stop offset="1" stop-color="white" stop-opacity="0"/>
</radialGradient>
<radialGradient id="paint17_radial_1012_28809" cx="0" cy="0" r="1" gradientUnits="userSpaceOnUse" gradientTransform="translate(66.1167 42.7027) rotate(-25.7091) scale(2.27382 6.61928)">
<stop stop-color="white"/>
<stop offset="1" stop-color="white" stop-opacity="0"/>
</radialGradient>
<radialGradient id="paint18_radial_1012_28809" cx="0" cy="0" r="1" gradientUnits="userSpaceOnUse" gradientTransform="translate(24.9725 93.8716) rotate(30.0007) scale(9.60694 9.60694)">
<stop stop-color="#D0F2FF"/>
<stop offset="0.198" stop-color="#D5F3FF"/>
<stop offset="1" stop-color="#85BCF1"/>
</radialGradient>
<radialGradient id="paint19_radial_1012_28809" cx="0" cy="0" r="1" gradientUnits="userSpaceOnUse" gradientTransform="translate(25.4801 93.2457) rotate(156.037) scale(2.14663 3.13143)">
<stop stop-color="white"/>
<stop offset="1" stop-color="white" stop-opacity="0"/>
</radialGradient>
<radialGradient id="paint20_radial_1012_28809" cx="0" cy="0" r="1" gradientUnits="userSpaceOnUse" gradientTransform="translate(41.6716 93.8719) rotate(30.0008) scale(9.60703 9.60704)">
<stop stop-color="#D0F2FF"/>
<stop offset="0.198" stop-color="#D5F3FF"/>
<stop offset="1" stop-color="#85BCF1"/>
</radialGradient>
<radialGradient id="paint21_radial_1012_28809" cx="0" cy="0" r="1" gradientUnits="userSpaceOnUse" gradientTransform="translate(42.1795 93.246) rotate(156.037) scale(2.14663 3.13143)">
<stop stop-color="white"/>
<stop offset="1" stop-color="white" stop-opacity="0"/>
</radialGradient>
<radialGradient id="paint22_radial_1012_28809" cx="0" cy="0" r="1" gradientUnits="userSpaceOnUse" gradientTransform="translate(58.3713 93.8717) rotate(30.0007) scale(9.60733)">
<stop stop-color="#D0F2FF"/>
<stop offset="0.198" stop-color="#D5F3FF"/>
<stop offset="1" stop-color="#85BCF1"/>
</radialGradient>
<radialGradient id="paint23_radial_1012_28809" cx="0" cy="0" r="1" gradientUnits="userSpaceOnUse" gradientTransform="translate(58.8786 93.246) rotate(156.037) scale(2.14663 3.13143)">
<stop stop-color="white"/>
<stop offset="1" stop-color="white" stop-opacity="0"/>
</radialGradient>
<radialGradient id="paint24_radial_1012_28809" cx="0" cy="0" r="1" gradientUnits="userSpaceOnUse" gradientTransform="translate(75.0708 93.8718) rotate(30.0007) scale(9.60696 9.60695)">
<stop stop-color="#D0F2FF"/>
<stop offset="0.198" stop-color="#D5F3FF"/>
<stop offset="1" stop-color="#85BCF1"/>
</radialGradient>
<radialGradient id="paint25_radial_1012_28809" cx="0" cy="0" r="1" gradientUnits="userSpaceOnUse" gradientTransform="translate(75.5787 93.2458) rotate(156.037) scale(2.14663 3.13143)">
<stop stop-color="white"/>
<stop offset="1" stop-color="white" stop-opacity="0"/>
</radialGradient>
</defs>
</svg>
