<svg width="104" height="104" viewBox="0 0 104 104" fill="none" xmlns="http://www.w3.org/2000/svg">
<path d="M55.3158 77.0751H54.4868H51.3338L57.8988 64.3141C58.1798 63.7581 58.4138 63.1251 58.5488 62.4881C59.3918 58.5271 56.8648 54.6331 52.9048 53.7911C48.9448 52.9471 45.0508 55.4751 44.2078 59.4361L39.8188 80.0511L39.6828 80.6841C39.6228 80.9771 39.5918 81.2781 39.5918 81.5861C39.5918 84.0401 41.5828 86.0321 44.0358 86.0321H48.8948L46.2728 96.9671C46.1778 97.3621 46.3218 97.7891 46.6688 98.0421C47.1308 98.3771 47.7758 98.2741 48.1098 97.8141L58.5498 83.4271C59.0288 82.7671 59.3148 81.9531 59.3148 81.0761C59.3178 78.8661 57.5248 77.0751 55.3158 77.0751Z" fill="url(#paint0_linear_1012_28860)"/>
<path d="M28.3328 84.2969C27.2968 86.0909 24.9998 86.706 23.2048 85.67C21.4088 84.634 20.7938 82.3389 21.8298 80.5429C22.8678 78.7469 29.2788 75.1489 29.2788 75.1489C29.2788 75.1489 29.3698 82.5009 28.3328 84.2969Z" fill="url(#paint1_radial_1012_28860)"/>
<path d="M21.9398 83.6728C21.3588 82.1528 21.7098 80.5538 22.7308 80.1008C23.7488 79.6478 25.0458 80.5128 25.6288 82.0338C26.2118 83.5548 25.8578 85.1548 24.8388 85.6058C23.8188 86.0578 22.5218 85.1938 21.9398 83.6728Z" fill="url(#paint2_radial_1012_28860)"/>
<path d="M34.3851 95.2959C33.3481 97.0899 31.0531 97.7049 29.2561 96.6689C27.4611 95.6329 26.8461 93.337 27.8821 91.541C28.9191 89.745 35.3301 86.1489 35.3301 86.1489C35.3301 86.1489 35.4211 93.4999 34.3851 95.2959Z" fill="url(#paint3_radial_1012_28860)"/>
<path d="M27.993 94.672C27.411 93.152 27.763 91.552 28.783 91.099C29.801 90.647 31.098 91.511 31.681 93.033C32.263 94.554 31.909 96.154 30.892 96.605C29.872 97.057 28.575 96.192 27.993 94.672Z" fill="url(#paint4_radial_1012_28860)"/>
<path d="M76.75 84.2969C75.714 86.0909 73.417 86.706 71.622 85.67C69.826 84.634 69.2099 82.3389 70.2479 80.5429C71.2839 78.7469 77.6959 75.1489 77.6959 75.1489C77.6959 75.1489 77.787 82.5009 76.75 84.2969Z" fill="url(#paint5_radial_1012_28860)"/>
<path d="M70.3568 83.6728C69.7748 82.1528 70.1268 80.5538 71.1468 80.1008C72.1658 79.6478 73.4618 80.5128 74.0448 82.0338C74.6268 83.5548 74.2738 85.1548 73.2548 85.6058C72.2358 86.0578 70.9388 85.1938 70.3568 83.6728Z" fill="url(#paint6_radial_1012_28860)"/>
<path d="M66.3238 95.2959C65.2878 97.0899 62.9918 97.7049 61.1958 96.6689C59.3998 95.6329 58.7858 93.337 59.8218 91.541C60.8588 89.745 67.2688 86.1489 67.2688 86.1489C67.2688 86.1489 67.3598 93.4999 66.3238 95.2959Z" fill="url(#paint7_radial_1012_28860)"/>
<path d="M59.9308 94.672C59.3498 93.152 59.7019 91.552 60.7209 91.099C61.7389 90.647 63.0359 91.511 63.6199 93.033C64.2019 94.554 63.8469 96.154 62.8299 96.605C61.8109 97.057 60.5128 96.192 59.9308 94.672Z" fill="url(#paint8_radial_1012_28860)"/>
<path d="M50.6411 29.656C50.6411 43.273 61.6801 54.311 75.2971 54.311C88.9141 54.311 99.9531 43.273 99.9531 29.656C99.9531 16.04 88.9141 5 75.2971 5C61.6801 5 50.6411 16.04 50.6411 29.656Z" fill="url(#paint9_radial_1012_28860)"/>
<path d="M58.069 34.018C60.386 33.81 62.041 31.181 61.768 28.147C61.497 25.114 59.398 22.824 57.08 23.033C54.765 23.241 53.108 25.87 53.381 28.902C53.653 31.935 55.752 34.225 58.069 34.018Z" fill="#ACADB2"/>
<path d="M56.0607 36.2229C54.6707 36.9519 54.3218 39.0169 55.2758 40.8329C56.2298 42.6499 58.1277 43.5309 59.5167 42.8039C60.9027 42.0769 61.2538 40.0109 60.2998 38.1959C59.3478 36.3789 57.4487 35.4959 56.0607 36.2229Z" fill="#ACADB2"/>
<path d="M61.5589 34.0329C60.7389 34.4649 60.532 35.6829 61.096 36.7569C61.659 37.8299 62.781 38.3509 63.601 37.9209C64.42 37.4909 64.627 36.2719 64.065 35.1979C63.501 34.1239 62.3789 33.6029 61.5589 34.0329Z" fill="#ACADB2"/>
<path d="M98.0709 30.548C97.6439 27.531 95.4329 25.351 93.1289 25.675C90.8269 25.999 89.3059 28.709 89.7309 31.725C90.1559 34.741 92.3689 36.922 94.6709 36.595C96.9739 36.271 98.4969 33.562 98.0709 30.548Z" fill="#ACADB2"/>
<path d="M95.025 23.372C96.373 22.572 96.619 20.493 95.574 18.727C94.531 16.961 92.591 16.176 91.24 16.974C89.892 17.769 89.646 19.85 90.691 21.617C91.734 23.383 93.674 24.169 95.025 23.372Z" fill="#ACADB2"/>
<path d="M89.9663 23.093C89.3493 22.049 88.2042 21.585 87.4052 22.057C86.6092 22.528 86.4633 23.756 87.0803 24.799C87.6973 25.845 88.8452 26.307 89.6422 25.835C90.4392 25.365 90.5853 24.136 89.9663 23.093Z" fill="#ACADB2"/>
<path d="M79.0549 27.12C72.7779 22.023 70.3219 14.268 73.5779 9.794C76.8339 5.317 84.5649 5.818 90.8489 10.91C97.1269 16.004 99.5759 23.764 96.3229 28.235C93.0629 32.716 85.3339 32.211 79.0549 27.12Z" fill="url(#paint10_radial_1012_28860)"/>
<path opacity="0.4" d="M53.5051 35.1051C54.3381 32.3771 58.5651 33.5081 62.9531 37.6301C67.3411 41.7511 70.2221 47.3021 69.3931 50.0301C68.5641 52.7551 64.3351 51.6281 59.9451 47.5071C55.5601 43.3851 52.6771 37.8301 53.5051 35.1051Z" fill="url(#paint11_radial_1012_28860)"/>
<path d="M71.656 36.2979C70.778 23.4719 60.104 13.3359 47.054 13.3359C34.004 13.3359 23.33 23.4719 22.454 36.2979C12.732 36.7789 5 44.8109 5 54.6499C5 64.7989 13.227 73.0269 23.375 73.0269H70.733C80.88 73.0269 89.108 64.7989 89.108 54.6499C89.109 44.8099 81.376 36.7789 71.656 36.2979Z" fill="url(#paint12_radial_1012_28860)"/>
<path d="M38.4923 56.0896L36.5142 54.928L37.1262 54.569C37.6119 54.2842 37.7787 53.6521 37.4985 53.1583C37.2183 52.6648 36.5969 52.495 36.1119 52.7798L34.4841 53.7347L32.9818 52.8528C33.0465 52.5785 33.0848 52.2944 33.0848 52C33.0848 51.7059 33.0465 51.4215 32.9818 51.1472L34.4841 50.2647L36.1113 51.2202C36.2711 51.3143 36.4456 51.3595 36.6175 51.3595C36.9684 51.3595 37.3096 51.1741 37.4976 50.8423C37.7779 50.3488 37.6116 49.717 37.1262 49.4316L36.5136 49.072L38.4923 47.9104C38.9779 47.625 39.144 46.9935 38.864 46.4997C38.5838 46.0056 37.9639 45.8358 37.4773 46.1218L35.499 47.2834L35.4999 46.5647C35.4999 45.9939 35.0449 45.5319 34.4847 45.5319C33.9243 45.5319 33.4695 45.9939 33.4695 46.5641L33.4689 48.4755L31.9654 49.3586C31.5598 48.9666 31.0658 48.6695 30.5151 48.5039V46.7405L32.1426 45.7843C32.6282 45.4995 32.794 44.868 32.5137 44.3742C32.2335 43.8801 31.6124 43.7103 31.1271 43.9957L30.5151 44.3553V42.0322C30.5151 41.4621 30.0606 41 29.5002 41C28.9392 41 28.485 41.4621 28.485 42.0322V44.3553L27.8725 43.9957C27.3874 43.7103 26.7666 43.8798 26.4858 44.3742C26.2056 44.8677 26.3722 45.4995 26.8572 45.7843L28.485 46.7405V48.5039C27.9346 48.6695 27.4401 48.9666 27.0344 49.3588L25.5309 48.4752V46.5638C25.5309 45.9936 25.0761 45.5316 24.5157 45.5316C23.9547 45.5316 23.5008 45.9936 23.5008 46.5638V47.2831L21.5231 46.1215C21.0374 45.8355 20.4166 46.005 20.1364 46.4994C19.8559 46.9929 20.0219 47.6247 20.5078 47.9101L22.4856 49.0717L21.8727 49.4307C21.3877 49.7155 21.2211 50.3476 21.5013 50.842C21.6891 51.1729 22.0308 51.3586 22.3817 51.3586C22.5536 51.3586 22.7281 51.3143 22.8879 51.2199L24.5157 50.2644L26.0186 51.1469C25.953 51.4212 25.9153 51.7053 25.9153 51.9997C25.9153 52.2938 25.953 52.5782 26.0186 52.8525L24.5157 53.7344L22.8888 52.7789C22.4032 52.4929 21.7824 52.663 21.5022 53.1568C21.2211 53.6503 21.3877 54.2827 21.8736 54.5675L22.4862 54.9271L20.5078 56.0893C20.0222 56.3741 19.8559 57.0059 20.1364 57.5C20.3242 57.8315 20.6653 58.0166 21.0162 58.0166C21.1887 58.0166 21.3632 57.9719 21.5231 57.8779L23.4999 56.7163V57.435C23.4999 58.0052 23.9547 58.4678 24.5148 58.4678C25.0753 58.4678 25.5303 58.0058 25.5303 57.435L25.5309 55.5236L27.0344 54.64C27.4401 55.0325 27.9346 55.3296 28.4844 55.4949V57.2589L26.8572 58.2145C26.3716 58.4993 26.205 59.1311 26.4858 59.6252C26.766 60.1193 27.3868 60.2891 27.8725 60.0031L28.485 59.6435V61.9672C28.485 62.5373 28.9398 63 29.5002 63C30.0606 63 30.5151 62.5373 30.5151 61.9672V59.6441L31.1268 60.0037C31.2866 60.0977 31.4611 60.1423 31.6336 60.1423C31.9839 60.1423 32.3259 59.9576 32.5131 59.6258C32.794 59.132 32.6277 58.5005 32.1426 58.2151L30.5148 57.2589V55.4949C31.0653 55.3299 31.5598 55.0328 31.9654 54.6403L33.4689 55.5227V57.4347C33.4689 58.0055 33.9228 58.4675 34.4841 58.4675C35.0446 58.4675 35.499 58.0055 35.499 57.4347V56.7154L37.4773 57.8776C37.6372 57.9716 37.8117 58.0163 37.9836 58.0163C38.3345 58.0163 38.6765 57.8309 38.864 57.4997C39.144 57.0062 38.9776 56.3747 38.4923 56.0896ZM29.4999 53.5817C28.6428 53.5817 27.9457 52.8723 27.9457 52.0003C27.9457 51.1283 28.6428 50.4189 29.4999 50.4189C30.357 50.4189 31.0544 51.1283 31.0544 52.0003C31.0544 52.8723 30.357 53.5817 29.4999 53.5817Z" fill="url(#paint13_radial_1012_28860)"/>
<path d="M73.4923 56.0896L71.5142 54.928L72.1262 54.569C72.6119 54.2842 72.7787 53.6521 72.4985 53.1583C72.2183 52.6648 71.5969 52.495 71.1119 52.7798L69.4841 53.7347L67.9818 52.8528C68.0465 52.5785 68.0848 52.2944 68.0848 52C68.0848 51.7059 68.0465 51.4215 67.9818 51.1472L69.4841 50.2647L71.1113 51.2202C71.2711 51.3143 71.4456 51.3595 71.6175 51.3595C71.9684 51.3595 72.3096 51.1741 72.4976 50.8423C72.7779 50.3488 72.6116 49.717 72.1262 49.4316L71.5136 49.072L73.4923 47.9104C73.9779 47.625 74.144 46.9935 73.864 46.4997C73.5838 46.0056 72.9639 45.8358 72.4773 46.1218L70.499 47.2834L70.4999 46.5647C70.4999 45.9939 70.0449 45.5319 69.4847 45.5319C68.9243 45.5319 68.4695 45.9939 68.4695 46.5641L68.4689 48.4755L66.9654 49.3586C66.5598 48.9666 66.0658 48.6695 65.5151 48.5039V46.7405L67.1426 45.7843C67.6282 45.4995 67.794 44.868 67.5137 44.3742C67.2335 43.8801 66.6124 43.7103 66.1271 43.9957L65.5151 44.3553V42.0322C65.5151 41.4621 65.0606 41 64.5002 41C63.9392 41 63.485 41.4621 63.485 42.0322V44.3553L62.8725 43.9957C62.3874 43.7103 61.7666 43.8798 61.4858 44.3742C61.2056 44.8677 61.3722 45.4995 61.8572 45.7843L63.485 46.7405V48.5039C62.9346 48.6695 62.4401 48.9666 62.0344 49.3588L60.5309 48.4752V46.5638C60.5309 45.9936 60.0761 45.5316 59.5157 45.5316C58.9547 45.5316 58.5008 45.9936 58.5008 46.5638V47.2831L56.5231 46.1215C56.0374 45.8355 55.4166 46.005 55.1364 46.4994C54.8559 46.9929 55.0219 47.6247 55.5078 47.9101L57.4856 49.0717L56.8727 49.4307C56.3877 49.7155 56.2211 50.3476 56.5013 50.842C56.6891 51.1729 57.0308 51.3586 57.3817 51.3586C57.5536 51.3586 57.7281 51.3143 57.8879 51.2199L59.5157 50.2644L61.0186 51.1469C60.953 51.4212 60.9153 51.7053 60.9153 51.9997C60.9153 52.2938 60.953 52.5782 61.0186 52.8525L59.5157 53.7344L57.8888 52.7789C57.4032 52.4929 56.7824 52.663 56.5022 53.1568C56.2211 53.6503 56.3877 54.2827 56.8736 54.5675L57.4862 54.9271L55.5078 56.0893C55.0222 56.3741 54.8559 57.0059 55.1364 57.5C55.3242 57.8315 55.6653 58.0166 56.0162 58.0166C56.1887 58.0166 56.3632 57.9719 56.5231 57.8779L58.4999 56.7163V57.435C58.4999 58.0052 58.9547 58.4678 59.5148 58.4678C60.0753 58.4678 60.5303 58.0058 60.5303 57.435L60.5309 55.5236L62.0344 54.64C62.4401 55.0325 62.9346 55.3296 63.4844 55.4949V57.2589L61.8572 58.2145C61.3716 58.4993 61.205 59.1311 61.4858 59.6252C61.766 60.1193 62.3868 60.2891 62.8725 60.0031L63.485 59.6435V61.9672C63.485 62.5373 63.9398 63 64.5002 63C65.0606 63 65.5151 62.5373 65.5151 61.9672V59.6441L66.1268 60.0037C66.2866 60.0977 66.4611 60.1423 66.6336 60.1423C66.9839 60.1423 67.3259 59.9576 67.5131 59.6258C67.794 59.132 67.6277 58.5005 67.1426 58.2151L65.5148 57.2589V55.4949C66.0653 55.3299 66.5598 55.0328 66.9654 54.6403L68.4689 55.5227V57.4347C68.4689 58.0055 68.9228 58.4675 69.4841 58.4675C70.0446 58.4675 70.499 58.0055 70.499 57.4347V56.7154L72.4773 57.8776C72.6372 57.9716 72.8117 58.0163 72.9836 58.0163C73.3345 58.0163 73.6765 57.8309 73.864 57.4997C74.144 57.0062 73.9776 56.3747 73.4923 56.0896ZM64.4999 53.5817C63.6428 53.5817 62.9457 52.8723 62.9457 52.0003C62.9457 51.1283 63.6428 50.4189 64.4999 50.4189C65.357 50.4189 66.0544 51.1283 66.0544 52.0003C66.0544 52.8723 65.357 53.5817 64.4999 53.5817Z" fill="url(#paint14_radial_1012_28860)"/>
<path opacity="0.6" d="M47.0557 38.585C40.1377 32.972 37.4358 24.428 41.0228 19.496C44.6108 14.564 53.1267 15.1191 60.0477 20.7261C66.9627 26.3371 69.6628 34.885 66.0778 39.815C62.4888 44.748 53.9717 44.193 47.0557 38.585Z" fill="url(#paint15_radial_1012_28860)"/>
<path opacity="0.4" d="M71.7861 55.1709C66.3481 50.7609 64.2261 44.0459 67.0441 40.1699C69.8641 36.2949 76.5581 36.7319 81.9951 41.1369C87.4311 45.5469 89.5521 52.2659 86.7351 56.1379C83.9141 60.0139 77.2201 59.5799 71.7861 55.1709Z" fill="url(#paint16_radial_1012_28860)"/>
<path opacity="0.2" d="M18.139 55.7879C14.126 49.5299 9.46706 46.5179 7.72106 49.0559C5.98306 51.5899 7.82207 58.7239 11.8301 64.9839C15.8451 71.243 20.507 74.2559 22.248 71.7179C23.987 69.1729 22.15 62.0479 18.139 55.7879Z" fill="url(#paint17_radial_1012_28860)"/>
<defs>
<linearGradient id="paint0_linear_1012_28860" x1="43.1783" y1="97.5389" x2="53.7015" y2="64.402" gradientUnits="userSpaceOnUse">
<stop offset="0.1559" stop-color="#FFE036"/>
<stop offset="1" stop-color="#FA761C"/>
</linearGradient>
<radialGradient id="paint1_radial_1012_28860" cx="0" cy="0" r="1" gradientUnits="userSpaceOnUse" gradientTransform="translate(23.3071 83.4411) rotate(30.0009) scale(9.03209 9.03211)">
<stop stop-color="#D0F2FF"/>
<stop offset="0.198" stop-color="#D5F3FF"/>
<stop offset="1" stop-color="#85BCF1"/>
</radialGradient>
<radialGradient id="paint2_radial_1012_28860" cx="0" cy="0" r="1" gradientUnits="userSpaceOnUse" gradientTransform="translate(23.784 82.8526) rotate(156.037) scale(2.01786 2.94358)">
<stop stop-color="white"/>
<stop offset="1" stop-color="white" stop-opacity="0"/>
</radialGradient>
<radialGradient id="paint3_radial_1012_28860" cx="0" cy="0" r="1" gradientUnits="userSpaceOnUse" gradientTransform="translate(29.3596 94.4403) rotate(30.0006) scale(9.03265 9.03263)">
<stop stop-color="#D0F2FF"/>
<stop offset="0.198" stop-color="#D5F3FF"/>
<stop offset="1" stop-color="#85BCF1"/>
</radialGradient>
<radialGradient id="paint4_radial_1012_28860" cx="0" cy="0" r="1" gradientUnits="userSpaceOnUse" gradientTransform="translate(29.8369 93.8515) rotate(156.037) scale(2.01815 2.94401)">
<stop stop-color="white"/>
<stop offset="1" stop-color="white" stop-opacity="0"/>
</radialGradient>
<radialGradient id="paint5_radial_1012_28860" cx="0" cy="0" r="1" gradientUnits="userSpaceOnUse" gradientTransform="translate(71.7247 83.4413) rotate(30.0008) scale(9.0313 9.03131)">
<stop stop-color="#D0F2FF"/>
<stop offset="0.198" stop-color="#D5F3FF"/>
<stop offset="1" stop-color="#85BCF1"/>
</radialGradient>
<radialGradient id="paint6_radial_1012_28860" cx="0" cy="0" r="1" gradientUnits="userSpaceOnUse" gradientTransform="translate(72.2011 82.8525) rotate(156.037) scale(2.01801 2.94379)">
<stop stop-color="white"/>
<stop offset="1" stop-color="white" stop-opacity="0"/>
</radialGradient>
<radialGradient id="paint7_radial_1012_28860" cx="0" cy="0" r="1" gradientUnits="userSpaceOnUse" gradientTransform="translate(61.2985 94.4403) rotate(30.0007) scale(9.03172 9.03171)">
<stop stop-color="#D0F2FF"/>
<stop offset="0.198" stop-color="#D5F3FF"/>
<stop offset="1" stop-color="#85BCF1"/>
</radialGradient>
<radialGradient id="paint8_radial_1012_28860" cx="0" cy="0" r="1" gradientUnits="userSpaceOnUse" gradientTransform="translate(61.7756 93.8512) rotate(156.037) scale(2.01845 2.94443)">
<stop stop-color="white"/>
<stop offset="1" stop-color="white" stop-opacity="0"/>
</radialGradient>
<radialGradient id="paint9_radial_1012_28860" cx="0" cy="0" r="1" gradientUnits="userSpaceOnUse" gradientTransform="translate(80.9365 14.1966) rotate(180) scale(46.8057 46.8057)">
<stop stop-color="#F8F8F8"/>
<stop offset="0.1559" stop-color="#EDE9F1"/>
<stop offset="1" stop-color="#9B9DA2"/>
</radialGradient>
<radialGradient id="paint10_radial_1012_28860" cx="0" cy="0" r="1" gradientUnits="userSpaceOnUse" gradientTransform="translate(84.9509 19.0137) rotate(126.034) scale(10.0227 14.6212)">
<stop stop-color="white"/>
<stop offset="1" stop-color="white" stop-opacity="0"/>
</radialGradient>
<radialGradient id="paint11_radial_1012_28860" cx="0" cy="0" r="1" gradientUnits="userSpaceOnUse" gradientTransform="translate(61.4495 42.5687) rotate(-136.79) scale(10.8993 4.62936)">
<stop stop-color="white"/>
<stop offset="1" stop-color="white" stop-opacity="0"/>
</radialGradient>
<radialGradient id="paint12_radial_1012_28860" cx="0" cy="0" r="1" gradientUnits="userSpaceOnUse" gradientTransform="translate(57.6606 25.9114) rotate(180) scale(64.1548 46.8651)">
<stop stop-color="#B6CCD2"/>
<stop offset="0.198" stop-color="#97B6BE"/>
<stop offset="1" stop-color="#5D87B4"/>
</radialGradient>
<radialGradient id="paint13_radial_1012_28860" cx="0" cy="0" r="1" gradientUnits="userSpaceOnUse" gradientTransform="translate(35.7019 47.6119) scale(18.4423 18.7619)">
<stop stop-color="white"/>
<stop offset="1" stop-color="#93ADD6"/>
</radialGradient>
<radialGradient id="paint14_radial_1012_28860" cx="0" cy="0" r="1" gradientUnits="userSpaceOnUse" gradientTransform="translate(70.7019 47.6119) scale(18.4423 18.7619)">
<stop stop-color="white"/>
<stop offset="1" stop-color="#93ADD6"/>
</radialGradient>
<radialGradient id="paint15_radial_1012_28860" cx="0" cy="0" r="1" gradientUnits="userSpaceOnUse" gradientTransform="translate(53.551 29.6547) rotate(126.034) scale(11.0418 16.1079)">
<stop stop-color="white"/>
<stop offset="1" stop-color="white" stop-opacity="0"/>
</radialGradient>
<radialGradient id="paint16_radial_1012_28860" cx="0" cy="0" r="1" gradientUnits="userSpaceOnUse" gradientTransform="translate(76.8897 48.1528) rotate(126.034) scale(8.67728 12.6585)">
<stop stop-color="white"/>
<stop offset="1" stop-color="white" stop-opacity="0"/>
</radialGradient>
<radialGradient id="paint17_radial_1012_28860" cx="0" cy="0" r="1" gradientUnits="userSpaceOnUse" gradientTransform="translate(14.9895 60.3679) rotate(-25.7092) scale(4.44786 12.9481)">
<stop stop-color="white"/>
<stop offset="1" stop-color="white" stop-opacity="0"/>
</radialGradient>
</defs>
</svg>
