<svg width="104" height="104" viewBox="0 0 104 104" fill="none" xmlns="http://www.w3.org/2000/svg">
<path d="M78.994 37.146C78.034 23.099 66.344 12 52.054 12C37.763 12 26.073 23.1 25.114 37.146C14.469 37.671 6 46.468 6 57.244C6 68.357 15.009 77.367 26.123 77.367H77.986C89.1 77.367 98.11 68.357 98.11 57.244C98.109 46.468 89.639 37.671 78.994 37.146Z" fill="url(#paint0_radial_1012_28541)"/>
<path d="M52.055 39.6469C44.48 33.5009 41.521 24.1449 45.448 18.7449C49.378 13.3449 58.704 13.9519 66.283 20.0929C73.857 26.2379 76.812 35.5989 72.887 40.9949C68.957 46.3969 59.63 45.7899 52.055 39.6469Z" fill="url(#paint1_radial_1012_28541)"/>
<path opacity="0.4" d="M79.1369 57.8131C73.1829 52.9831 70.8579 45.628 73.9439 41.385C77.0329 37.139 84.3629 37.6171 90.3179 42.4441C96.2709 47.2741 98.5929 54.632 95.5089 58.872C92.4179 63.118 85.0879 62.6421 79.1369 57.8131Z" fill="url(#paint2_radial_1012_28541)"/>
<path opacity="0.2" d="M20.387 58.4871C15.994 51.6331 10.891 48.3371 8.97998 51.1161C7.07498 53.8911 9.08998 61.7041 13.48 68.5591C17.876 75.4131 22.981 78.713 24.887 75.932C26.793 73.147 24.78 65.3451 20.387 58.4871Z" fill="url(#paint3_radial_1012_28541)"/>
<path d="M29.5821 89.7331C28.4471 91.7001 25.9331 92.3721 23.9661 91.2371C22.0001 90.1021 21.3261 87.5891 22.4621 85.6221C23.5971 83.6551 30.6181 79.7161 30.6181 79.7161C30.6181 79.7161 30.7171 87.7671 29.5821 89.7331Z" fill="url(#paint4_radial_1012_28541)"/>
<path d="M22.5811 89.0502C21.9441 87.3862 22.3302 85.6342 23.4462 85.1382C24.5612 84.6422 25.9821 85.5892 26.6201 87.2552C27.2581 88.9212 26.8691 90.6731 25.7551 91.1671C24.6401 91.6631 23.2181 90.7162 22.5811 89.0502Z" fill="url(#paint5_radial_1012_28541)"/>
<path d="M46.775 89.7331C45.64 91.7001 43.126 92.3721 41.159 91.2371C39.193 90.1021 38.519 87.5891 39.654 85.6221C40.789 83.6551 47.811 79.7161 47.811 79.7161C47.811 79.7161 47.91 87.7671 46.775 89.7331Z" fill="url(#paint6_radial_1012_28541)"/>
<path d="M39.774 89.0502C39.137 87.3862 39.523 85.6342 40.639 85.1382C41.754 84.6422 43.176 85.5892 43.813 87.2552C44.451 88.9212 44.063 90.6731 42.948 91.1671C41.832 91.6631 40.411 90.7162 39.774 89.0502Z" fill="url(#paint7_radial_1012_28541)"/>
<path d="M63.9671 89.7331C62.8321 91.7001 60.3181 92.3721 58.3511 91.2371C56.3851 90.1021 55.7111 87.5891 56.8471 85.6221C57.9821 83.6551 65.0031 79.7161 65.0031 79.7161C65.0031 79.7161 65.1031 87.7671 63.9671 89.7331Z" fill="url(#paint8_radial_1012_28541)"/>
<path d="M56.9671 89.0502C56.3301 87.3862 56.7161 85.6342 57.8321 85.1382C58.9471 84.6422 60.3691 85.5892 61.0061 87.2552C61.6441 88.9212 61.2561 90.6731 60.1411 91.1671C59.0251 91.6631 57.6041 90.7162 56.9671 89.0502Z" fill="url(#paint9_radial_1012_28541)"/>
<path d="M81.1602 89.7331C80.0252 91.7001 77.5112 92.3721 75.5442 91.2371C73.5782 90.1021 72.9042 87.5891 74.0402 85.6221C75.1752 83.6551 82.1962 79.7161 82.1962 79.7161C82.1962 79.7161 82.2962 87.7671 81.1602 89.7331Z" fill="url(#paint10_radial_1012_28541)"/>
<path d="M74.1592 89.0502C73.5222 87.3862 73.9082 85.6342 75.0252 85.1382C76.1402 84.6422 77.5612 85.5892 78.1992 87.2552C78.8372 88.9212 78.4492 90.6731 77.3342 91.1671C76.2182 91.6631 74.7972 90.7162 74.1592 89.0502Z" fill="url(#paint11_radial_1012_28541)"/>
<defs>
<radialGradient id="paint0_radial_1012_28541" cx="0" cy="0" r="1" gradientUnits="userSpaceOnUse" gradientTransform="translate(63.6685 25.774) rotate(180) scale(70.2558 51.3219)">
<stop stop-color="white"/>
<stop offset="0.198" stop-color="#D5F3FF"/>
<stop offset="1" stop-color="#85BCF1"/>
</radialGradient>
<radialGradient id="paint1_radial_1012_28541" cx="0" cy="0" r="1" gradientUnits="userSpaceOnUse" gradientTransform="translate(59.1685 29.8693) rotate(126.034) scale(12.0915 17.6391)">
<stop stop-color="white"/>
<stop offset="1" stop-color="white" stop-opacity="0"/>
</radialGradient>
<radialGradient id="paint2_radial_1012_28541" cx="0" cy="0" r="1" gradientUnits="userSpaceOnUse" gradientTransform="translate(84.7266 50.1283) rotate(126.034) scale(9.50298 13.863)">
<stop stop-color="white"/>
<stop offset="1" stop-color="white" stop-opacity="0"/>
</radialGradient>
<radialGradient id="paint3_radial_1012_28541" cx="0" cy="0" r="1" gradientUnits="userSpaceOnUse" gradientTransform="translate(16.9391 63.5201) rotate(-25.7092) scale(4.87086 14.1795)">
<stop stop-color="white"/>
<stop offset="1" stop-color="white" stop-opacity="0"/>
</radialGradient>
<radialGradient id="paint4_radial_1012_28541" cx="0" cy="0" r="1" gradientUnits="userSpaceOnUse" gradientTransform="translate(24.0786 88.7973) rotate(30.0007) scale(9.89068)">
<stop stop-color="#D0F2FF"/>
<stop offset="0.198" stop-color="#D5F3FF"/>
<stop offset="1" stop-color="#85BCF1"/>
</radialGradient>
<radialGradient id="paint5_radial_1012_28541" cx="0" cy="0" r="1" gradientUnits="userSpaceOnUse" gradientTransform="translate(24.6011 88.1525) rotate(156.037) scale(2.21003 3.2239)">
<stop stop-color="white"/>
<stop offset="1" stop-color="white" stop-opacity="0"/>
</radialGradient>
<radialGradient id="paint6_radial_1012_28541" cx="0" cy="0" r="1" gradientUnits="userSpaceOnUse" gradientTransform="translate(41.2712 88.7972) rotate(30.0007) scale(9.89108)">
<stop stop-color="#D0F2FF"/>
<stop offset="0.198" stop-color="#D5F3FF"/>
<stop offset="1" stop-color="#85BCF1"/>
</radialGradient>
<radialGradient id="paint7_radial_1012_28541" cx="0" cy="0" r="1" gradientUnits="userSpaceOnUse" gradientTransform="translate(41.7935 88.1526) rotate(156.037) scale(2.21003 3.2239)">
<stop stop-color="white"/>
<stop offset="1" stop-color="white" stop-opacity="0"/>
</radialGradient>
<radialGradient id="paint8_radial_1012_28541" cx="0" cy="0" r="1" gradientUnits="userSpaceOnUse" gradientTransform="translate(58.4643 88.7973) rotate(30.0007) scale(9.89068)">
<stop stop-color="#D0F2FF"/>
<stop offset="0.198" stop-color="#D5F3FF"/>
<stop offset="1" stop-color="#85BCF1"/>
</radialGradient>
<radialGradient id="paint9_radial_1012_28541" cx="0" cy="0" r="1" gradientUnits="userSpaceOnUse" gradientTransform="translate(58.9869 88.1528) rotate(156.037) scale(2.21003 3.2239)">
<stop stop-color="white"/>
<stop offset="1" stop-color="white" stop-opacity="0"/>
</radialGradient>
<radialGradient id="paint10_radial_1012_28541" cx="0" cy="0" r="1" gradientUnits="userSpaceOnUse" gradientTransform="translate(75.6573 88.7973) rotate(30.0007) scale(9.89069 9.89068)">
<stop stop-color="#D0F2FF"/>
<stop offset="0.198" stop-color="#D5F3FF"/>
<stop offset="1" stop-color="#85BCF1"/>
</radialGradient>
<radialGradient id="paint11_radial_1012_28541" cx="0" cy="0" r="1" gradientUnits="userSpaceOnUse" gradientTransform="translate(76.1796 88.1528) rotate(156.037) scale(2.21017 3.22411)">
<stop stop-color="white"/>
<stop offset="1" stop-color="white" stop-opacity="0"/>
</radialGradient>
</defs>
</svg>
