<svg width="104" height="104" viewBox="0 0 104 104" fill="none" xmlns="http://www.w3.org/2000/svg">
<g clip-path="url(#clip0_1160_11605)">
<path d="M97.1327 56.9087L90.2157 57.3633L88.9122 64.1702L82.2572 62.2329L78.7048 68.1841L73.1138 64.0865L67.7399 68.4635L63.8877 62.7021L57.3407 64.9763L55.6925 58.2453L48.761 58.1431L49.5145 51.2525L43.0367 48.7875L46.1013 42.5706L40.8569 38.0368L45.8638 33.2442L42.4856 27.1918L48.8292 24.3987L47.7252 17.5548L54.6421 17.1031L55.9447 10.2933L62.5997 12.2306L66.1521 6.2794L71.7431 10.377L77.1179 6L80.9692 11.7613L87.5162 9.48718L89.1663 16.2181L96.0968 16.3213L95.3433 23.212L101.82 25.676L98.7565 31.8939L104 36.4266L98.995 41.2203L102.372 47.2727L96.0277 50.0658L97.1327 56.9087Z" fill="url(#paint0_linear_1160_11605)"/>
<path d="M49.0444 37.2308C49.0444 50.1476 59.5137 60.6159 72.4286 60.6159C85.3444 60.6159 95.8137 50.1466 95.8137 37.2308C95.8137 24.3179 85.3444 13.8467 72.4286 13.8467C59.5137 13.8477 49.0444 24.3189 49.0444 37.2308Z" fill="url(#paint1_radial_1160_11605)"/>
<path d="M75.9919 34.826C70.0368 29.9944 67.7101 22.6374 70.7981 18.3938C73.8871 14.1483 81.2197 14.6253 87.1777 19.453C93.1318 24.2846 95.4546 31.6435 92.3695 35.8852C89.2786 40.1346 81.9469 39.6547 75.9919 34.826Z" fill="url(#paint2_radial_1160_11605)"/>
<path opacity="0.4" d="M51.7606 42.4008C52.5511 39.8151 56.5601 40.885 60.7229 44.7947C64.8837 48.7044 67.6164 53.9673 66.8308 56.5549C66.0432 59.1406 62.0323 58.0707 57.8695 54.161C53.7086 50.2514 50.9749 44.9826 51.7606 42.4008Z" fill="url(#paint3_radial_1160_11605)"/>
<path d="M71.0617 44.3141C70.1271 30.6389 58.7465 19.8337 44.8348 19.8337C30.9222 19.8337 19.5416 30.6399 18.608 44.3141C8.24481 44.8271 0 53.3893 0 63.88C0 74.7008 8.77051 83.4723 19.5903 83.4723H70.0803C80.9001 83.4723 89.6716 74.7008 89.6716 63.88C89.6706 53.3893 81.4249 44.8271 71.0617 44.3141Z" fill="url(#paint4_radial_1160_11605)"/>
<path d="M71.0617 44.3141C70.1271 30.6389 58.7465 19.8337 44.8348 19.8337C30.9222 19.8337 19.5416 30.6399 18.608 44.3141C8.24481 44.8271 0 53.3893 0 63.88C0 74.7008 8.77051 83.4723 19.5903 83.4723H70.0803C80.9001 83.4723 89.6716 74.7008 89.6716 63.88C89.6706 53.3893 81.4249 44.8271 71.0617 44.3141Z" fill="url(#paint5_radial_1160_11605)"/>
<path d="M44.8359 46.7519C37.4614 40.7676 34.5807 31.6584 38.4038 26.4013C42.2297 21.1443 51.3089 21.7352 58.6872 27.7136C66.0607 33.6959 68.9375 42.8092 65.1164 48.0643C61.2904 53.3232 52.2103 52.7313 44.8359 46.7519Z" fill="url(#paint6_radial_1160_11605)"/>
<path opacity="0.4" d="M71.2004 64.435C65.404 59.7329 63.1405 52.5736 66.1448 48.4419C69.1521 44.3103 76.288 44.7756 82.0854 49.4729C87.8808 54.175 90.1413 61.3382 87.139 65.466C84.1298 69.5986 76.9938 69.1352 71.2004 64.435Z" fill="url(#paint7_radial_1160_11605)"/>
<path opacity="0.2" d="M14.0059 65.0922C9.72922 58.4196 4.76131 55.2089 2.9009 57.9144C1.04633 60.6159 3.00799 68.2221 7.28178 74.8956C11.5614 81.5682 16.5313 84.7808 18.3868 82.0754C20.2423 79.3631 18.2826 71.7667 14.0059 65.0922Z" fill="url(#paint8_radial_1160_11605)"/>
<path d="M22.9571 95.5089C21.8522 97.4238 19.4047 98.08 17.4898 96.9731C15.5758 95.8681 14.9197 93.4217 16.0256 91.5067C17.1306 89.5918 23.9657 85.7571 23.9657 85.7571C23.9657 85.7571 24.0621 93.5949 22.9571 95.5089Z" fill="url(#paint9_radial_1160_11605)"/>
<path d="M16.1416 94.8458C15.5215 93.2239 15.8973 91.5202 16.9837 91.0354C18.0692 90.5525 19.4526 91.4764 20.0737 93.0983C20.6948 94.7182 20.3161 96.4258 19.2316 96.9067C18.1461 97.3896 16.7618 96.4657 16.1416 94.8458Z" fill="url(#paint10_radial_1160_11605)"/>
<path d="M39.6947 95.5089C38.5898 97.4238 36.1423 98.08 34.2274 96.9731C32.3134 95.8681 31.6573 93.4217 32.7622 91.5067C33.8672 89.5918 40.7033 85.7571 40.7033 85.7571C40.7033 85.7571 40.7997 93.5949 39.6947 95.5089Z" fill="url(#paint11_radial_1160_11605)"/>
<path d="M32.8789 94.8458C32.2588 93.2239 32.6346 91.5202 33.721 91.0354C34.8065 90.5525 36.1909 91.4764 36.811 93.0983C37.4321 94.7182 37.0544 96.4258 35.9689 96.9067C34.8825 97.3896 33.4991 96.4657 32.8789 94.8458Z" fill="url(#paint12_radial_1160_11605)"/>
<path d="M56.4317 95.5089C55.3268 97.4238 52.8793 98.08 50.9644 96.9731C49.0504 95.8681 48.3943 93.4217 49.5002 91.5067C50.6052 89.5918 57.4403 85.7571 57.4403 85.7571C57.4403 85.7571 57.5376 93.5949 56.4317 95.5089Z" fill="url(#paint13_radial_1160_11605)"/>
<path d="M49.6172 94.8458C48.9971 93.2239 49.3729 91.5202 50.4593 91.0354C51.5448 90.5525 52.9292 91.4764 53.5493 93.0983C54.1704 94.7182 53.7927 96.4258 52.7072 96.9067C51.6207 97.3896 50.2373 96.4657 49.6172 94.8458Z" fill="url(#paint14_radial_1160_11605)"/>
<path d="M73.17 95.5089C72.0651 97.4238 69.6176 98.08 67.7027 96.9731C65.7887 95.8681 65.1326 93.4217 66.2385 91.5067C67.3434 89.5918 74.1786 85.7571 74.1786 85.7571C74.1786 85.7571 74.2759 93.5949 73.17 95.5089Z" fill="url(#paint15_radial_1160_11605)"/>
<path d="M66.3545 94.8458C65.7343 93.2239 66.1101 91.5202 67.1976 91.0354C68.283 90.5525 69.6664 91.4764 70.2875 93.0983C70.9086 94.7182 70.5309 96.4258 69.4454 96.9067C68.359 97.3896 66.9756 96.4657 66.3545 94.8458Z" fill="url(#paint16_radial_1160_11605)"/>
</g>
<defs>
<linearGradient id="paint0_linear_1160_11605" x1="101.215" y1="5.06356" x2="45.7257" y2="67.0716" gradientUnits="userSpaceOnUse">
<stop stop-color="#FFBA24"/>
<stop offset="1" stop-color="#FF5500"/>
</linearGradient>
<radialGradient id="paint1_radial_1160_11605" cx="0" cy="0" r="1" gradientUnits="userSpaceOnUse" gradientTransform="translate(77.7772 22.5702) rotate(180) scale(44.3923 44.3923)">
<stop stop-color="#FFF4C3"/>
<stop offset="0.1559" stop-color="#FFE036"/>
<stop offset="1" stop-color="#FA761C"/>
</radialGradient>
<radialGradient id="paint2_radial_1160_11605" cx="0" cy="0" r="1" gradientUnits="userSpaceOnUse" gradientTransform="translate(81.5841 27.1384) rotate(126.034) scale(9.50569 13.867)">
<stop stop-color="white"/>
<stop offset="1" stop-color="white" stop-opacity="0"/>
</radialGradient>
<radialGradient id="paint3_radial_1160_11605" cx="0" cy="0" r="1" gradientUnits="userSpaceOnUse" gradientTransform="translate(59.2952 49.4774) rotate(-136.79) scale(10.3369 4.39048)">
<stop stop-color="white"/>
<stop offset="1" stop-color="white" stop-opacity="0"/>
</radialGradient>
<radialGradient id="paint4_radial_1160_11605" cx="0" cy="0" r="1" gradientUnits="userSpaceOnUse" gradientTransform="translate(56.1419 33.2422) rotate(180) scale(68.3974 49.9643)">
<stop stop-color="white"/>
<stop offset="0.198" stop-color="#D5F3FF"/>
<stop offset="1" stop-color="#85BCF1"/>
</radialGradient>
<radialGradient id="paint5_radial_1160_11605" cx="0" cy="0" r="1" gradientUnits="userSpaceOnUse" gradientTransform="translate(64.9489 37.1339) scale(60.07 60.07)">
<stop stop-color="#FFE036"/>
<stop offset="0.0052" stop-color="#FFDF36" stop-opacity="0.9933"/>
<stop offset="0.1623" stop-color="#FDB92C" stop-opacity="0.789"/>
<stop offset="0.319" stop-color="#FC9C25" stop-opacity="0.5851"/>
<stop offset="0.4735" stop-color="#FB8720" stop-opacity="0.3841"/>
<stop offset="0.6247" stop-color="#FA7A1D" stop-opacity="0.1875"/>
<stop offset="0.7688" stop-color="#FA761C" stop-opacity="0"/>
</radialGradient>
<radialGradient id="paint6_radial_1160_11605" cx="0" cy="0" r="1" gradientUnits="userSpaceOnUse" gradientTransform="translate(51.7611 37.2311) rotate(126.034) scale(11.7719 17.173)">
<stop stop-color="white"/>
<stop offset="1" stop-color="white" stop-opacity="0"/>
</radialGradient>
<radialGradient id="paint7_radial_1160_11605" cx="0" cy="0" r="1" gradientUnits="userSpaceOnUse" gradientTransform="translate(76.6419 56.9527) rotate(126.034) scale(9.25141 13.496)">
<stop stop-color="white"/>
<stop offset="1" stop-color="white" stop-opacity="0"/>
</radialGradient>
<radialGradient id="paint8_radial_1160_11605" cx="0" cy="0" r="1" gradientUnits="userSpaceOnUse" gradientTransform="translate(10.6537 69.9888) rotate(-25.7092) scale(4.74201 13.8044)">
<stop stop-color="white"/>
<stop offset="1" stop-color="white" stop-opacity="0"/>
</radialGradient>
<radialGradient id="paint9_radial_1160_11605" cx="0" cy="0" r="1" gradientUnits="userSpaceOnUse" gradientTransform="translate(17.5994 94.598) rotate(30.0007) scale(9.62885)">
<stop stop-color="#D0F2FF"/>
<stop offset="0.198" stop-color="#D5F3FF"/>
<stop offset="1" stop-color="#85BCF1"/>
</radialGradient>
<radialGradient id="paint10_radial_1160_11605" cx="0" cy="0" r="1" gradientUnits="userSpaceOnUse" gradientTransform="translate(18.1078 93.9714) rotate(156.037) scale(2.1518 3.13897)">
<stop stop-color="white"/>
<stop offset="1" stop-color="white" stop-opacity="0"/>
</radialGradient>
<radialGradient id="paint11_radial_1160_11605" cx="0" cy="0" r="1" gradientUnits="userSpaceOnUse" gradientTransform="translate(34.3366 94.5979) rotate(30.0007) scale(9.62924)">
<stop stop-color="#D0F2FF"/>
<stop offset="0.198" stop-color="#D5F3FF"/>
<stop offset="1" stop-color="#85BCF1"/>
</radialGradient>
<radialGradient id="paint12_radial_1160_11605" cx="0" cy="0" r="1" gradientUnits="userSpaceOnUse" gradientTransform="translate(34.8446 93.9712) rotate(156.037) scale(2.15194 3.13917)">
<stop stop-color="white"/>
<stop offset="1" stop-color="white" stop-opacity="0"/>
</radialGradient>
<radialGradient id="paint13_radial_1160_11605" cx="0" cy="0" r="1" gradientUnits="userSpaceOnUse" gradientTransform="translate(51.0746 94.598) rotate(30.0007) scale(9.62885)">
<stop stop-color="#D0F2FF"/>
<stop offset="0.198" stop-color="#D5F3FF"/>
<stop offset="1" stop-color="#85BCF1"/>
</radialGradient>
<radialGradient id="paint14_radial_1160_11605" cx="0" cy="0" r="1" gradientUnits="userSpaceOnUse" gradientTransform="translate(51.5832 93.9712) rotate(156.037) scale(2.15194 3.13917)">
<stop stop-color="white"/>
<stop offset="1" stop-color="white" stop-opacity="0"/>
</radialGradient>
<radialGradient id="paint15_radial_1160_11605" cx="0" cy="0" r="1" gradientUnits="userSpaceOnUse" gradientTransform="translate(67.8128 94.598) rotate(30.0007) scale(9.62885 9.62885)">
<stop stop-color="#D0F2FF"/>
<stop offset="0.198" stop-color="#D5F3FF"/>
<stop offset="1" stop-color="#85BCF1"/>
</radialGradient>
<radialGradient id="paint16_radial_1160_11605" cx="0" cy="0" r="1" gradientUnits="userSpaceOnUse" gradientTransform="translate(68.3212 93.9714) rotate(156.037) scale(2.15194 3.13917)">
<stop stop-color="white"/>
<stop offset="1" stop-color="white" stop-opacity="0"/>
</radialGradient>
<clipPath id="clip0_1160_11605">
<rect width="104" height="104" fill="white"/>
</clipPath>
</defs>
</svg>
