<svg width="104" height="104" viewBox="0 0 104 104" fill="none" xmlns="http://www.w3.org/2000/svg">
<path d="M50.6411 29.656C50.6411 43.273 61.6801 54.311 75.2971 54.311C88.9141 54.311 99.9531 43.273 99.9531 29.656C99.9531 16.04 88.9141 5 75.2971 5C61.6801 5 50.6411 16.04 50.6411 29.656Z" fill="url(#paint0_radial_1160_11425)"/>
<path d="M58.069 34.018C60.386 33.81 62.041 31.181 61.768 28.147C61.497 25.114 59.398 22.824 57.08 23.033C54.765 23.241 53.108 25.87 53.381 28.902C53.653 31.935 55.752 34.225 58.069 34.018Z" fill="#ACADB2"/>
<path d="M56.061 36.2229C54.671 36.9519 54.322 39.0169 55.276 40.8329C56.23 42.6499 58.128 43.5309 59.517 42.8039C60.903 42.0769 61.254 40.0109 60.3 38.1959C59.348 36.3789 57.449 35.4959 56.061 36.2229Z" fill="#ACADB2"/>
<path d="M61.5589 34.0329C60.7389 34.4649 60.532 35.6829 61.096 36.7569C61.659 37.8299 62.781 38.3509 63.601 37.9209C64.42 37.4909 64.627 36.2719 64.065 35.1979C63.501 34.1239 62.3789 33.6029 61.5589 34.0329Z" fill="#ACADB2"/>
<path d="M98.0709 30.548C97.6439 27.531 95.4329 25.351 93.1289 25.675C90.8269 25.999 89.3059 28.709 89.7309 31.725C90.1559 34.741 92.3689 36.922 94.6709 36.595C96.9739 36.271 98.4969 33.562 98.0709 30.548Z" fill="#ACADB2"/>
<path d="M95.025 23.372C96.373 22.572 96.619 20.493 95.574 18.727C94.531 16.961 92.591 16.176 91.24 16.974C89.892 17.769 89.646 19.85 90.691 21.617C91.734 23.383 93.674 24.169 95.025 23.372Z" fill="#ACADB2"/>
<path d="M89.966 23.093C89.349 22.049 88.204 21.585 87.405 22.057C86.609 22.528 86.463 23.756 87.08 24.799C87.697 25.845 88.845 26.307 89.642 25.835C90.439 25.365 90.585 24.136 89.966 23.093Z" fill="#ACADB2"/>
<path d="M79.0551 27.12C72.7781 22.023 70.3221 14.268 73.5781 9.794C76.8341 5.317 84.5651 5.818 90.8491 10.91C97.1271 16.004 99.5761 23.764 96.3231 28.235C93.0631 32.716 85.3341 32.211 79.0551 27.12Z" fill="url(#paint1_radial_1160_11425)"/>
<path opacity="0.4" d="M53.5051 35.1051C54.3381 32.3771 58.5651 33.5081 62.9531 37.6301C67.3411 41.7511 70.2221 47.3021 69.3931 50.0301C68.5641 52.7551 64.3351 51.6281 59.9451 47.5071C55.5601 43.3851 52.6771 37.8301 53.5051 35.1051Z" fill="url(#paint2_radial_1160_11425)"/>
<path d="M71.656 36.2979C70.778 23.4719 60.104 13.3359 47.054 13.3359C34.004 13.3359 23.33 23.4719 22.454 36.2979C12.732 36.7789 5 44.8109 5 54.6499C5 64.7989 13.227 73.0269 23.375 73.0269H70.733C80.88 73.0269 89.108 64.7989 89.108 54.6499C89.109 44.8099 81.376 36.7789 71.656 36.2979Z" fill="url(#paint3_radial_1160_11425)"/>
<path d="M24.6722 86.017C23.5372 87.984 21.0232 88.656 19.0562 87.521C17.0902 86.386 16.4162 83.873 17.5512 81.906C18.6862 79.939 25.7082 76 25.7082 76C25.7082 76 25.8072 84.051 24.6722 86.017Z" fill="url(#paint4_radial_1160_11425)"/>
<path d="M41.8653 86.017C40.7303 87.984 38.2163 88.656 36.2493 87.521C34.2833 86.386 33.6093 83.873 34.7453 81.906C35.8803 79.939 42.9013 76 42.9013 76C42.9013 76 43.0003 84.051 41.8653 86.017Z" fill="url(#paint5_radial_1160_11425)"/>
<path d="M34.8643 85.3341C34.2273 83.6701 34.6134 81.9181 35.7294 81.4221C36.8444 80.9261 38.2654 81.8731 38.9034 83.5391C39.5414 85.2051 39.1533 86.9571 38.0383 87.4511C36.9233 87.9471 35.5013 87.0001 34.8643 85.3341Z" fill="url(#paint6_radial_1160_11425)"/>
<path d="M59.0582 86.017C57.9232 87.984 55.4092 88.656 53.4422 87.521C51.4762 86.386 50.8022 83.873 51.9372 81.906C53.0722 79.939 60.0942 76 60.0942 76C60.0942 76 60.1932 84.051 59.0582 86.017Z" fill="url(#paint7_radial_1160_11425)"/>
<path d="M52.0572 85.3341C51.4202 83.6701 51.8062 81.9181 52.9222 81.4221C54.0372 80.9261 55.4592 81.8731 56.0962 83.5391C56.7342 85.2051 56.3462 86.9571 55.2312 87.4511C54.1162 87.9471 52.6952 87.0001 52.0572 85.3341Z" fill="url(#paint8_radial_1160_11425)"/>
<path d="M76.2503 86.017C75.1153 87.984 72.6013 88.656 70.6343 87.521C68.6683 86.386 67.9943 83.873 69.1303 81.906C70.2653 79.939 77.2873 76 77.2873 76C77.2873 76 77.3863 84.051 76.2503 86.017Z" fill="url(#paint9_radial_1160_11425)"/>
<path d="M69.2503 85.3341C68.6133 83.6701 68.9994 81.9181 70.1154 81.4221C71.2304 80.9261 72.6523 81.8731 73.2893 83.5391C73.9273 85.2051 73.5393 86.9571 72.4243 87.4511C71.3083 87.9471 69.8873 87.0001 69.2503 85.3341Z" fill="url(#paint10_radial_1160_11425)"/>
<path d="M33.2684 100.463C32.1334 102.428 29.6194 103.102 27.6524 101.967C25.6864 100.832 25.0124 98.317 26.1484 96.352C27.2834 94.385 34.3044 90.446 34.3044 90.446C34.3044 90.446 34.4044 98.496 33.2684 100.463Z" fill="url(#paint11_radial_1160_11425)"/>
<path d="M26.2674 99.7792C25.6304 98.1152 26.0174 96.3632 27.1334 95.8672C28.2484 95.3712 29.6694 96.3182 30.3074 97.9842C30.9454 99.6482 30.5574 101.402 29.4424 101.896C28.3264 102.392 26.9054 101.443 26.2674 99.7792Z" fill="url(#paint12_radial_1160_11425)"/>
<path d="M50.4615 100.463C49.3265 102.428 46.8125 103.102 44.8455 101.967C42.8795 100.832 42.2055 98.317 43.3415 96.352C44.4765 94.385 51.4985 90.446 51.4985 90.446C51.4985 90.446 51.5975 98.496 50.4615 100.463Z" fill="url(#paint13_radial_1160_11425)"/>
<path d="M43.4615 99.7792C42.8245 98.1152 43.2105 96.3632 44.3265 95.8672C45.4415 95.3712 46.8635 96.3182 47.5005 97.9842C48.1385 99.6482 47.7505 101.402 46.6355 101.896C45.5195 102.392 44.0985 101.443 43.4615 99.7792Z" fill="url(#paint14_radial_1160_11425)"/>
<path d="M67.6544 100.463C66.5194 102.428 64.0054 103.102 62.0384 101.967C60.0724 100.832 59.3984 98.317 60.5344 96.352C61.6694 94.385 68.6903 90.446 68.6903 90.446C68.6903 90.446 68.7894 98.496 67.6544 100.463Z" fill="url(#paint15_radial_1160_11425)"/>
<path d="M60.6534 99.7792C60.0164 98.1152 60.4024 96.3632 61.5194 95.8672C62.6344 95.3712 64.0554 96.3182 64.6934 97.9842C65.3314 99.6482 64.9424 101.402 63.8284 101.896C62.7124 102.392 61.2914 101.443 60.6534 99.7792Z" fill="url(#paint16_radial_1160_11425)"/>
<path opacity="0.6" d="M47.056 38.585C40.138 32.972 37.436 24.428 41.023 19.496C44.611 14.564 53.127 15.1191 60.048 20.7261C66.963 26.3371 69.663 34.885 66.078 39.815C62.489 44.748 53.972 44.193 47.056 38.585Z" fill="url(#paint17_radial_1160_11425)"/>
<path opacity="0.4" d="M71.7861 55.1709C66.3481 50.7609 64.2261 44.0459 67.0441 40.1699C69.8641 36.2949 76.5581 36.7319 81.9951 41.1369C87.4311 45.5469 89.5521 52.2659 86.7351 56.1379C83.9141 60.0139 77.2201 59.5799 71.7861 55.1709Z" fill="url(#paint18_radial_1160_11425)"/>
<path opacity="0.2" d="M18.139 55.7879C14.126 49.5299 9.46706 46.5179 7.72106 49.0559C5.98306 51.5899 7.82207 58.7239 11.8301 64.9839C15.8451 71.2429 20.507 74.2559 22.248 71.7179C23.987 69.1729 22.15 62.0479 18.139 55.7879Z" fill="url(#paint19_radial_1160_11425)"/>
<defs>
<radialGradient id="paint0_radial_1160_11425" cx="0" cy="0" r="1" gradientUnits="userSpaceOnUse" gradientTransform="translate(80.9365 14.1966) rotate(180) scale(46.8057 46.8057)">
<stop stop-color="#F8F8F8"/>
<stop offset="0.1559" stop-color="#EDE9F1"/>
<stop offset="1" stop-color="#9B9DA2"/>
</radialGradient>
<radialGradient id="paint1_radial_1160_11425" cx="0" cy="0" r="1" gradientUnits="userSpaceOnUse" gradientTransform="translate(84.9512 19.0137) rotate(126.034) scale(10.0227 14.6212)">
<stop stop-color="white"/>
<stop offset="1" stop-color="white" stop-opacity="0"/>
</radialGradient>
<radialGradient id="paint2_radial_1160_11425" cx="0" cy="0" r="1" gradientUnits="userSpaceOnUse" gradientTransform="translate(61.4495 42.5687) rotate(-136.79) scale(10.8993 4.62936)">
<stop stop-color="white"/>
<stop offset="1" stop-color="white" stop-opacity="0"/>
</radialGradient>
<radialGradient id="paint3_radial_1160_11425" cx="0" cy="0" r="1" gradientUnits="userSpaceOnUse" gradientTransform="translate(57.6606 25.9114) rotate(180) scale(64.1548 46.8651)">
<stop stop-color="#B6CCD2"/>
<stop offset="0.198" stop-color="#97B6BE"/>
<stop offset="1" stop-color="#5D87B4"/>
</radialGradient>
<radialGradient id="paint4_radial_1160_11425" cx="0" cy="0" r="1" gradientUnits="userSpaceOnUse" gradientTransform="translate(19.169 85.081) rotate(30.0007) scale(9.89068)">
<stop stop-color="#D0F2FF"/>
<stop offset="0.198" stop-color="#D5F3FF"/>
<stop offset="1" stop-color="#85BCF1"/>
</radialGradient>
<radialGradient id="paint5_radial_1160_11425" cx="0" cy="0" r="1" gradientUnits="userSpaceOnUse" gradientTransform="translate(36.3617 85.0812) rotate(30.0007) scale(9.89069 9.89068)">
<stop stop-color="#D0F2FF"/>
<stop offset="0.198" stop-color="#D5F3FF"/>
<stop offset="1" stop-color="#85BCF1"/>
</radialGradient>
<radialGradient id="paint6_radial_1160_11425" cx="0" cy="0" r="1" gradientUnits="userSpaceOnUse" gradientTransform="translate(36.8841 84.4366) rotate(156.037) scale(2.21003 3.2239)">
<stop stop-color="white"/>
<stop offset="1" stop-color="white" stop-opacity="0"/>
</radialGradient>
<radialGradient id="paint7_radial_1160_11425" cx="0" cy="0" r="1" gradientUnits="userSpaceOnUse" gradientTransform="translate(53.5548 85.0811) rotate(30.0007) scale(9.89108 9.89108)">
<stop stop-color="#D0F2FF"/>
<stop offset="0.198" stop-color="#D5F3FF"/>
<stop offset="1" stop-color="#85BCF1"/>
</radialGradient>
<radialGradient id="paint8_radial_1160_11425" cx="0" cy="0" r="1" gradientUnits="userSpaceOnUse" gradientTransform="translate(54.0771 84.4366) rotate(156.037) scale(2.21003 3.2239)">
<stop stop-color="white"/>
<stop offset="1" stop-color="white" stop-opacity="0"/>
</radialGradient>
<radialGradient id="paint9_radial_1160_11425" cx="0" cy="0" r="1" gradientUnits="userSpaceOnUse" gradientTransform="translate(70.7476 85.0813) rotate(30.0007) scale(9.89069 9.89068)">
<stop stop-color="#D0F2FF"/>
<stop offset="0.198" stop-color="#D5F3FF"/>
<stop offset="1" stop-color="#85BCF1"/>
</radialGradient>
<radialGradient id="paint10_radial_1160_11425" cx="0" cy="0" r="1" gradientUnits="userSpaceOnUse" gradientTransform="translate(71.27 84.4366) rotate(156.037) scale(2.21003 3.2239)">
<stop stop-color="white"/>
<stop offset="1" stop-color="white" stop-opacity="0"/>
</radialGradient>
<radialGradient id="paint11_radial_1160_11425" cx="0" cy="0" r="1" gradientUnits="userSpaceOnUse" gradientTransform="translate(27.7656 99.5266) rotate(30.0007) scale(9.89069 9.89068)">
<stop stop-color="#D0F2FF"/>
<stop offset="0.198" stop-color="#D5F3FF"/>
<stop offset="1" stop-color="#85BCF1"/>
</radialGradient>
<radialGradient id="paint12_radial_1160_11425" cx="0" cy="0" r="1" gradientUnits="userSpaceOnUse" gradientTransform="translate(28.2877 98.8822) rotate(156.037) scale(2.21003 3.2239)">
<stop stop-color="white"/>
<stop offset="1" stop-color="white" stop-opacity="0"/>
</radialGradient>
<radialGradient id="paint13_radial_1160_11425" cx="0" cy="0" r="1" gradientUnits="userSpaceOnUse" gradientTransform="translate(44.9586 99.5266) rotate(30.0007) scale(9.89078)">
<stop stop-color="#D0F2FF"/>
<stop offset="0.198" stop-color="#D5F3FF"/>
<stop offset="1" stop-color="#85BCF1"/>
</radialGradient>
<radialGradient id="paint14_radial_1160_11425" cx="0" cy="0" r="1" gradientUnits="userSpaceOnUse" gradientTransform="translate(45.4811 98.8821) rotate(156.037) scale(2.21017 3.22411)">
<stop stop-color="white"/>
<stop offset="1" stop-color="white" stop-opacity="0"/>
</radialGradient>
<radialGradient id="paint15_radial_1160_11425" cx="0" cy="0" r="1" gradientUnits="userSpaceOnUse" gradientTransform="translate(62.1514 99.5266) rotate(30.0007) scale(9.89067 9.89068)">
<stop stop-color="#D0F2FF"/>
<stop offset="0.198" stop-color="#D5F3FF"/>
<stop offset="1" stop-color="#85BCF1"/>
</radialGradient>
<radialGradient id="paint16_radial_1160_11425" cx="0" cy="0" r="1" gradientUnits="userSpaceOnUse" gradientTransform="translate(62.6736 98.8822) rotate(156.037) scale(2.21017 3.22411)">
<stop stop-color="white"/>
<stop offset="1" stop-color="white" stop-opacity="0"/>
</radialGradient>
<radialGradient id="paint17_radial_1160_11425" cx="0" cy="0" r="1" gradientUnits="userSpaceOnUse" gradientTransform="translate(53.5513 29.6547) rotate(126.034) scale(11.0418 16.1079)">
<stop stop-color="white"/>
<stop offset="1" stop-color="white" stop-opacity="0"/>
</radialGradient>
<radialGradient id="paint18_radial_1160_11425" cx="0" cy="0" r="1" gradientUnits="userSpaceOnUse" gradientTransform="translate(76.8897 48.1528) rotate(126.034) scale(8.67728 12.6585)">
<stop stop-color="white"/>
<stop offset="1" stop-color="white" stop-opacity="0"/>
</radialGradient>
<radialGradient id="paint19_radial_1160_11425" cx="0" cy="0" r="1" gradientUnits="userSpaceOnUse" gradientTransform="translate(14.9895 60.3679) rotate(-25.7092) scale(4.44786 12.9481)">
<stop stop-color="white"/>
<stop offset="1" stop-color="white" stop-opacity="0"/>
</radialGradient>
</defs>
</svg>
