<svg width="104" height="104" viewBox="0 0 104 104" fill="none" xmlns="http://www.w3.org/2000/svg">
<path d="M82.4718 65.903L75.7518 62.024L77.8308 60.825C79.4808 59.874 80.0478 57.763 79.0958 56.114C78.1438 54.466 76.0328 53.899 74.3848 54.85L68.8548 58.039L63.7508 55.094C63.9708 54.178 64.1008 53.229 64.1008 52.246C64.1008 51.264 63.9708 50.314 63.7508 49.398L68.8548 46.451L74.3828 49.642C74.9258 49.956 75.5188 50.107 76.1028 50.107C77.2948 50.107 78.4538 49.488 79.0928 48.38C80.0448 46.732 79.4798 44.622 77.8308 43.669L75.7498 42.468L82.4718 38.589C84.1218 37.636 84.6858 35.527 83.7348 33.878C82.7828 32.228 80.6768 31.661 79.0238 32.616L72.3028 36.495L72.3058 34.095C72.3058 32.189 70.7598 30.646 68.8568 30.646C66.9528 30.646 65.4078 32.189 65.4078 34.093L65.4058 40.476L60.2978 43.425C58.9198 42.116 57.2418 41.124 55.3708 40.571V34.682L60.8998 31.489C62.5498 30.538 63.1128 28.429 62.1608 26.78C61.2088 25.13 59.0988 24.563 57.4498 25.516L55.3708 26.717V18.959C55.3708 17.055 53.8268 15.512 51.9228 15.512C50.0168 15.512 48.4738 17.055 48.4738 18.959V26.717L46.3928 25.516C44.7448 24.563 42.6358 25.129 41.6818 26.78C40.7298 28.428 41.2958 30.538 42.9438 31.489L48.4738 34.682V40.571C46.6038 41.124 44.9238 42.116 43.5458 43.426L38.4378 40.475V34.092C38.4378 32.188 36.8928 30.645 34.9888 30.645C33.0828 30.645 31.5408 32.188 31.5408 34.092V36.494L24.8218 32.615C23.1718 31.66 21.0628 32.226 20.1108 33.877C19.1578 35.525 19.7218 37.635 21.3728 38.588L28.0918 42.467L26.0098 43.666C24.3618 44.617 23.7958 46.728 24.7478 48.379C25.3858 49.484 26.5468 50.104 27.7388 50.104C28.3228 50.104 28.9158 49.956 29.4588 49.641L34.9888 46.45L40.0948 49.397C39.8718 50.313 39.7438 51.262 39.7438 52.245C39.7438 53.227 39.8718 54.177 40.0948 55.093L34.9888 58.038L29.4618 54.847C27.8118 53.892 25.7028 54.46 24.7508 56.109C23.7958 57.757 24.3618 59.869 26.0128 60.82L28.0938 62.021L21.3728 65.902C19.7228 66.853 19.1578 68.963 20.1108 70.613C20.7488 71.72 21.9078 72.338 23.0998 72.338C23.6858 72.338 24.2788 72.189 24.8218 71.875L31.5378 67.996V70.396C31.5378 72.3 33.0828 73.845 34.9858 73.845C36.8898 73.845 38.4358 72.302 38.4358 70.396L38.4378 64.013L43.5458 61.062C44.9238 62.373 46.6038 63.365 48.4718 63.917V69.808L42.9438 72.999C41.2938 73.95 40.7278 76.06 41.6818 77.71C42.6338 79.36 44.7428 79.927 46.3928 78.972L48.4738 77.771V85.531C48.4738 87.435 50.0188 88.98 51.9228 88.98C53.8268 88.98 55.3708 87.435 55.3708 85.531V77.773L57.4488 78.974C57.9918 79.288 58.5848 79.437 59.1708 79.437C60.3608 79.437 61.5228 78.82 62.1588 77.712C63.1128 76.063 62.5478 73.954 60.8998 73.001L55.3698 69.808V63.917C57.2398 63.366 58.9198 62.374 60.2978 61.063L65.4058 64.01V70.395C65.4058 72.301 66.9478 73.844 68.8548 73.844C70.7588 73.844 72.3028 72.301 72.3028 70.395V67.993L79.0238 71.874C79.5668 72.188 80.1598 72.337 80.7438 72.337C81.9358 72.337 83.0978 71.718 83.7348 70.612C84.6858 68.964 84.1208 66.855 82.4718 65.903ZM51.9218 57.528C49.0098 57.528 46.6418 55.159 46.6418 52.247C46.6418 49.335 49.0098 46.966 51.9218 46.966C54.8338 46.966 57.2028 49.335 57.2028 52.247C57.2028 55.159 54.8338 57.528 51.9218 57.528Z" fill="url(#paint0_radial_1012_28761)"/>
<defs>
<radialGradient id="paint0_radial_1012_28761" cx="0" cy="0" r="1" gradientUnits="userSpaceOnUse" gradientTransform="translate(72.992 37.5921) scale(62.6546 62.6546)">
<stop stop-color="#28CBE9"/>
<stop offset="1" stop-color="#0A4FBB"/>
</radialGradient>
</defs>
</svg>
