<svg width="104" height="104" viewBox="0 0 104 104" fill="none" xmlns="http://www.w3.org/2000/svg">
<path d="M49.7656 41.8731C49.7656 56.7207 61.8033 68.7565 76.6509 68.7565C91.4985 68.7565 103.536 56.7207 103.536 41.8731C103.536 27.0256 91.4985 14.9878 76.6509 14.9878C61.8033 14.9878 49.7656 27.0256 49.7656 41.8731Z" fill="url(#paint0_radial_1160_11305)"/>
<path d="M57.8656 46.6306C60.3917 46.4026 62.1968 43.537 61.8991 40.2283C61.6034 36.9207 59.3143 34.4235 56.7863 34.6506C54.2622 34.8776 52.4551 37.7441 52.7528 41.0508C53.0505 44.3584 55.3396 46.8556 57.8656 46.6306Z" fill="#ACADB2"/>
<path d="M55.6757 49.0343C54.1613 49.8299 53.7799 52.0821 54.8204 54.0615C55.8609 56.0429 57.93 57.0037 59.4454 56.2102C60.9568 55.4166 61.3392 53.1644 60.2987 51.185C59.2592 49.2026 57.1882 48.2408 55.6757 49.0343Z" fill="#ACADB2"/>
<path d="M61.6709 46.6455C60.7768 47.1164 60.5508 48.4447 61.1651 49.6146C61.7794 50.7855 63.0031 51.353 63.8973 50.8841C64.7894 50.4151 65.0154 49.0849 64.4031 47.9139C63.7887 46.745 62.566 46.1775 61.6709 46.6455Z" fill="#ACADB2"/>
<path d="M101.483 42.8461C101.018 39.5573 98.6066 37.1796 96.0945 37.5331C93.5844 37.8866 91.9246 40.8408 92.3896 44.1295C92.8526 47.4182 95.2662 49.7959 97.7763 49.4405C100.287 49.086 101.948 46.1328 101.483 42.8461Z" fill="#ACADB2"/>
<path d="M98.1618 35.02C99.6314 34.1488 99.9002 31.8816 98.7602 29.956C97.6221 28.0303 95.5063 27.175 94.0347 28.0442C92.5641 28.9115 92.2963 31.1806 93.4353 33.1063C94.5734 35.0339 96.6892 35.8892 98.1618 35.02Z" fill="#ACADB2"/>
<path d="M92.6463 34.7172C91.9733 33.5792 90.7247 33.0744 89.8535 33.5872C88.9862 34.1009 88.827 35.4401 89.499 36.5782C90.1721 37.7182 91.4227 38.221 92.2919 37.7082C93.1611 37.1945 93.3204 35.8543 92.6463 34.7172Z" fill="#ACADB2"/>
<path d="M80.7487 39.1083C73.9034 33.5504 71.225 25.0951 74.7766 20.2152C78.3272 15.3344 86.7576 15.8801 93.6089 21.433C100.454 26.9869 103.125 35.4482 99.5769 40.324C96.0214 45.2108 87.594 44.6602 80.7487 39.1083Z" fill="url(#paint1_radial_1160_11305)"/>
<path opacity="0.4" d="M52.8883 47.8145C53.7964 44.8414 58.4054 46.0741 63.1916 50.5686C67.9759 55.0631 71.1182 61.1148 70.2141 64.0899C69.3101 67.061 64.6991 65.8323 59.9109 61.3378C55.1286 56.8433 51.9862 50.7856 52.8883 47.8145Z" fill="url(#paint2_radial_1160_11305)"/>
<path d="M72.6797 49.1155C71.7228 35.1292 60.0843 24.0781 45.8551 24.0781C31.6258 24.0781 19.9873 35.1302 19.0324 49.1155C8.4324 49.6402 0 58.3972 0 69.1267C0 80.1937 8.97106 89.1647 20.0361 89.1647H71.675C82.74 89.1647 91.7111 80.1937 91.7111 69.1267C91.7101 58.3972 83.2787 49.6402 72.6797 49.1155Z" fill="url(#paint3_radial_1160_11305)"/>
<path d="M37.519 73.4037L35.6451 72.2949L36.2248 71.9522C36.6849 71.6804 36.843 71.077 36.5776 70.6056C36.3121 70.1346 35.7234 69.9725 35.2639 70.2443L33.7218 71.1559L32.2985 70.3141C32.3599 70.0522 32.3961 69.781 32.3961 69.5C32.3961 69.2193 32.3599 68.9478 32.2985 68.6859L33.7218 67.8436L35.2633 68.7557C35.4147 68.8454 35.5801 68.8886 35.7429 68.8886C36.0753 68.8886 36.3985 68.7117 36.5767 68.3949C36.8422 67.9239 36.6846 67.3208 36.2248 67.0484L35.6445 66.7051L37.519 65.5963C37.9791 65.3239 38.1364 64.7211 37.8712 64.2497C37.6057 63.7781 37.0184 63.616 36.5575 63.889L34.6833 64.9978L34.6841 64.3117C34.6841 63.7669 34.253 63.3259 33.7224 63.3259C33.1914 63.3259 32.7606 63.7669 32.7606 64.3112L32.76 66.1357L31.3356 66.9786C30.9514 66.6045 30.4834 66.3209 29.9617 66.1628V64.4795L31.5035 63.5669C31.9636 63.295 32.1206 62.6922 31.8551 62.2208C31.5896 61.7492 31.0013 61.5871 30.5414 61.8595L29.9617 62.2028V59.9853C29.9617 59.4411 29.5311 59 29.0002 59C28.4687 59 28.0384 59.4411 28.0384 59.9853V62.2028L27.4581 61.8595C26.9986 61.5871 26.4105 61.7489 26.1444 62.2208C25.8789 62.6919 26.0368 63.295 26.4963 63.5669L28.0384 64.4795V66.1628C27.517 66.3209 27.0485 66.6045 26.6642 66.9789L25.2398 66.1354V64.3109C25.2398 63.7667 24.809 63.3256 24.278 63.3256C23.7465 63.3256 23.3165 63.7667 23.3165 64.3109V64.9975L21.4429 63.8887C20.9828 63.6157 20.3947 63.7775 20.1292 64.2494C19.8634 64.7205 20.0207 65.3236 20.4811 65.596L22.3548 66.7048L21.7742 67.0475C21.3146 67.3193 21.1568 67.9227 21.4223 68.3947C21.6002 68.7105 21.9239 68.8877 22.2563 68.8877C22.4192 68.8877 22.5845 68.8454 22.7359 68.7554L24.278 67.8433L25.7019 68.6856C25.6397 68.9475 25.604 69.2187 25.604 69.4997C25.604 69.7804 25.6397 70.052 25.7019 70.3138L24.278 71.1556L22.7368 70.2435C22.2767 69.9705 21.6886 70.1328 21.4231 70.6042C21.1568 71.0753 21.3146 71.6789 21.775 71.9508L22.3553 72.2941L20.4811 73.4034C20.021 73.6752 19.8634 74.2784 20.1292 74.75C20.3071 75.0664 20.6303 75.2431 20.9627 75.2431C21.1261 75.2431 21.2915 75.2005 21.4429 75.1107L23.3157 74.002V74.688C23.3157 75.2322 23.7465 75.6738 24.2772 75.6738C24.8081 75.6738 25.2393 75.2328 25.2393 74.688L25.2398 72.8635L26.6642 72.02C27.0485 72.3947 27.5169 72.6782 28.0379 72.836V74.5199L26.4963 75.432C26.0362 75.7038 25.8784 76.307 26.1444 76.7786C26.4099 77.2502 26.998 77.4123 27.4581 77.1393L28.0384 76.796V79.0141C28.0384 79.5584 28.4692 80 29.0002 80C29.5311 80 29.9617 79.5584 29.9617 79.0141V76.7966L30.5412 77.1399C30.6926 77.2296 30.8579 77.2722 31.0213 77.2722C31.3532 77.2722 31.6772 77.0959 31.8546 76.7792C32.1206 76.3078 31.963 75.705 31.5035 75.4326L29.9614 74.5199V72.836C30.4829 72.6785 30.9514 72.395 31.3356 72.0202L32.76 72.8626V74.6877C32.76 75.2325 33.19 75.6735 33.7218 75.6735C34.2527 75.6735 34.6833 75.2325 34.6833 74.6877V74.0011L36.5575 75.1104C36.7089 75.2002 36.8743 75.2428 37.0371 75.2428C37.3695 75.2428 37.6936 75.0658 37.8712 74.7497C38.1364 74.2786 37.9788 73.6758 37.519 73.4037ZM28.9999 71.0098C28.1879 71.0098 27.5275 70.3327 27.5275 69.5003C27.5275 68.6679 28.1879 67.9908 28.9999 67.9908C29.8119 67.9908 30.4726 68.6679 30.4726 69.5003C30.4726 70.3327 29.8119 71.0098 28.9999 71.0098Z" fill="url(#paint4_radial_1160_11305)"/>
<path d="M71.519 73.4037L69.6451 72.2949L70.2248 71.9522C70.6849 71.6804 70.843 71.077 70.5776 70.6056C70.3121 70.1346 69.7234 69.9725 69.2639 70.2443L67.7218 71.1559L66.2985 70.3141C66.3599 70.0522 66.3961 69.781 66.3961 69.5C66.3961 69.2193 66.3599 68.9478 66.2985 68.6859L67.7218 67.8436L69.2633 68.7557C69.4147 68.8454 69.5801 68.8886 69.7429 68.8886C70.0753 68.8886 70.3985 68.7117 70.5767 68.3949C70.8422 67.9239 70.6846 67.3208 70.2248 67.0484L69.6445 66.7051L71.519 65.5963C71.9791 65.3239 72.1364 64.7211 71.8712 64.2497C71.6057 63.7781 71.0184 63.616 70.5575 63.889L68.6833 64.9978L68.6841 64.3117C68.6841 63.7669 68.253 63.3259 67.7224 63.3259C67.1914 63.3259 66.7606 63.7669 66.7606 64.3112L66.76 66.1357L65.3356 66.9786C64.9514 66.6045 64.4834 66.3209 63.9617 66.1628V64.4795L65.5035 63.5669C65.9636 63.295 66.1206 62.6922 65.8551 62.2208C65.5896 61.7492 65.0013 61.5871 64.5414 61.8595L63.9617 62.2028V59.9853C63.9617 59.4411 63.5311 59 63.0002 59C62.4687 59 62.0384 59.4411 62.0384 59.9853V62.2028L61.4581 61.8595C60.9986 61.5871 60.4105 61.7489 60.1444 62.2208C59.8789 62.6919 60.0368 63.295 60.4963 63.5669L62.0384 64.4795V66.1628C61.517 66.3209 61.0485 66.6045 60.6642 66.9789L59.2398 66.1354V64.3109C59.2398 63.7667 58.809 63.3256 58.278 63.3256C57.7465 63.3256 57.3165 63.7667 57.3165 64.3109V64.9975L55.4429 63.8887C54.9828 63.6157 54.3947 63.7775 54.1292 64.2494C53.8634 64.7205 54.0207 65.3236 54.4811 65.596L56.3548 66.7048L55.7742 67.0475C55.3146 67.3193 55.1568 67.9227 55.4223 68.3947C55.6002 68.7105 55.9239 68.8877 56.2563 68.8877C56.4192 68.8877 56.5845 68.8454 56.7359 68.7554L58.278 67.8433L59.7019 68.6856C59.6397 68.9475 59.604 69.2187 59.604 69.4997C59.604 69.7804 59.6397 70.052 59.7019 70.3138L58.278 71.1556L56.7368 70.2435C56.2767 69.9705 55.6886 70.1328 55.4231 70.6042C55.1568 71.0753 55.3146 71.6789 55.775 71.9508L56.3553 72.2941L54.4811 73.4034C54.021 73.6752 53.8634 74.2784 54.1292 74.75C54.3071 75.0664 54.6303 75.2431 54.9627 75.2431C55.1261 75.2431 55.2915 75.2005 55.4429 75.1107L57.3157 74.002V74.688C57.3157 75.2322 57.7465 75.6738 58.2772 75.6738C58.8081 75.6738 59.2393 75.2328 59.2393 74.688L59.2398 72.8635L60.6642 72.02C61.0485 72.3947 61.5169 72.6782 62.0379 72.836V74.5199L60.4963 75.432C60.0362 75.7038 59.8784 76.307 60.1444 76.7786C60.4099 77.2502 60.998 77.4123 61.4581 77.1393L62.0384 76.796V79.0141C62.0384 79.5584 62.4692 80 63.0002 80C63.5311 80 63.9617 79.5584 63.9617 79.0141V76.7966L64.5412 77.1399C64.6926 77.2296 64.8579 77.2722 65.0213 77.2722C65.3532 77.2722 65.6772 77.0959 65.8546 76.7792C66.1206 76.3078 65.963 75.705 65.5035 75.4326L63.9614 74.5199V72.836C64.4829 72.6785 64.9514 72.395 65.3356 72.0202L66.76 72.8626V74.6877C66.76 75.2325 67.19 75.6735 67.7218 75.6735C68.2527 75.6735 68.6833 75.2325 68.6833 74.6877V74.0011L70.5575 75.1104C70.7089 75.2002 70.8743 75.2428 71.0371 75.2428C71.3695 75.2428 71.6936 75.0658 71.8712 74.7497C72.1364 74.2786 71.9788 73.6758 71.519 73.4037ZM62.9999 71.0098C62.1879 71.0098 61.5275 70.3327 61.5275 69.5003C61.5275 68.6679 62.1879 67.9908 62.9999 67.9908C63.8119 67.9908 64.4726 68.6679 64.4726 69.5003C64.4726 70.3327 63.8119 71.0098 62.9999 71.0098Z" fill="url(#paint5_radial_1160_11305)"/>
<path d="M45.8568 51.6084C38.3136 45.4879 35.3673 36.1714 39.2783 30.7947C43.1913 25.418 52.477 26.0224 60.0243 32.1369C67.5636 38.2553 70.5078 47.5759 66.5998 52.9506C62.6838 58.3293 53.3981 57.7239 45.8568 51.6084Z" fill="url(#paint6_radial_1160_11305)"/>
<path opacity="0.4" d="M72.8219 69.6941C66.8926 64.885 64.5787 57.5628 67.6513 53.3371C70.726 49.1115 78.0243 49.5874 83.9536 54.3915C89.8809 59.2007 92.1928 66.5269 89.1221 70.7486C86.0455 74.9752 78.7472 74.5013 72.8219 69.6941Z" fill="url(#paint7_radial_1160_11305)"/>
<path opacity="0.2" d="M14.3256 70.3662C9.95055 63.5418 4.87057 60.2581 2.96683 63.0251C1.07106 65.7881 3.07536 73.5673 7.44739 80.3927C11.8254 87.2171 16.9084 90.5028 18.8061 87.7359C20.7019 84.9619 18.6986 77.1926 14.3256 70.3662Z" fill="url(#paint8_radial_1160_11305)"/>
<defs>
<radialGradient id="paint0_radial_1160_11305" cx="0" cy="0" r="1" gradientUnits="userSpaceOnUse" gradientTransform="translate(82.8 25.0163) rotate(180) scale(51.0366 51.0367)">
<stop stop-color="#F8F8F8"/>
<stop offset="0.1559" stop-color="#EDE9F1"/>
<stop offset="1" stop-color="#9B9DA2"/>
</radialGradient>
<radialGradient id="paint1_radial_1160_11305" cx="0" cy="0" r="1" gradientUnits="userSpaceOnUse" gradientTransform="translate(87.1766 30.2688) rotate(126.034) scale(10.9288 15.943)">
<stop stop-color="white"/>
<stop offset="1" stop-color="white" stop-opacity="0"/>
</radialGradient>
<radialGradient id="paint2_radial_1160_11305" cx="0" cy="0" r="1" gradientUnits="userSpaceOnUse" gradientTransform="translate(61.5509 55.9528) rotate(-136.79) scale(11.885 5.048)">
<stop stop-color="white"/>
<stop offset="1" stop-color="white" stop-opacity="0"/>
</radialGradient>
<radialGradient id="paint3_radial_1160_11305" cx="0" cy="0" r="1" gradientUnits="userSpaceOnUse" gradientTransform="translate(57.4191 37.7917) rotate(180) scale(69.9537 51.1012)">
<stop stop-color="white"/>
<stop offset="0.198" stop-color="#D5F3FF"/>
<stop offset="1" stop-color="#85BCF1"/>
</radialGradient>
<radialGradient id="paint4_radial_1160_11305" cx="0" cy="0" r="1" gradientUnits="userSpaceOnUse" gradientTransform="translate(34.8755 65.3113) scale(17.4717 17.9091)">
<stop stop-color="#28CBE9"/>
<stop offset="1" stop-color="#0A4FBB"/>
</radialGradient>
<radialGradient id="paint5_radial_1160_11305" cx="0" cy="0" r="1" gradientUnits="userSpaceOnUse" gradientTransform="translate(68.8755 65.3113) scale(17.4717 17.9091)">
<stop stop-color="#28CBE9"/>
<stop offset="1" stop-color="#0A4FBB"/>
</radialGradient>
<radialGradient id="paint6_radial_1160_11305" cx="0" cy="0" r="1" gradientUnits="userSpaceOnUse" gradientTransform="translate(52.9387 41.8707) rotate(126.034) scale(12.0399 17.564)">
<stop stop-color="white"/>
<stop offset="1" stop-color="white" stop-opacity="0"/>
</radialGradient>
<radialGradient id="paint7_radial_1160_11305" cx="0" cy="0" r="1" gradientUnits="userSpaceOnUse" gradientTransform="translate(78.3866 62.0419) rotate(126.034) scale(9.46149 13.8025)">
<stop stop-color="white"/>
<stop offset="1" stop-color="white" stop-opacity="0"/>
</radialGradient>
<radialGradient id="paint8_radial_1160_11305" cx="0" cy="0" r="1" gradientUnits="userSpaceOnUse" gradientTransform="translate(10.8866 75.3646) rotate(-25.7092) scale(4.84992 14.1185)">
<stop stop-color="white"/>
<stop offset="1" stop-color="white" stop-opacity="0"/>
</radialGradient>
</defs>
</svg>
