<svg width="104" height="104" viewBox="0 0 104 104" fill="none" xmlns="http://www.w3.org/2000/svg">
<path d="M78.995 44.146C78.036 30.099 66.345 19 52.054 19C37.764 19 26.073 30.1 25.114 44.146C14.469 44.673 6 53.47 6 64.244C6 75.359 15.009 84.369 26.124 84.369H77.986C89.1 84.369 98.11 75.359 98.11 64.244C98.11 53.471 89.64 44.674 78.995 44.146Z" fill="url(#paint0_radial_1160_11417)"/>
<path d="M43.519 68.4037L41.6451 67.2949L42.2248 66.9522C42.6849 66.6804 42.843 66.077 42.5776 65.6056C42.3121 65.1346 41.7234 64.9725 41.2639 65.2443L39.7218 66.1559L38.2985 65.3141C38.3599 65.0522 38.3961 64.781 38.3961 64.5C38.3961 64.2193 38.3599 63.9478 38.2985 63.6859L39.7218 62.8436L41.2633 63.7557C41.4147 63.8454 41.5801 63.8886 41.7429 63.8886C42.0753 63.8886 42.3985 63.7117 42.5767 63.3949C42.8422 62.9239 42.6846 62.3208 42.2248 62.0484L41.6445 61.7051L43.519 60.5963C43.9791 60.3239 44.1364 59.7211 43.8712 59.2497C43.6057 58.7781 43.0184 58.616 42.5575 58.889L40.6833 59.9978L40.6841 59.3117C40.6841 58.7669 40.253 58.3259 39.7224 58.3259C39.1914 58.3259 38.7606 58.7669 38.7606 59.3112L38.76 61.1357L37.3356 61.9786C36.9514 61.6045 36.4834 61.3209 35.9617 61.1628V59.4795L37.5035 58.5669C37.9636 58.295 38.1206 57.6922 37.8551 57.2208C37.5896 56.7492 37.0013 56.5871 36.5414 56.8595L35.9617 57.2028V54.9853C35.9617 54.4411 35.5311 54 35.0002 54C34.4687 54 34.0384 54.4411 34.0384 54.9853V57.2028L33.4581 56.8595C32.9986 56.5871 32.4105 56.7489 32.1444 57.2208C31.8789 57.6919 32.0368 58.295 32.4963 58.5669L34.0384 59.4795V61.1628C33.517 61.3209 33.0485 61.6045 32.6642 61.9789L31.2398 61.1354V59.3109C31.2398 58.7667 30.809 58.3256 30.278 58.3256C29.7465 58.3256 29.3165 58.7667 29.3165 59.3109V59.9975L27.4429 58.8887C26.9828 58.6157 26.3947 58.7775 26.1292 59.2494C25.8634 59.7205 26.0207 60.3236 26.4811 60.596L28.3548 61.7048L27.7742 62.0475C27.3146 62.3193 27.1568 62.9227 27.4223 63.3947C27.6002 63.7105 27.9239 63.8877 28.2563 63.8877C28.4192 63.8877 28.5845 63.8454 28.7359 63.7554L30.278 62.8433L31.7019 63.6856C31.6397 63.9475 31.604 64.2187 31.604 64.4997C31.604 64.7804 31.6397 65.052 31.7019 65.3138L30.278 66.1556L28.7368 65.2435C28.2767 64.9705 27.6886 65.1328 27.4231 65.6042C27.1568 66.0753 27.3146 66.6789 27.775 66.9508L28.3553 67.2941L26.4811 68.4034C26.021 68.6752 25.8634 69.2784 26.1292 69.75C26.3071 70.0664 26.6303 70.2431 26.9627 70.2431C27.1261 70.2431 27.2915 70.2005 27.4429 70.1107L29.3157 69.002V69.688C29.3157 70.2322 29.7465 70.6738 30.2772 70.6738C30.8081 70.6738 31.2393 70.2328 31.2393 69.688L31.2398 67.8635L32.6642 67.02C33.0485 67.3947 33.5169 67.6782 34.0379 67.836V69.5199L32.4963 70.432C32.0362 70.7038 31.8784 71.307 32.1444 71.7786C32.4099 72.2502 32.998 72.4123 33.4581 72.1393L34.0384 71.796V74.0141C34.0384 74.5584 34.4692 75 35.0002 75C35.5311 75 35.9617 74.5584 35.9617 74.0141V71.7966L36.5412 72.1399C36.6926 72.2296 36.8579 72.2722 37.0213 72.2722C37.3532 72.2722 37.6772 72.0959 37.8546 71.7792C38.1206 71.3078 37.963 70.705 37.5035 70.4326L35.9614 69.5199V67.836C36.4829 67.6785 36.9514 67.395 37.3356 67.0202L38.76 67.8626V69.6877C38.76 70.2325 39.19 70.6735 39.7218 70.6735C40.2527 70.6735 40.6833 70.2325 40.6833 69.6877V69.0011L42.5575 70.1104C42.7089 70.2002 42.8743 70.2428 43.0371 70.2428C43.3695 70.2428 43.6936 70.0658 43.8712 69.7497C44.1364 69.2786 43.9788 68.6758 43.519 68.4037ZM34.9999 66.0098C34.1879 66.0098 33.5275 65.3327 33.5275 64.5003C33.5275 63.6679 34.1879 62.9908 34.9999 62.9908C35.8119 62.9908 36.4726 63.6679 36.4726 64.5003C36.4726 65.3327 35.8119 66.0098 34.9999 66.0098Z" fill="url(#paint1_radial_1160_11417)"/>
<path d="M77.519 68.4037L75.6451 67.2949L76.2248 66.9522C76.6849 66.6804 76.843 66.077 76.5776 65.6056C76.3121 65.1346 75.7234 64.9725 75.2639 65.2443L73.7218 66.1559L72.2985 65.3141C72.3599 65.0522 72.3961 64.781 72.3961 64.5C72.3961 64.2193 72.3599 63.9478 72.2985 63.6859L73.7218 62.8436L75.2633 63.7557C75.4147 63.8454 75.5801 63.8886 75.7429 63.8886C76.0753 63.8886 76.3985 63.7117 76.5767 63.3949C76.8422 62.9239 76.6846 62.3208 76.2248 62.0484L75.6445 61.7051L77.519 60.5963C77.9791 60.3239 78.1364 59.7211 77.8712 59.2497C77.6057 58.7781 77.0184 58.616 76.5575 58.889L74.6833 59.9978L74.6841 59.3117C74.6841 58.7669 74.253 58.3259 73.7224 58.3259C73.1914 58.3259 72.7606 58.7669 72.7606 59.3112L72.76 61.1357L71.3356 61.9786C70.9514 61.6045 70.4834 61.3209 69.9617 61.1628V59.4795L71.5035 58.5669C71.9636 58.295 72.1206 57.6922 71.8551 57.2208C71.5896 56.7492 71.0013 56.5871 70.5414 56.8595L69.9617 57.2028V54.9853C69.9617 54.4411 69.5311 54 69.0002 54C68.4687 54 68.0384 54.4411 68.0384 54.9853V57.2028L67.4581 56.8595C66.9986 56.5871 66.4105 56.7489 66.1444 57.2208C65.8789 57.6919 66.0368 58.295 66.4963 58.5669L68.0384 59.4795V61.1628C67.517 61.3209 67.0485 61.6045 66.6642 61.9789L65.2398 61.1354V59.3109C65.2398 58.7667 64.809 58.3256 64.278 58.3256C63.7465 58.3256 63.3165 58.7667 63.3165 59.3109V59.9975L61.4429 58.8887C60.9828 58.6157 60.3947 58.7775 60.1292 59.2494C59.8634 59.7205 60.0207 60.3236 60.4811 60.596L62.3548 61.7048L61.7742 62.0475C61.3146 62.3193 61.1568 62.9227 61.4223 63.3947C61.6002 63.7105 61.9239 63.8877 62.2563 63.8877C62.4192 63.8877 62.5845 63.8454 62.7359 63.7554L64.278 62.8433L65.7019 63.6856C65.6397 63.9475 65.604 64.2187 65.604 64.4997C65.604 64.7804 65.6397 65.052 65.7019 65.3138L64.278 66.1556L62.7368 65.2435C62.2767 64.9705 61.6886 65.1328 61.4231 65.6042C61.1568 66.0753 61.3146 66.6789 61.775 66.9508L62.3553 67.2941L60.4811 68.4034C60.021 68.6752 59.8634 69.2784 60.1292 69.75C60.3071 70.0664 60.6303 70.2431 60.9627 70.2431C61.1261 70.2431 61.2915 70.2005 61.4429 70.1107L63.3157 69.002V69.688C63.3157 70.2322 63.7465 70.6738 64.2772 70.6738C64.8081 70.6738 65.2393 70.2328 65.2393 69.688L65.2398 67.8635L66.6642 67.02C67.0485 67.3947 67.5169 67.6782 68.0379 67.836V69.5199L66.4963 70.432C66.0362 70.7038 65.8784 71.307 66.1444 71.7786C66.4099 72.2502 66.998 72.4123 67.4581 72.1393L68.0384 71.796V74.0141C68.0384 74.5584 68.4692 75 69.0002 75C69.5311 75 69.9617 74.5584 69.9617 74.0141V71.7966L70.5412 72.1399C70.6926 72.2296 70.8579 72.2722 71.0213 72.2722C71.3532 72.2722 71.6772 72.0959 71.8546 71.7792C72.1206 71.3078 71.963 70.705 71.5035 70.4326L69.9614 69.5199V67.836C70.4829 67.6785 70.9514 67.395 71.3356 67.0202L72.76 67.8626V69.6877C72.76 70.2325 73.19 70.6735 73.7218 70.6735C74.2527 70.6735 74.6833 70.2325 74.6833 69.6877V69.0011L76.5575 70.1104C76.7089 70.2002 76.8743 70.2428 77.0371 70.2428C77.3695 70.2428 77.6936 70.0658 77.8712 69.7497C78.1364 69.2786 77.9788 68.6758 77.519 68.4037ZM68.9999 66.0098C68.1879 66.0098 67.5275 65.3327 67.5275 64.5003C67.5275 63.6679 68.1879 62.9908 68.9999 62.9908C69.8119 62.9908 70.4726 63.6679 70.4726 64.5003C70.4726 65.3327 69.8119 66.0098 68.9999 66.0098Z" fill="url(#paint2_radial_1160_11417)"/>
<path d="M52.0569 46.6501C44.4819 40.5041 41.5219 31.1461 45.4499 25.7481C49.3799 20.3461 58.7059 20.9531 66.2849 27.0941C73.8579 33.2401 76.814 42.6021 72.889 47.9981C68.958 53.4001 59.6309 52.7931 52.0569 46.6501Z" fill="url(#paint3_radial_1160_11417)"/>
<path opacity="0.4" d="M79.1379 64.8161C73.1849 59.9841 70.8589 52.6311 73.9449 48.3861C77.0339 44.1421 84.3639 44.6201 90.3199 49.4471C96.2719 54.2751 98.5939 61.6331 95.5099 65.8731C92.4199 70.1191 85.0899 69.6421 79.1379 64.8161Z" fill="url(#paint4_radial_1160_11417)"/>
<path opacity="0.2" d="M20.388 65.49C15.995 58.636 10.892 55.338 8.98102 58.117C7.07702 60.894 9.09102 68.707 13.481 75.562C17.877 82.416 22.983 85.716 24.888 82.935C26.794 80.15 24.781 72.346 20.388 65.49Z" fill="url(#paint5_radial_1160_11417)"/>
<defs>
<radialGradient id="paint0_radial_1160_11417" cx="0" cy="0" r="1" gradientUnits="userSpaceOnUse" gradientTransform="translate(63.6695 32.7764) rotate(180) scale(70.2572 51.3229)">
<stop stop-color="white"/>
<stop offset="0.198" stop-color="#D5F3FF"/>
<stop offset="1" stop-color="#85BCF1"/>
</radialGradient>
<radialGradient id="paint1_radial_1160_11417" cx="0" cy="0" r="1" gradientUnits="userSpaceOnUse" gradientTransform="translate(40.8755 60.3113) scale(17.4717 17.9091)">
<stop stop-color="#28CBE9"/>
<stop offset="1" stop-color="#0A4FBB"/>
</radialGradient>
<radialGradient id="paint2_radial_1160_11417" cx="0" cy="0" r="1" gradientUnits="userSpaceOnUse" gradientTransform="translate(74.8755 60.3113) scale(17.4717 17.9091)">
<stop stop-color="#28CBE9"/>
<stop offset="1" stop-color="#0A4FBB"/>
</radialGradient>
<radialGradient id="paint3_radial_1160_11417" cx="0" cy="0" r="1" gradientUnits="userSpaceOnUse" gradientTransform="translate(59.1701 36.8714) rotate(126.034) scale(12.0919 17.6398)">
<stop stop-color="white"/>
<stop offset="1" stop-color="white" stop-opacity="0"/>
</radialGradient>
<radialGradient id="paint4_radial_1160_11417" cx="0" cy="0" r="1" gradientUnits="userSpaceOnUse" gradientTransform="translate(84.7269 57.1301) rotate(126.034) scale(9.50311 13.8632)">
<stop stop-color="white"/>
<stop offset="1" stop-color="white" stop-opacity="0"/>
</radialGradient>
<radialGradient id="paint5_radial_1160_11417" cx="0" cy="0" r="1" gradientUnits="userSpaceOnUse" gradientTransform="translate(16.9347 70.5213) rotate(-25.7092) scale(4.87116 14.1804)">
<stop stop-color="white"/>
<stop offset="1" stop-color="white" stop-opacity="0"/>
</radialGradient>
</defs>
</svg>
