<svg width="104" height="104" viewBox="0 0 104 104" fill="none" xmlns="http://www.w3.org/2000/svg">
<path d="M46.353 75.5499H45.445H41.992L49.181 61.5749C49.49 60.9659 49.745 60.2719 49.894 59.5749C50.818 55.2369 48.05 50.9729 43.712 50.0499C39.376 49.1259 35.112 51.8939 34.189 56.2319L29.382 78.8079L29.234 79.5009C29.17 79.8209 29.134 80.1509 29.134 80.4889C29.134 83.1769 31.314 85.3579 34.001 85.3579H39.321L36.45 97.3329C36.347 97.7649 36.505 98.2329 36.886 98.5109C37.392 98.8779 38.097 98.7649 38.466 98.2609L49.9 82.5049C50.423 81.7819 50.734 80.8919 50.734 79.9309C50.734 77.5109 48.773 75.5499 46.353 75.5499Z" fill="url(#paint0_linear_1012_28657)"/>
<path d="M70.972 75.5499H70.0639H66.6109L73.8 61.5749C74.109 60.9659 74.3649 60.2719 74.5129 59.5749C75.4369 55.2369 72.6689 50.9729 68.3329 50.0499C63.9949 49.1259 59.7309 51.8939 58.8079 56.2319L54.0029 78.8079L53.8529 79.5009C53.7869 79.8209 53.7529 80.1509 53.7529 80.4889C53.7529 83.1769 55.9329 85.3579 58.6219 85.3579H63.9419L61.071 97.3329C60.968 97.7649 61.1239 98.2329 61.5049 98.5109C62.0109 98.8779 62.7179 98.7649 63.0849 98.2609L74.519 82.5049C75.042 81.7819 75.3549 80.8919 75.3549 79.9309C75.3549 77.5109 73.392 75.5499 70.972 75.5499Z" fill="url(#paint1_linear_1012_28657)"/>
<path d="M78.995 30.146C78.036 16.099 66.345 5 52.054 5C37.763 5 26.074 16.1 25.113 30.146C14.471 30.671 6 39.468 6 50.244C6 61.359 15.01 70.367 26.123 70.367H77.986C89.099 70.367 98.109 61.359 98.109 50.244C98.109 39.468 89.64 30.671 78.995 30.146Z" fill="url(#paint2_radial_1012_28657)"/>
<path opacity="0.6" d="M53.947 32.6469C46.371 26.5009 43.412 17.1449 47.34 11.7449C51.27 6.34494 60.596 6.95195 68.176 13.0929C75.748 19.2379 78.703 28.6009 74.78 33.9949C70.847 39.3999 61.521 38.792 53.947 32.6469Z" fill="url(#paint3_radial_1012_28657)"/>
<path opacity="0.4" d="M79.1359 50.813C73.1829 45.983 70.8589 38.629 73.9449 34.385C77.0329 30.141 84.3628 30.617 90.3178 35.444C96.2708 40.274 98.5929 47.632 95.5089 51.872C92.4189 56.118 85.0889 55.642 79.1359 50.813Z" fill="url(#paint4_radial_1012_28657)"/>
<path opacity="0.2" d="M20.388 51.4889C15.993 44.6339 10.8919 41.3369 8.97994 44.1159C7.07594 46.8909 9.08894 54.7039 13.4799 61.5589C17.8769 68.4129 22.982 71.7129 24.888 68.9319C26.792 66.1499 24.781 58.3449 20.388 51.4889Z" fill="url(#paint5_radial_1012_28657)"/>
<defs>
<linearGradient id="paint0_linear_1012_28657" x1="33.0606" y1="97.9601" x2="44.5848" y2="61.671" gradientUnits="userSpaceOnUse">
<stop offset="0.1559" stop-color="#FFE036"/>
<stop offset="1" stop-color="#FA761C"/>
</linearGradient>
<linearGradient id="paint1_linear_1012_28657" x1="57.6801" y1="97.9602" x2="69.2045" y2="61.6707" gradientUnits="userSpaceOnUse">
<stop offset="0.1559" stop-color="#FFE036"/>
<stop offset="1" stop-color="#FA761C"/>
</linearGradient>
<radialGradient id="paint2_radial_1012_28657" cx="0" cy="0" r="1" gradientUnits="userSpaceOnUse" gradientTransform="translate(63.6687 18.774) rotate(180) scale(70.2558 51.3219)">
<stop stop-color="#B6CCD2"/>
<stop offset="0.198" stop-color="#97B6BE"/>
<stop offset="1" stop-color="#5D87B4"/>
</radialGradient>
<radialGradient id="paint3_radial_1012_28657" cx="0" cy="0" r="1" gradientUnits="userSpaceOnUse" gradientTransform="translate(61.0597 22.8691) rotate(126.034) scale(12.0916 17.6393)">
<stop stop-color="white"/>
<stop offset="1" stop-color="white" stop-opacity="0"/>
</radialGradient>
<radialGradient id="paint4_radial_1012_28657" cx="0" cy="0" r="1" gradientUnits="userSpaceOnUse" gradientTransform="translate(84.7268 43.1288) rotate(126.034) scale(9.50283 13.8628)">
<stop stop-color="white"/>
<stop offset="1" stop-color="white" stop-opacity="0"/>
</radialGradient>
<radialGradient id="paint5_radial_1012_28657" cx="0" cy="0" r="1" gradientUnits="userSpaceOnUse" gradientTransform="translate(16.9323 56.5128) rotate(-25.7092) scale(4.87096 14.1798)">
<stop stop-color="white"/>
<stop offset="1" stop-color="white" stop-opacity="0"/>
</radialGradient>
</defs>
</svg>
