<svg width="104" height="104" viewBox="0 0 104 104" fill="none" xmlns="http://www.w3.org/2000/svg">
<path d="M10 52.0016C10 75.1971 28.8059 94 52.0015 94C75.1971 94 94.0031 75.1971 94.0031 52.0016C94.0031 28.806 75.1971 10 52.0015 10C28.8059 10 10 28.806 10 52.0016Z" fill="url(#paint0_radial_1160_11224)"/>
<path d="M22.6543 59.4339C26.6006 59.0777 29.4207 54.601 28.9556 49.4321C28.4936 44.2647 24.9175 40.3635 20.9681 40.7182C17.0249 41.0728 14.2017 45.5511 14.6668 50.7169C15.1319 55.8843 18.708 59.7855 22.6543 59.4339Z" fill="#ACADB2"/>
<path d="M19.2332 63.189C16.8673 64.4319 16.2715 67.9504 17.897 71.0428C19.5225 74.1382 22.7549 75.6392 25.1223 74.3995C27.4836 73.1598 28.0809 69.6412 26.4554 66.5489C24.8314 63.4519 21.596 61.9493 19.2332 63.189Z" fill="#ACADB2"/>
<path d="M28.5989 59.4572C27.2021 60.1929 26.849 62.2679 27.8087 64.0957C28.7684 65.9249 30.6802 66.8115 32.077 66.0789C33.4707 65.3463 33.8238 63.2681 32.8672 61.4388C31.9075 59.6127 29.9973 58.7261 28.5989 59.4572Z" fill="#ACADB2"/>
<path d="M90.7956 53.5215C90.0692 48.3837 86.3018 44.6692 82.3773 45.2214C78.4559 45.7736 75.8628 50.3888 76.5893 55.5266C77.3126 60.6644 81.0831 64.3789 85.0046 63.8236C88.9275 63.2699 91.522 58.6562 90.7956 53.5215Z" fill="#ACADB2"/>
<path d="M85.6072 41.2951C87.9031 39.934 88.3231 36.3921 86.542 33.3838C84.7641 30.3755 81.4587 29.0393 79.1597 30.3972C76.8622 31.7521 76.4438 35.2971 78.2233 38.3054C80.0012 41.3168 83.3066 42.653 85.6072 41.2951Z" fill="#ACADB2"/>
<path d="M76.9906 40.8222C75.9391 39.0443 73.9885 38.2557 72.6275 39.0568C71.2726 39.8594 71.0238 41.9516 72.0738 43.7295C73.1253 45.5105 75.079 46.296 76.4369 45.4949C77.7949 44.6923 78.0437 42.5986 76.9906 40.8222Z" fill="#ACADB2"/>
<path d="M58.4033 47.6819C47.7092 38.9991 43.5249 25.7898 49.0734 18.1663C54.6203 10.5413 67.7907 11.3937 78.4941 20.0688C89.1881 28.7453 93.3599 41.9639 87.8177 49.5812C82.263 57.2156 69.0973 56.3554 58.4033 47.6819Z" fill="url(#paint1_radial_1160_11224)"/>
<path opacity="0.4" d="M14.878 61.2834C16.2966 56.6386 23.497 58.5643 30.9743 65.5858C38.4484 72.6074 43.3576 82.0617 41.9452 86.7095C40.5328 91.3511 33.3293 89.4316 25.8489 82.4101C18.3779 75.3886 13.4687 65.925 14.878 61.2834Z" fill="url(#paint2_radial_1160_11224)"/>
<defs>
<radialGradient id="paint0_radial_1160_11224" cx="0" cy="0" r="1" gradientUnits="userSpaceOnUse" gradientTransform="translate(61.6078 25.667) rotate(180) scale(79.7318 79.7319)">
<stop stop-color="#F8F8F8"/>
<stop offset="0.1559" stop-color="#EDE9F1"/>
<stop offset="1" stop-color="#9B9DA2"/>
</radialGradient>
<radialGradient id="paint1_radial_1160_11224" cx="0" cy="0" r="1" gradientUnits="userSpaceOnUse" gradientTransform="translate(68.4453 33.8724) rotate(126.034) scale(17.0734 24.9069)">
<stop stop-color="white"/>
<stop offset="1" stop-color="white" stop-opacity="0"/>
</radialGradient>
<radialGradient id="paint2_radial_1160_11224" cx="0" cy="0" r="1" gradientUnits="userSpaceOnUse" gradientTransform="translate(28.411 73.9973) rotate(-136.79) scale(18.5672 7.88623)">
<stop stop-color="white"/>
<stop offset="1" stop-color="white" stop-opacity="0"/>
</radialGradient>
</defs>
</svg>
