<svg width="104" height="104" viewBox="0 0 104 104" fill="none" xmlns="http://www.w3.org/2000/svg">
<path d="M82.21 75.705L73.825 76.256L72.246 84.508L64.18 82.158L59.874 89.371L53.097 84.404L46.583 89.711L41.915 82.727L33.979 85.484L31.981 77.324L23.579 77.201L24.493 68.85L16.64 65.861L20.356 58.324L14 52.83L20.067 47.02L15.973 39.684L23.662 36.299L22.324 28.006L30.707 27.455L32.287 19.203L40.353 21.553L44.659 14.338L51.436 19.305L57.95 14L62.618 20.983L70.554 18.225L72.553 26.387L80.954 26.51L80.04 34.859L87.893 37.848L84.178 45.385L90.534 50.879L84.467 56.69L88.561 64.025L80.871 67.41L82.21 75.705Z" fill="url(#paint0_linear_1012_28447)"/>
<path d="M23.9231 51.854C23.9231 67.508 36.6131 80.2 52.2671 80.2C67.9211 80.2 80.6121 67.509 80.6121 51.854C80.6121 36.202 67.9221 23.512 52.2671 23.512C36.6131 23.512 23.9231 36.201 23.9231 51.854Z" fill="url(#paint1_radial_1012_28447)"/>
<path d="M56.5861 48.94C49.3671 43.081 46.5471 34.166 50.2901 29.02C54.0341 23.874 62.9211 24.454 70.1431 30.305C77.3601 36.16 80.1761 45.08 76.4361 50.223C72.6901 55.371 63.8021 54.791 56.5861 48.94Z" fill="url(#paint2_radial_1012_28447)"/>
<path opacity="0.4" d="M27.2151 58.1191C28.1731 54.9841 33.0321 56.2831 38.0771 61.0211C43.1221 65.7591 46.4331 72.1381 45.4811 75.2771C44.5271 78.4101 39.6661 77.1131 34.6191 72.3751C29.5761 67.6351 26.2621 61.2501 27.2151 58.1191Z" fill="url(#paint3_radial_1012_28447)"/>
<defs>
<linearGradient id="paint0_linear_1012_28447" x1="87.1586" y1="12.8651" x2="19.9005" y2="88.0241" gradientUnits="userSpaceOnUse">
<stop stop-color="#FFBA24"/>
<stop offset="1" stop-color="#FF5500"/>
</linearGradient>
<radialGradient id="paint1_radial_1012_28447" cx="0" cy="0" r="1" gradientUnits="userSpaceOnUse" gradientTransform="translate(58.7493 34.0845) rotate(180) scale(53.8068 53.8068)">
<stop stop-color="#FFF4C3"/>
<stop offset="0.1559" stop-color="#FFE036"/>
<stop offset="1" stop-color="#FA761C"/>
</radialGradient>
<radialGradient id="paint2_radial_1012_28447" cx="0" cy="0" r="1" gradientUnits="userSpaceOnUse" gradientTransform="translate(63.3631 39.6209) rotate(126.034) scale(11.5221 16.8086)">
<stop stop-color="white"/>
<stop offset="1" stop-color="white" stop-opacity="0"/>
</radialGradient>
<radialGradient id="paint3_radial_1012_28447" cx="0" cy="0" r="1" gradientUnits="userSpaceOnUse" gradientTransform="translate(36.3478 66.6985) rotate(-136.79) scale(12.5293 5.32166)">
<stop stop-color="white"/>
<stop offset="1" stop-color="white" stop-opacity="0"/>
</radialGradient>
</defs>
</svg>
