<svg width="104" height="104" viewBox="0 0 104 104" fill="none" xmlns="http://www.w3.org/2000/svg">
<g clip-path="url(#clip0_1012_28561)">
<path d="M78.6161 35.146C77.6571 21.099 65.9661 10 51.6751 10C37.3851 10 25.6941 21.1 24.7351 35.146C14.0901 35.671 5.62109 44.468 5.62109 55.244C5.62109 66.357 14.6301 75.367 25.7451 75.367H77.6071C88.7211 75.367 97.7311 66.357 97.7311 55.244C97.7311 44.468 89.2611 35.671 78.6161 35.146Z" fill="url(#paint0_radial_1012_28561)"/>
<path d="M43.519 59.4037L41.6451 58.2949L42.2248 57.9522C42.6849 57.6804 42.843 57.077 42.5776 56.6056C42.3121 56.1346 41.7234 55.9725 41.2639 56.2443L39.7218 57.1559L38.2985 56.3141C38.3599 56.0522 38.3961 55.781 38.3961 55.5C38.3961 55.2193 38.3599 54.9478 38.2985 54.6859L39.7218 53.8436L41.2633 54.7557C41.4147 54.8454 41.5801 54.8886 41.7429 54.8886C42.0753 54.8886 42.3985 54.7117 42.5767 54.3949C42.8422 53.9239 42.6846 53.3208 42.2248 53.0484L41.6445 52.7051L43.519 51.5963C43.9791 51.3239 44.1364 50.7211 43.8712 50.2497C43.6057 49.7781 43.0184 49.616 42.5575 49.889L40.6833 50.9978L40.6841 50.3117C40.6841 49.7669 40.253 49.3259 39.7224 49.3259C39.1914 49.3259 38.7606 49.7669 38.7606 50.3112L38.76 52.1357L37.3356 52.9786C36.9514 52.6045 36.4834 52.3209 35.9617 52.1628V50.4795L37.5035 49.5669C37.9636 49.295 38.1206 48.6922 37.8551 48.2208C37.5896 47.7492 37.0013 47.5871 36.5414 47.8595L35.9617 48.2028V45.9853C35.9617 45.4411 35.5311 45 35.0002 45C34.4687 45 34.0384 45.4411 34.0384 45.9853V48.2028L33.4581 47.8595C32.9986 47.5871 32.4105 47.7489 32.1444 48.2208C31.8789 48.6919 32.0368 49.295 32.4963 49.5669L34.0384 50.4795V52.1628C33.517 52.3209 33.0485 52.6045 32.6642 52.9789L31.2398 52.1354V50.3109C31.2398 49.7667 30.809 49.3256 30.278 49.3256C29.7465 49.3256 29.3165 49.7667 29.3165 50.3109V50.9975L27.4429 49.8887C26.9828 49.6157 26.3947 49.7775 26.1292 50.2494C25.8634 50.7205 26.0207 51.3236 26.4811 51.596L28.3548 52.7048L27.7742 53.0475C27.3146 53.3193 27.1568 53.9227 27.4223 54.3947C27.6002 54.7105 27.9239 54.8877 28.2563 54.8877C28.4192 54.8877 28.5845 54.8454 28.7359 54.7554L30.278 53.8433L31.7019 54.6856C31.6397 54.9475 31.604 55.2187 31.604 55.4997C31.604 55.7804 31.6397 56.052 31.7019 56.3138L30.278 57.1556L28.7368 56.2435C28.2767 55.9705 27.6886 56.1328 27.4231 56.6042C27.1568 57.0753 27.3146 57.6789 27.775 57.9508L28.3553 58.2941L26.4811 59.4034C26.021 59.6752 25.8634 60.2784 26.1292 60.75C26.3071 61.0664 26.6303 61.2431 26.9627 61.2431C27.1261 61.2431 27.2915 61.2005 27.4429 61.1107L29.3157 60.002V60.688C29.3157 61.2322 29.7465 61.6738 30.2772 61.6738C30.8081 61.6738 31.2393 61.2328 31.2393 60.688L31.2398 58.8635L32.6642 58.02C33.0485 58.3947 33.5169 58.6782 34.0379 58.836V60.5199L32.4963 61.432C32.0362 61.7038 31.8784 62.307 32.1444 62.7786C32.4099 63.2502 32.998 63.4123 33.4581 63.1393L34.0384 62.796V65.0141C34.0384 65.5584 34.4692 66 35.0002 66C35.5311 66 35.9617 65.5584 35.9617 65.0141V62.7966L36.5412 63.1399C36.6926 63.2296 36.8579 63.2722 37.0213 63.2722C37.3532 63.2722 37.6772 63.0959 37.8546 62.7792C38.1206 62.3078 37.963 61.705 37.5035 61.4326L35.9614 60.5199V58.836C36.4829 58.6785 36.9514 58.395 37.3356 58.0202L38.76 58.8626V60.6877C38.76 61.2325 39.19 61.6735 39.7218 61.6735C40.2527 61.6735 40.6833 61.2325 40.6833 60.6877V60.0011L42.5575 61.1104C42.7089 61.2002 42.8743 61.2428 43.0371 61.2428C43.3695 61.2428 43.6936 61.0658 43.8712 60.7497C44.1364 60.2786 43.9788 59.6758 43.519 59.4037ZM34.9999 57.0098C34.1879 57.0098 33.5275 56.3327 33.5275 55.5003C33.5275 54.6679 34.1879 53.9908 34.9999 53.9908C35.8119 53.9908 36.4726 54.6679 36.4726 55.5003C36.4726 56.3327 35.8119 57.0098 34.9999 57.0098Z" fill="url(#paint1_radial_1012_28561)"/>
<path d="M77.519 59.4037L75.6451 58.2949L76.2248 57.9522C76.6849 57.6804 76.843 57.077 76.5776 56.6056C76.3121 56.1346 75.7234 55.9725 75.2639 56.2443L73.7218 57.1559L72.2985 56.3141C72.3599 56.0522 72.3961 55.781 72.3961 55.5C72.3961 55.2193 72.3599 54.9478 72.2985 54.6859L73.7218 53.8436L75.2633 54.7557C75.4147 54.8454 75.5801 54.8886 75.7429 54.8886C76.0753 54.8886 76.3985 54.7117 76.5767 54.3949C76.8422 53.9239 76.6846 53.3208 76.2248 53.0484L75.6445 52.7051L77.519 51.5963C77.9791 51.3239 78.1364 50.7211 77.8712 50.2497C77.6057 49.7781 77.0184 49.616 76.5575 49.889L74.6833 50.9978L74.6841 50.3117C74.6841 49.7669 74.253 49.3259 73.7224 49.3259C73.1914 49.3259 72.7606 49.7669 72.7606 50.3112L72.76 52.1357L71.3356 52.9786C70.9514 52.6045 70.4834 52.3209 69.9617 52.1628V50.4795L71.5035 49.5669C71.9636 49.295 72.1206 48.6922 71.8551 48.2208C71.5896 47.7492 71.0013 47.5871 70.5414 47.8595L69.9617 48.2028V45.9853C69.9617 45.4411 69.5311 45 69.0002 45C68.4687 45 68.0384 45.4411 68.0384 45.9853V48.2028L67.4581 47.8595C66.9986 47.5871 66.4105 47.7489 66.1444 48.2208C65.8789 48.6919 66.0368 49.295 66.4963 49.5669L68.0384 50.4795V52.1628C67.517 52.3209 67.0485 52.6045 66.6642 52.9789L65.2398 52.1354V50.3109C65.2398 49.7667 64.809 49.3256 64.278 49.3256C63.7465 49.3256 63.3165 49.7667 63.3165 50.3109V50.9975L61.4429 49.8887C60.9828 49.6157 60.3947 49.7775 60.1292 50.2494C59.8634 50.7205 60.0207 51.3236 60.4811 51.596L62.3548 52.7048L61.7742 53.0475C61.3146 53.3193 61.1568 53.9227 61.4223 54.3947C61.6002 54.7105 61.9239 54.8877 62.2563 54.8877C62.4192 54.8877 62.5845 54.8454 62.7359 54.7554L64.278 53.8433L65.7019 54.6856C65.6397 54.9475 65.604 55.2187 65.604 55.4997C65.604 55.7804 65.6397 56.052 65.7019 56.3138L64.278 57.1556L62.7368 56.2435C62.2767 55.9705 61.6886 56.1328 61.4231 56.6042C61.1568 57.0753 61.3146 57.6789 61.775 57.9508L62.3553 58.2941L60.4811 59.4034C60.021 59.6752 59.8634 60.2784 60.1292 60.75C60.3071 61.0664 60.6303 61.2431 60.9627 61.2431C61.1261 61.2431 61.2915 61.2005 61.4429 61.1107L63.3157 60.002V60.688C63.3157 61.2322 63.7465 61.6738 64.2772 61.6738C64.8081 61.6738 65.2393 61.2328 65.2393 60.688L65.2398 58.8635L66.6642 58.02C67.0485 58.3947 67.5169 58.6782 68.0379 58.836V60.5199L66.4963 61.432C66.0362 61.7038 65.8784 62.307 66.1444 62.7786C66.4099 63.2502 66.998 63.4123 67.4581 63.1393L68.0384 62.796V65.0141C68.0384 65.5584 68.4692 66 69.0002 66C69.5311 66 69.9617 65.5584 69.9617 65.0141V62.7966L70.5412 63.1399C70.6926 63.2296 70.8579 63.2722 71.0213 63.2722C71.3532 63.2722 71.6772 63.0959 71.8546 62.7792C72.1206 62.3078 71.963 61.705 71.5035 61.4326L69.9614 60.5199V58.836C70.4829 58.6785 70.9514 58.395 71.3356 58.0202L72.76 58.8626V60.6877C72.76 61.2325 73.19 61.6735 73.7218 61.6735C74.2527 61.6735 74.6833 61.2325 74.6833 60.6877V60.0011L76.5575 61.1104C76.7089 61.2002 76.8743 61.2428 77.0371 61.2428C77.3695 61.2428 77.6936 61.0658 77.8712 60.7497C78.1364 60.2786 77.9788 59.6758 77.519 59.4037ZM68.9999 57.0098C68.1879 57.0098 67.5275 56.3327 67.5275 55.5003C67.5275 54.6679 68.1879 53.9908 68.9999 53.9908C69.8119 53.9908 70.4726 54.6679 70.4726 55.5003C70.4726 56.3327 69.8119 57.0098 68.9999 57.0098Z" fill="url(#paint2_radial_1012_28561)"/>
<path d="M51.678 37.6469C44.103 31.5009 41.143 22.1449 45.071 16.7449C49.001 11.3449 58.327 11.9519 65.906 18.0929C73.479 24.2379 76.4351 33.5989 72.5101 38.9949C68.5791 44.3969 59.252 43.7899 51.678 37.6469Z" fill="url(#paint3_radial_1012_28561)"/>
<path opacity="0.4" d="M78.759 55.8131C72.806 50.9831 70.48 43.628 73.566 39.385C76.655 35.139 83.985 35.6171 89.941 40.4441C95.893 45.2741 98.215 52.632 95.131 56.872C92.041 61.118 84.711 60.6421 78.759 55.8131Z" fill="url(#paint4_radial_1012_28561)"/>
<path opacity="0.2" d="M20.0091 56.4871C15.6161 49.6331 10.5131 46.3371 8.60211 49.1161C6.69811 51.8911 8.71211 59.7041 13.1021 66.5591C17.4981 73.4131 22.6041 76.713 24.5091 73.932C26.4151 71.147 24.4021 63.3451 20.0091 56.4871Z" fill="url(#paint5_radial_1012_28561)"/>
<path d="M29.204 87.7331C28.069 89.7001 25.555 90.3721 23.588 89.2371C21.622 88.1021 20.948 85.5891 22.083 83.6221C23.218 81.6551 30.24 77.7161 30.24 77.7161C30.24 77.7161 30.339 85.7671 29.204 87.7331Z" fill="url(#paint6_radial_1012_28561)"/>
<path d="M22.203 87.0502C21.566 85.3862 21.952 83.6342 23.068 83.1382C24.183 82.6422 25.605 83.5892 26.242 85.2552C26.88 86.9212 26.492 88.6731 25.377 89.1671C24.262 89.6631 22.84 88.7162 22.203 87.0502Z" fill="url(#paint7_radial_1012_28561)"/>
<path d="M46.397 87.7331C45.262 89.7001 42.748 90.3721 40.781 89.2371C38.815 88.1021 38.141 85.5891 39.277 83.6221C40.412 81.6551 47.433 77.7161 47.433 77.7161C47.433 77.7161 47.532 85.7671 46.397 87.7331Z" fill="url(#paint8_radial_1012_28561)"/>
<path d="M39.3961 87.0502C38.7591 85.3862 39.1451 83.6342 40.2611 83.1382C41.3761 82.6422 42.7971 83.5892 43.4351 85.2552C44.0731 86.9212 43.6851 88.6731 42.5701 89.1671C41.4551 89.6631 40.0331 88.7162 39.3961 87.0502Z" fill="url(#paint9_radial_1012_28561)"/>
<path d="M63.59 87.7331C62.455 89.7001 59.941 90.3721 57.974 89.2371C56.008 88.1021 55.334 85.5891 56.469 83.6221C57.604 81.6551 64.626 77.7161 64.626 77.7161C64.626 77.7161 64.725 85.7671 63.59 87.7331Z" fill="url(#paint10_radial_1012_28561)"/>
<path d="M56.589 87.0502C55.952 85.3862 56.338 83.6342 57.454 83.1382C58.569 82.6422 59.991 83.5892 60.628 85.2552C61.266 86.9212 60.878 88.6731 59.763 89.1671C58.648 89.6631 57.227 88.7162 56.589 87.0502Z" fill="url(#paint11_radial_1012_28561)"/>
<path d="M80.782 87.7331C79.647 89.7001 77.133 90.3721 75.166 89.2371C73.2 88.1021 72.526 85.5891 73.662 83.6221C74.797 81.6551 81.8191 77.7161 81.8191 77.7161C81.8191 77.7161 81.918 85.7671 80.782 87.7331Z" fill="url(#paint12_radial_1012_28561)"/>
<path d="M73.7821 87.0502C73.1451 85.3862 73.5311 83.6342 74.6471 83.1382C75.7621 82.6422 77.1841 83.5892 77.8211 85.2552C78.4591 86.9212 78.0711 88.6731 76.9561 89.1671C75.8401 89.6631 74.4191 88.7162 73.7821 87.0502Z" fill="url(#paint13_radial_1012_28561)"/>
<path d="M37.8001 102.179C36.6651 104.144 34.1511 104.818 32.1841 103.683C30.2181 102.548 29.5441 100.033 30.6801 98.0681C31.8151 96.1011 38.8361 92.1621 38.8361 92.1621C38.8361 92.1621 38.9361 100.212 37.8001 102.179Z" fill="url(#paint14_radial_1012_28561)"/>
<path d="M30.7992 101.495C30.1622 99.831 30.5492 98.079 31.6652 97.583C32.7802 97.087 34.2012 98.034 34.8392 99.7C35.4772 101.364 35.0892 103.118 33.9742 103.612C32.8582 104.108 31.4372 103.159 30.7992 101.495Z" fill="url(#paint15_radial_1012_28561)"/>
<path d="M54.9932 102.179C53.8582 104.144 51.3442 104.818 49.3772 103.683C47.4112 102.548 46.7372 100.033 47.8732 98.0681C49.0082 96.1011 56.0302 92.1621 56.0302 92.1621C56.0302 92.1621 56.1292 100.212 54.9932 102.179Z" fill="url(#paint16_radial_1012_28561)"/>
<path d="M47.9933 101.495C47.3563 99.831 47.7423 98.079 48.8583 97.583C49.9733 97.087 51.3953 98.034 52.0323 99.7C52.6703 101.364 52.2823 103.118 51.1673 103.612C50.0513 104.108 48.6303 103.159 47.9933 101.495Z" fill="url(#paint17_radial_1012_28561)"/>
<path d="M72.1861 102.179C71.0511 104.144 68.5371 104.818 66.5701 103.683C64.6041 102.548 63.9301 100.033 65.0661 98.0681C66.2011 96.1011 73.2221 92.1621 73.2221 92.1621C73.2221 92.1621 73.3211 100.212 72.1861 102.179Z" fill="url(#paint18_radial_1012_28561)"/>
<path d="M65.1851 101.495C64.5481 99.831 64.9341 98.079 66.0511 97.583C67.1661 97.087 68.5871 98.034 69.2251 99.7C69.8631 101.364 69.4741 103.118 68.3601 103.612C67.2441 104.108 65.8231 103.159 65.1851 101.495Z" fill="url(#paint19_radial_1012_28561)"/>
</g>
<defs>
<radialGradient id="paint0_radial_1012_28561" cx="0" cy="0" r="1" gradientUnits="userSpaceOnUse" gradientTransform="translate(63.2906 23.774) rotate(180) scale(70.2558 51.3219)">
<stop stop-color="white"/>
<stop offset="0.198" stop-color="#D5F3FF"/>
<stop offset="1" stop-color="#85BCF1"/>
</radialGradient>
<radialGradient id="paint1_radial_1012_28561" cx="0" cy="0" r="1" gradientUnits="userSpaceOnUse" gradientTransform="translate(40.8755 51.3113) scale(17.4717 17.9091)">
<stop stop-color="#28CBE9"/>
<stop offset="1" stop-color="#0A4FBB"/>
</radialGradient>
<radialGradient id="paint2_radial_1012_28561" cx="0" cy="0" r="1" gradientUnits="userSpaceOnUse" gradientTransform="translate(74.8755 51.3113) scale(17.4717 17.9091)">
<stop stop-color="#28CBE9"/>
<stop offset="1" stop-color="#0A4FBB"/>
</radialGradient>
<radialGradient id="paint3_radial_1012_28561" cx="0" cy="0" r="1" gradientUnits="userSpaceOnUse" gradientTransform="translate(58.7906 27.869) rotate(126.034) scale(12.0915 17.6391)">
<stop stop-color="white"/>
<stop offset="1" stop-color="white" stop-opacity="0"/>
</radialGradient>
<radialGradient id="paint4_radial_1012_28561" cx="0" cy="0" r="1" gradientUnits="userSpaceOnUse" gradientTransform="translate(84.3487 48.1281) rotate(126.034) scale(9.50297 13.863)">
<stop stop-color="white"/>
<stop offset="1" stop-color="white" stop-opacity="0"/>
</radialGradient>
<radialGradient id="paint5_radial_1012_28561" cx="0" cy="0" r="1" gradientUnits="userSpaceOnUse" gradientTransform="translate(16.559 61.5177) rotate(-25.7092) scale(4.87086 14.1795)">
<stop stop-color="white"/>
<stop offset="1" stop-color="white" stop-opacity="0"/>
</radialGradient>
<radialGradient id="paint6_radial_1012_28561" cx="0" cy="0" r="1" gradientUnits="userSpaceOnUse" gradientTransform="translate(23.7007 86.7971) rotate(30.0007) scale(9.89068)">
<stop stop-color="#D0F2FF"/>
<stop offset="0.198" stop-color="#D5F3FF"/>
<stop offset="1" stop-color="#85BCF1"/>
</radialGradient>
<radialGradient id="paint7_radial_1012_28561" cx="0" cy="0" r="1" gradientUnits="userSpaceOnUse" gradientTransform="translate(24.223 86.1527) rotate(156.037) scale(2.21002 3.2239)">
<stop stop-color="white"/>
<stop offset="1" stop-color="white" stop-opacity="0"/>
</radialGradient>
<radialGradient id="paint8_radial_1012_28561" cx="0" cy="0" r="1" gradientUnits="userSpaceOnUse" gradientTransform="translate(40.8934 86.7972) rotate(30.0007) scale(9.89069 9.89068)">
<stop stop-color="#D0F2FF"/>
<stop offset="0.198" stop-color="#D5F3FF"/>
<stop offset="1" stop-color="#85BCF1"/>
</radialGradient>
<radialGradient id="paint9_radial_1012_28561" cx="0" cy="0" r="1" gradientUnits="userSpaceOnUse" gradientTransform="translate(41.4159 86.1526) rotate(156.037) scale(2.21003 3.2239)">
<stop stop-color="white"/>
<stop offset="1" stop-color="white" stop-opacity="0"/>
</radialGradient>
<radialGradient id="paint10_radial_1012_28561" cx="0" cy="0" r="1" gradientUnits="userSpaceOnUse" gradientTransform="translate(58.0865 86.7972) rotate(30.0007) scale(9.89108 9.89108)">
<stop stop-color="#D0F2FF"/>
<stop offset="0.198" stop-color="#D5F3FF"/>
<stop offset="1" stop-color="#85BCF1"/>
</radialGradient>
<radialGradient id="paint11_radial_1012_28561" cx="0" cy="0" r="1" gradientUnits="userSpaceOnUse" gradientTransform="translate(58.6088 86.1527) rotate(156.037) scale(2.21003 3.2239)">
<stop stop-color="white"/>
<stop offset="1" stop-color="white" stop-opacity="0"/>
</radialGradient>
<radialGradient id="paint12_radial_1012_28561" cx="0" cy="0" r="1" gradientUnits="userSpaceOnUse" gradientTransform="translate(75.2793 86.7973) rotate(30.0007) scale(9.89069 9.89068)">
<stop stop-color="#D0F2FF"/>
<stop offset="0.198" stop-color="#D5F3FF"/>
<stop offset="1" stop-color="#85BCF1"/>
</radialGradient>
<radialGradient id="paint13_radial_1012_28561" cx="0" cy="0" r="1" gradientUnits="userSpaceOnUse" gradientTransform="translate(75.8017 86.1526) rotate(156.037) scale(2.21003 3.2239)">
<stop stop-color="white"/>
<stop offset="1" stop-color="white" stop-opacity="0"/>
</radialGradient>
<radialGradient id="paint14_radial_1012_28561" cx="0" cy="0" r="1" gradientUnits="userSpaceOnUse" gradientTransform="translate(32.2974 101.243) rotate(30.0007) scale(9.89069 9.89068)">
<stop stop-color="#D0F2FF"/>
<stop offset="0.198" stop-color="#D5F3FF"/>
<stop offset="1" stop-color="#85BCF1"/>
</radialGradient>
<radialGradient id="paint15_radial_1012_28561" cx="0" cy="0" r="1" gradientUnits="userSpaceOnUse" gradientTransform="translate(32.8194 100.598) rotate(156.037) scale(2.21003 3.2239)">
<stop stop-color="white"/>
<stop offset="1" stop-color="white" stop-opacity="0"/>
</radialGradient>
<radialGradient id="paint16_radial_1012_28561" cx="0" cy="0" r="1" gradientUnits="userSpaceOnUse" gradientTransform="translate(49.4904 101.243) rotate(30.0007) scale(9.89078)">
<stop stop-color="#D0F2FF"/>
<stop offset="0.198" stop-color="#D5F3FF"/>
<stop offset="1" stop-color="#85BCF1"/>
</radialGradient>
<radialGradient id="paint17_radial_1012_28561" cx="0" cy="0" r="1" gradientUnits="userSpaceOnUse" gradientTransform="translate(50.0129 100.598) rotate(156.037) scale(2.21017 3.22411)">
<stop stop-color="white"/>
<stop offset="1" stop-color="white" stop-opacity="0"/>
</radialGradient>
<radialGradient id="paint18_radial_1012_28561" cx="0" cy="0" r="1" gradientUnits="userSpaceOnUse" gradientTransform="translate(66.6831 101.243) rotate(30.0007) scale(9.89067 9.89068)">
<stop stop-color="#D0F2FF"/>
<stop offset="0.198" stop-color="#D5F3FF"/>
<stop offset="1" stop-color="#85BCF1"/>
</radialGradient>
<radialGradient id="paint19_radial_1012_28561" cx="0" cy="0" r="1" gradientUnits="userSpaceOnUse" gradientTransform="translate(67.2054 100.598) rotate(156.037) scale(2.21017 3.22411)">
<stop stop-color="white"/>
<stop offset="1" stop-color="white" stop-opacity="0"/>
</radialGradient>
<clipPath id="clip0_1012_28561">
<rect width="104" height="104" fill="white"/>
</clipPath>
</defs>
</svg>
