<svg width="104" height="104" viewBox="0 0 104 104" fill="none" xmlns="http://www.w3.org/2000/svg">
<path d="M97.5167 59.834L91.1526 60.254L89.9537 66.518L83.8307 64.732L80.5637 70.209L75.4197 66.439L70.4756 70.467L66.9316 65.166L60.9086 67.258L59.3917 61.064L53.0157 60.971L53.7077 54.631L47.7487 52.363L50.5677 46.645L45.7437 42.475L50.3497 38.062L47.2417 32.496L53.0777 29.926L52.0627 23.631L58.4237 23.213L59.6237 16.949L65.7466 18.732L69.0146 13.258L74.1577 17.025L79.1027 13L82.6476 18.301L88.6697 16.207L90.1866 22.402L96.5627 22.494L95.8687 28.834L101.83 31.102L99.0107 36.82L103.835 40.992L99.2297 45.402L102.338 50.971L96.4996 53.539L97.5167 59.834Z" fill="url(#paint0_linear_1160_11339)"/>
<path d="M74.7884 63.246C86.6702 63.246 96.3024 53.6139 96.3024 41.732C96.3024 29.8502 86.6702 20.218 74.7884 20.218C62.9065 20.218 53.2744 29.8502 53.2744 41.732C53.2744 53.6139 62.9065 63.246 74.7884 63.246Z" fill="url(#paint1_radial_1160_11339)"/>
<path d="M78.0664 39.52C72.5874 35.075 70.4474 28.307 73.2874 24.401C76.1304 20.495 82.8745 20.934 88.3565 25.376C93.8355 29.821 95.9715 36.591 93.1325 40.495C90.2905 44.4 83.5444 43.963 78.0664 39.52Z" fill="url(#paint2_radial_1160_11339)"/>
<path opacity="0.4" d="M55.7746 46.4881C56.5016 44.1091 60.1886 45.0931 64.0186 48.6911C67.8466 52.2871 70.3616 57.1271 69.6386 59.5111C68.9146 61.8881 65.2236 60.9041 61.3936 57.3081C57.5666 53.7111 55.0506 48.8651 55.7746 46.4881Z" fill="url(#paint3_radial_1160_11339)"/>
<path d="M73.0038 50.4409C72.0448 36.3939 60.3528 25.2949 46.0628 25.2949C31.7718 25.2949 20.0808 36.3949 19.1218 50.4409C8.47683 50.9679 0.0078125 59.7649 0.0078125 70.5389C0.0078125 81.6539 9.01881 90.6639 20.1318 90.6639H71.9948C83.1078 90.6639 92.1188 81.6539 92.1188 70.5389C92.1178 59.7659 83.6478 50.9689 73.0038 50.4409Z" fill="url(#paint4_radial_1160_11339)"/>
<path d="M73.0038 50.4409C72.0448 36.3939 60.3528 25.2949 46.0628 25.2949C31.7718 25.2949 20.0808 36.3949 19.1218 50.4409C8.47683 50.9679 0.0078125 59.7649 0.0078125 70.5389C0.0078125 81.6539 9.01881 90.6639 20.1318 90.6639H71.9948C83.1078 90.6639 92.1188 81.6539 92.1188 70.5389C92.1178 59.7659 83.6478 50.9689 73.0038 50.4409Z" fill="url(#paint5_radial_1160_11339)"/>
<path d="M37.519 74.4037L35.6451 73.2949L36.2248 72.9522C36.6849 72.6804 36.843 72.077 36.5776 71.6056C36.3121 71.1346 35.7234 70.9725 35.2639 71.2443L33.7218 72.1559L32.2985 71.3141C32.3599 71.0522 32.3961 70.781 32.3961 70.5C32.3961 70.2193 32.3599 69.9478 32.2985 69.6859L33.7218 68.8436L35.2633 69.7557C35.4147 69.8454 35.5801 69.8886 35.7429 69.8886C36.0753 69.8886 36.3985 69.7117 36.5767 69.3949C36.8422 68.9239 36.6846 68.3208 36.2248 68.0484L35.6445 67.7051L37.519 66.5963C37.9791 66.3239 38.1364 65.7211 37.8712 65.2497C37.6057 64.7781 37.0184 64.616 36.5575 64.889L34.6833 65.9978L34.6841 65.3117C34.6841 64.7669 34.253 64.3259 33.7224 64.3259C33.1914 64.3259 32.7606 64.7669 32.7606 65.3112L32.76 67.1357L31.3356 67.9786C30.9514 67.6045 30.4834 67.3209 29.9617 67.1628V65.4795L31.5035 64.5669C31.9636 64.295 32.1206 63.6922 31.8551 63.2208C31.5896 62.7492 31.0013 62.5871 30.5414 62.8595L29.9617 63.2028V60.9853C29.9617 60.4411 29.5311 60 29.0002 60C28.4687 60 28.0384 60.4411 28.0384 60.9853V63.2028L27.4581 62.8595C26.9986 62.5871 26.4105 62.7489 26.1444 63.2208C25.8789 63.6919 26.0368 64.295 26.4963 64.5669L28.0384 65.4795V67.1628C27.517 67.3209 27.0485 67.6045 26.6642 67.9789L25.2398 67.1354V65.3109C25.2398 64.7667 24.809 64.3256 24.278 64.3256C23.7465 64.3256 23.3165 64.7667 23.3165 65.3109V65.9975L21.4429 64.8887C20.9828 64.6157 20.3947 64.7775 20.1292 65.2494C19.8634 65.7205 20.0207 66.3236 20.4811 66.596L22.3548 67.7048L21.7742 68.0475C21.3146 68.3193 21.1568 68.9227 21.4223 69.3947C21.6002 69.7105 21.9239 69.8877 22.2563 69.8877C22.4192 69.8877 22.5845 69.8454 22.7359 69.7554L24.278 68.8433L25.7019 69.6856C25.6397 69.9475 25.604 70.2187 25.604 70.4997C25.604 70.7804 25.6397 71.052 25.7019 71.3138L24.278 72.1556L22.7368 71.2435C22.2767 70.9705 21.6886 71.1328 21.4231 71.6042C21.1568 72.0753 21.3146 72.6789 21.775 72.9508L22.3553 73.2941L20.4811 74.4034C20.021 74.6752 19.8634 75.2784 20.1292 75.75C20.3071 76.0664 20.6303 76.2431 20.9627 76.2431C21.1261 76.2431 21.2915 76.2005 21.4429 76.1107L23.3157 75.002V75.688C23.3157 76.2322 23.7465 76.6738 24.2772 76.6738C24.8081 76.6738 25.2393 76.2328 25.2393 75.688L25.2398 73.8635L26.6642 73.02C27.0485 73.3947 27.5169 73.6782 28.0379 73.836V75.5199L26.4963 76.432C26.0362 76.7038 25.8784 77.307 26.1444 77.7786C26.4099 78.2502 26.998 78.4123 27.4581 78.1393L28.0384 77.796V80.0141C28.0384 80.5584 28.4692 81 29.0002 81C29.5311 81 29.9617 80.5584 29.9617 80.0141V77.7966L30.5412 78.1399C30.6926 78.2296 30.8579 78.2722 31.0213 78.2722C31.3532 78.2722 31.6772 78.0959 31.8546 77.7792C32.1206 77.3078 31.963 76.705 31.5035 76.4326L29.9614 75.5199V73.836C30.4829 73.6785 30.9514 73.395 31.3356 73.0202L32.76 73.8626V75.6877C32.76 76.2325 33.19 76.6735 33.7218 76.6735C34.2527 76.6735 34.6833 76.2325 34.6833 75.6877V75.0011L36.5575 76.1104C36.7089 76.2002 36.8743 76.2428 37.0371 76.2428C37.3695 76.2428 37.6936 76.0658 37.8712 75.7497C38.1364 75.2786 37.9788 74.6758 37.519 74.4037ZM28.9999 72.0098C28.1879 72.0098 27.5275 71.3327 27.5275 70.5003C27.5275 69.6679 28.1879 68.9908 28.9999 68.9908C29.8119 68.9908 30.4726 69.6679 30.4726 70.5003C30.4726 71.3327 29.8119 72.0098 28.9999 72.0098Z" fill="url(#paint6_radial_1160_11339)"/>
<path d="M71.519 74.4037L69.6451 73.2949L70.2248 72.9522C70.6849 72.6804 70.843 72.077 70.5776 71.6056C70.3121 71.1346 69.7234 70.9725 69.2639 71.2443L67.7218 72.1559L66.2985 71.3141C66.3599 71.0522 66.3961 70.781 66.3961 70.5C66.3961 70.2193 66.3599 69.9478 66.2985 69.6859L67.7218 68.8436L69.2633 69.7557C69.4147 69.8454 69.5801 69.8886 69.7429 69.8886C70.0753 69.8886 70.3985 69.7117 70.5767 69.3949C70.8422 68.9239 70.6846 68.3208 70.2248 68.0484L69.6445 67.7051L71.519 66.5963C71.9791 66.3239 72.1364 65.7211 71.8712 65.2497C71.6057 64.7781 71.0184 64.616 70.5575 64.889L68.6833 65.9978L68.6841 65.3117C68.6841 64.7669 68.253 64.3259 67.7224 64.3259C67.1914 64.3259 66.7606 64.7669 66.7606 65.3112L66.76 67.1357L65.3356 67.9786C64.9514 67.6045 64.4834 67.3209 63.9617 67.1628V65.4795L65.5035 64.5669C65.9636 64.295 66.1206 63.6922 65.8551 63.2208C65.5896 62.7492 65.0013 62.5871 64.5414 62.8595L63.9617 63.2028V60.9853C63.9617 60.4411 63.5311 60 63.0002 60C62.4687 60 62.0384 60.4411 62.0384 60.9853V63.2028L61.4581 62.8595C60.9986 62.5871 60.4105 62.7489 60.1444 63.2208C59.8789 63.6919 60.0368 64.295 60.4963 64.5669L62.0384 65.4795V67.1628C61.517 67.3209 61.0485 67.6045 60.6642 67.9789L59.2398 67.1354V65.3109C59.2398 64.7667 58.809 64.3256 58.278 64.3256C57.7465 64.3256 57.3165 64.7667 57.3165 65.3109V65.9975L55.4429 64.8887C54.9828 64.6157 54.3947 64.7775 54.1292 65.2494C53.8634 65.7205 54.0207 66.3236 54.4811 66.596L56.3548 67.7048L55.7742 68.0475C55.3146 68.3193 55.1568 68.9227 55.4223 69.3947C55.6002 69.7105 55.9239 69.8877 56.2563 69.8877C56.4192 69.8877 56.5845 69.8454 56.7359 69.7554L58.278 68.8433L59.7019 69.6856C59.6397 69.9475 59.604 70.2187 59.604 70.4997C59.604 70.7804 59.6397 71.052 59.7019 71.3138L58.278 72.1556L56.7368 71.2435C56.2767 70.9705 55.6886 71.1328 55.4231 71.6042C55.1568 72.0753 55.3146 72.6789 55.775 72.9508L56.3553 73.2941L54.4811 74.4034C54.021 74.6752 53.8634 75.2784 54.1292 75.75C54.3071 76.0664 54.6303 76.2431 54.9627 76.2431C55.1261 76.2431 55.2915 76.2005 55.4429 76.1107L57.3157 75.002V75.688C57.3157 76.2322 57.7465 76.6738 58.2772 76.6738C58.8081 76.6738 59.2393 76.2328 59.2393 75.688L59.2398 73.8635L60.6642 73.02C61.0485 73.3947 61.5169 73.6782 62.0379 73.836V75.5199L60.4963 76.432C60.0362 76.7038 59.8784 77.307 60.1444 77.7786C60.4099 78.2502 60.998 78.4123 61.4581 78.1393L62.0384 77.796V80.0141C62.0384 80.5584 62.4692 81 63.0002 81C63.5311 81 63.9617 80.5584 63.9617 80.0141V77.7966L64.5412 78.1399C64.6926 78.2296 64.8579 78.2722 65.0213 78.2722C65.3532 78.2722 65.6772 78.0959 65.8546 77.7792C66.1206 77.3078 65.963 76.705 65.5035 76.4326L63.9614 75.5199V73.836C64.4829 73.6785 64.9514 73.395 65.3356 73.0202L66.76 73.8626V75.6877C66.76 76.2325 67.19 76.6735 67.7218 76.6735C68.2527 76.6735 68.6833 76.2325 68.6833 75.6877V75.0011L70.5575 76.1104C70.7089 76.2002 70.8743 76.2428 71.0371 76.2428C71.3695 76.2428 71.6936 76.0658 71.8712 75.7497C72.1364 75.2786 71.9788 74.6758 71.519 74.4037ZM62.9999 72.0098C62.1879 72.0098 61.5275 71.3327 61.5275 70.5003C61.5275 69.6679 62.1879 68.9908 62.9999 68.9908C63.8119 68.9908 64.4726 69.6679 64.4726 70.5003C64.4726 71.3327 63.8119 72.0098 62.9999 72.0098Z" fill="url(#paint7_radial_1160_11339)"/>
<path d="M46.065 52.945C38.49 46.799 35.53 37.441 39.458 32.043C43.388 26.641 52.715 27.248 60.293 33.389C67.867 39.535 70.821 48.897 66.897 54.293C62.965 59.695 53.639 59.088 46.065 52.945Z" fill="url(#paint8_radial_1160_11339)"/>
<path opacity="0.4" d="M73.1459 71.111C67.1929 66.279 64.8679 58.926 67.9539 54.681C71.0419 50.437 78.3719 50.915 84.3279 55.742C90.2799 60.57 92.6019 67.928 89.5179 72.168C86.4269 76.414 79.0979 75.937 73.1459 71.111Z" fill="url(#paint9_radial_1160_11339)"/>
<path opacity="0.2" d="M14.3961 71.7849C10.0021 64.9309 4.90004 61.6329 2.98904 64.4119C1.08604 67.1889 3.09804 75.0019 7.48904 81.8569C11.885 88.7109 16.9911 92.0109 18.8971 89.2299C20.8011 86.4449 18.7891 78.6409 14.3961 71.7849Z" fill="url(#paint10_radial_1160_11339)"/>
<defs>
<linearGradient id="paint0_linear_1160_11339" x1="101.273" y1="12.1382" x2="50.2227" y2="69.185" gradientUnits="userSpaceOnUse">
<stop stop-color="#FFBA24"/>
<stop offset="1" stop-color="#FF5500"/>
</linearGradient>
<radialGradient id="paint1_radial_1160_11339" cx="0" cy="0" r="1" gradientUnits="userSpaceOnUse" gradientTransform="translate(79.7088 28.2437) rotate(180) scale(40.8406 40.8406)">
<stop stop-color="#FFF4C3"/>
<stop offset="0.1559" stop-color="#FFE036"/>
<stop offset="1" stop-color="#FA761C"/>
</radialGradient>
<radialGradient id="paint2_radial_1160_11339" cx="0" cy="0" r="1" gradientUnits="userSpaceOnUse" gradientTransform="translate(83.2111 32.4465) rotate(126.035) scale(8.74562 12.7582)">
<stop stop-color="white"/>
<stop offset="1" stop-color="white" stop-opacity="0"/>
</radialGradient>
<radialGradient id="paint3_radial_1160_11339" cx="0" cy="0" r="1" gradientUnits="userSpaceOnUse" gradientTransform="translate(62.7062 53.0005) rotate(-136.79) scale(9.51016 4.03934)">
<stop stop-color="white"/>
<stop offset="1" stop-color="white" stop-opacity="0"/>
</radialGradient>
<radialGradient id="paint4_radial_1160_11339" cx="0" cy="0" r="1" gradientUnits="userSpaceOnUse" gradientTransform="translate(57.6773 39.0713) rotate(180) scale(70.2576 51.3232)">
<stop stop-color="white"/>
<stop offset="0.198" stop-color="#D5F3FF"/>
<stop offset="1" stop-color="#85BCF1"/>
</radialGradient>
<radialGradient id="paint5_radial_1160_11339" cx="0" cy="0" r="1" gradientUnits="userSpaceOnUse" gradientTransform="translate(67.6328 44.9637) scale(59.7268 59.7268)">
<stop stop-color="#FFE036"/>
<stop offset="0.0052" stop-color="#FFDF36" stop-opacity="0.9933"/>
<stop offset="0.1623" stop-color="#FDB92C" stop-opacity="0.789"/>
<stop offset="0.319" stop-color="#FC9C25" stop-opacity="0.5851"/>
<stop offset="0.4735" stop-color="#FB8720" stop-opacity="0.3841"/>
<stop offset="0.6247" stop-color="#FA7A1D" stop-opacity="0.1875"/>
<stop offset="0.7688" stop-color="#FA761C" stop-opacity="0"/>
</radialGradient>
<radialGradient id="paint6_radial_1160_11339" cx="0" cy="0" r="1" gradientUnits="userSpaceOnUse" gradientTransform="translate(34.8755 66.3113) scale(17.4717 17.9091)">
<stop stop-color="#28CBE9"/>
<stop offset="1" stop-color="#0A4FBB"/>
</radialGradient>
<radialGradient id="paint7_radial_1160_11339" cx="0" cy="0" r="1" gradientUnits="userSpaceOnUse" gradientTransform="translate(68.8755 66.3113) scale(17.4717 17.9091)">
<stop stop-color="#28CBE9"/>
<stop offset="1" stop-color="#0A4FBB"/>
</radialGradient>
<radialGradient id="paint8_radial_1160_11339" cx="0" cy="0" r="1" gradientUnits="userSpaceOnUse" gradientTransform="translate(53.1778 43.1664) rotate(126.034) scale(12.0919 17.6398)">
<stop stop-color="white"/>
<stop offset="1" stop-color="white" stop-opacity="0"/>
</radialGradient>
<radialGradient id="paint9_radial_1160_11339" cx="0" cy="0" r="1" gradientUnits="userSpaceOnUse" gradientTransform="translate(78.7351 63.4255) rotate(126.034) scale(9.50283 13.8628)">
<stop stop-color="white"/>
<stop offset="1" stop-color="white" stop-opacity="0"/>
</radialGradient>
<radialGradient id="paint10_radial_1160_11339" cx="0" cy="0" r="1" gradientUnits="userSpaceOnUse" gradientTransform="translate(10.938 76.8115) rotate(-25.7092) scale(4.87106 14.1801)">
<stop stop-color="white"/>
<stop offset="1" stop-color="white" stop-opacity="0"/>
</radialGradient>
</defs>
</svg>
