<svg width="104" height="104" viewBox="0 0 104 104" fill="none" xmlns="http://www.w3.org/2000/svg">
<path d="M55.316 77.0751H54.4871H51.334L57.899 64.3141C58.18 63.7581 58.4141 63.1251 58.5491 62.4881C59.3921 58.5271 56.865 54.6331 52.905 53.7911C48.945 52.9471 45.0511 55.4751 44.2081 59.4361L39.819 80.0511L39.683 80.6841C39.623 80.9771 39.592 81.2781 39.592 81.5861C39.592 84.0401 41.5831 86.0321 44.0361 86.0321H48.895L46.2731 96.9671C46.1781 97.3621 46.3221 97.7891 46.6691 98.0421C47.1311 98.3771 47.776 98.2741 48.11 97.8141L58.55 83.4271C59.029 82.7671 59.3151 81.9531 59.3151 81.0761C59.3181 78.8661 57.525 77.0751 55.316 77.0751Z" fill="url(#paint0_linear_1160_11486)"/>
<path d="M50.641 29.656C50.641 43.273 61.68 54.311 75.297 54.311C88.914 54.311 99.953 43.273 99.953 29.656C99.953 16.04 88.914 5 75.297 5C61.68 5 50.641 16.04 50.641 29.656Z" fill="url(#paint1_radial_1160_11486)"/>
<path d="M58.069 34.018C60.386 33.81 62.041 31.181 61.768 28.147C61.497 25.114 59.398 22.824 57.08 23.033C54.765 23.241 53.108 25.87 53.381 28.902C53.653 31.935 55.752 34.225 58.069 34.018Z" fill="#ACADB2"/>
<path d="M56.061 36.2229C54.671 36.9519 54.322 39.0169 55.276 40.8329C56.23 42.6499 58.128 43.5309 59.517 42.8039C60.903 42.0769 61.254 40.0109 60.3 38.1959C59.348 36.3789 57.449 35.4959 56.061 36.2229Z" fill="#ACADB2"/>
<path d="M61.5589 34.0329C60.7389 34.4649 60.532 35.6829 61.096 36.7569C61.659 37.8299 62.781 38.3509 63.601 37.9209C64.42 37.4909 64.627 36.2719 64.065 35.1979C63.501 34.1239 62.3789 33.6029 61.5589 34.0329Z" fill="#ACADB2"/>
<path d="M98.0709 30.548C97.6439 27.531 95.4329 25.351 93.1289 25.675C90.8269 25.999 89.3059 28.709 89.7309 31.725C90.1559 34.741 92.3689 36.922 94.6709 36.595C96.9739 36.271 98.4969 33.562 98.0709 30.548Z" fill="#ACADB2"/>
<path d="M95.025 23.372C96.373 22.572 96.619 20.493 95.574 18.727C94.531 16.961 92.591 16.176 91.24 16.974C89.892 17.769 89.646 19.85 90.691 21.617C91.734 23.383 93.674 24.169 95.025 23.372Z" fill="#ACADB2"/>
<path d="M89.966 23.093C89.349 22.049 88.204 21.585 87.405 22.057C86.609 22.528 86.463 23.756 87.08 24.799C87.697 25.845 88.845 26.307 89.642 25.835C90.439 25.365 90.585 24.136 89.966 23.093Z" fill="#ACADB2"/>
<path d="M79.0551 27.12C72.7781 22.023 70.3221 14.268 73.5781 9.794C76.8341 5.317 84.5651 5.818 90.8491 10.91C97.1271 16.004 99.5761 23.764 96.3231 28.235C93.0631 32.716 85.3341 32.211 79.0551 27.12Z" fill="url(#paint2_radial_1160_11486)"/>
<path opacity="0.4" d="M53.5051 35.1051C54.3381 32.3771 58.5651 33.5081 62.9531 37.6301C67.3411 41.7511 70.2221 47.3021 69.3931 50.0301C68.5641 52.7551 64.3351 51.6281 59.9451 47.5071C55.5601 43.3851 52.6771 37.8301 53.5051 35.1051Z" fill="url(#paint3_radial_1160_11486)"/>
<path d="M71.656 36.2979C70.778 23.4719 60.104 13.3359 47.054 13.3359C34.004 13.3359 23.33 23.4719 22.454 36.2979C12.732 36.7789 5 44.8109 5 54.6499C5 64.7989 13.227 73.0269 23.375 73.0269H70.733C80.88 73.0269 89.108 64.7989 89.108 54.6499C89.109 44.8099 81.376 36.7789 71.656 36.2979Z" fill="url(#paint4_radial_1160_11486)"/>
<path opacity="0.6" d="M47.056 38.585C40.138 32.972 37.436 24.428 41.023 19.496C44.611 14.564 53.127 15.1191 60.048 20.7261C66.963 26.3371 69.663 34.885 66.078 39.815C62.489 44.748 53.972 44.193 47.056 38.585Z" fill="url(#paint5_radial_1160_11486)"/>
<path opacity="0.2" d="M18.139 55.7879C14.126 49.5299 9.46706 46.5179 7.72106 49.0559C5.98306 51.5899 7.82207 58.7239 11.8301 64.9839C15.8451 71.2429 20.507 74.2559 22.248 71.7179C23.987 69.1729 22.15 62.0479 18.139 55.7879Z" fill="url(#paint6_radial_1160_11486)"/>
<path d="M26.6722 86.017C25.5372 87.984 23.0232 88.656 21.0562 87.521C19.0902 86.386 18.4162 83.873 19.5512 81.906C20.6862 79.939 27.7082 76 27.7082 76C27.7082 76 27.8072 84.051 26.6722 86.017Z" fill="url(#paint7_radial_1160_11486)"/>
<path d="M43.8653 86.017C42.7303 87.984 40.2163 88.656 38.2493 87.521C36.2833 86.386 35.6093 83.873 36.7453 81.906C37.8803 79.939 44.9013 76 44.9013 76C44.9013 76 45.0003 84.051 43.8653 86.017Z" fill="url(#paint8_radial_1160_11486)"/>
<path d="M36.8643 85.3341C36.2273 83.6701 36.6134 81.9181 37.7294 81.4221C38.8444 80.9261 40.2654 81.8731 40.9034 83.5391C41.5414 85.2051 41.1533 86.9571 40.0383 87.4511C38.9233 87.9471 37.5013 87.0001 36.8643 85.3341Z" fill="url(#paint9_radial_1160_11486)"/>
<path d="M61.0582 86.017C59.9232 87.984 57.4092 88.656 55.4422 87.521C53.4762 86.386 52.8022 83.873 53.9372 81.906C55.0722 79.939 62.0942 76 62.0942 76C62.0942 76 62.1932 84.051 61.0582 86.017Z" fill="url(#paint10_radial_1160_11486)"/>
<path d="M54.0572 85.3341C53.4202 83.6701 53.8062 81.9181 54.9222 81.4221C56.0372 80.9261 57.4592 81.8731 58.0962 83.5391C58.7342 85.2051 58.3462 86.9571 57.2312 87.4511C56.1162 87.9471 54.6952 87.0001 54.0572 85.3341Z" fill="url(#paint11_radial_1160_11486)"/>
<path d="M78.2503 86.017C77.1153 87.984 74.6013 88.656 72.6343 87.521C70.6683 86.386 69.9943 83.873 71.1303 81.906C72.2653 79.939 79.2873 76 79.2873 76C79.2873 76 79.3863 84.051 78.2503 86.017Z" fill="url(#paint12_radial_1160_11486)"/>
<path d="M71.2503 85.3341C70.6133 83.6701 70.9994 81.9181 72.1154 81.4221C73.2304 80.9261 74.6523 81.8731 75.2893 83.5391C75.9273 85.2051 75.5393 86.9571 74.4243 87.4511C73.3083 87.9471 71.8873 87.0001 71.2503 85.3341Z" fill="url(#paint13_radial_1160_11486)"/>
<path d="M35.2684 100.463C34.1334 102.428 31.6194 103.102 29.6524 101.967C27.6864 100.832 27.0124 98.317 28.1484 96.352C29.2834 94.385 36.3044 90.446 36.3044 90.446C36.3044 90.446 36.4044 98.496 35.2684 100.463Z" fill="url(#paint14_radial_1160_11486)"/>
<path d="M28.2674 99.7792C27.6304 98.1152 28.0174 96.3632 29.1334 95.8672C30.2484 95.3712 31.6694 96.3182 32.3074 97.9842C32.9454 99.6482 32.5574 101.402 31.4424 101.896C30.3264 102.392 28.9054 101.443 28.2674 99.7792Z" fill="url(#paint15_radial_1160_11486)"/>
<path d="M52.4614 100.463C51.3264 102.428 48.8124 103.102 46.8454 101.967C44.8794 100.832 44.2054 98.317 45.3414 96.352C46.4764 94.385 53.4984 90.446 53.4984 90.446C53.4984 90.446 53.5974 98.496 52.4614 100.463Z" fill="url(#paint16_radial_1160_11486)"/>
<path d="M45.4614 99.7792C44.8244 98.1152 45.2104 96.3632 46.3264 95.8672C47.4414 95.3712 48.8634 96.3182 49.5004 97.9842C50.1384 99.6482 49.7504 101.402 48.6354 101.896C47.5194 102.392 46.0984 101.443 45.4614 99.7792Z" fill="url(#paint17_radial_1160_11486)"/>
<path d="M69.6544 100.463C68.5194 102.428 66.0054 103.102 64.0384 101.967C62.0724 100.832 61.3984 98.317 62.5344 96.352C63.6694 94.385 70.6903 90.446 70.6903 90.446C70.6903 90.446 70.7894 98.496 69.6544 100.463Z" fill="url(#paint18_radial_1160_11486)"/>
<path d="M62.6534 99.7792C62.0164 98.1152 62.4024 96.3632 63.5194 95.8672C64.6344 95.3712 66.0554 96.3182 66.6934 97.9842C67.3314 99.6482 66.9424 101.402 65.8284 101.896C64.7124 102.392 63.2914 101.443 62.6534 99.7792Z" fill="url(#paint19_radial_1160_11486)"/>
<defs>
<linearGradient id="paint0_linear_1160_11486" x1="43.1785" y1="97.5389" x2="53.7017" y2="64.402" gradientUnits="userSpaceOnUse">
<stop offset="0.1559" stop-color="#FFE036"/>
<stop offset="1" stop-color="#FA761C"/>
</linearGradient>
<radialGradient id="paint1_radial_1160_11486" cx="0" cy="0" r="1" gradientUnits="userSpaceOnUse" gradientTransform="translate(80.9364 14.1966) rotate(180) scale(46.8057 46.8057)">
<stop stop-color="#F8F8F8"/>
<stop offset="0.1559" stop-color="#EDE9F1"/>
<stop offset="1" stop-color="#9B9DA2"/>
</radialGradient>
<radialGradient id="paint2_radial_1160_11486" cx="0" cy="0" r="1" gradientUnits="userSpaceOnUse" gradientTransform="translate(84.9512 19.0137) rotate(126.034) scale(10.0227 14.6212)">
<stop stop-color="white"/>
<stop offset="1" stop-color="white" stop-opacity="0"/>
</radialGradient>
<radialGradient id="paint3_radial_1160_11486" cx="0" cy="0" r="1" gradientUnits="userSpaceOnUse" gradientTransform="translate(61.4495 42.5687) rotate(-136.79) scale(10.8993 4.62936)">
<stop stop-color="white"/>
<stop offset="1" stop-color="white" stop-opacity="0"/>
</radialGradient>
<radialGradient id="paint4_radial_1160_11486" cx="0" cy="0" r="1" gradientUnits="userSpaceOnUse" gradientTransform="translate(57.6606 25.9114) rotate(180) scale(64.1548 46.8651)">
<stop stop-color="#B6CCD2"/>
<stop offset="0.198" stop-color="#97B6BE"/>
<stop offset="1" stop-color="#5D87B4"/>
</radialGradient>
<radialGradient id="paint5_radial_1160_11486" cx="0" cy="0" r="1" gradientUnits="userSpaceOnUse" gradientTransform="translate(53.5513 29.6547) rotate(126.034) scale(11.0418 16.1079)">
<stop stop-color="white"/>
<stop offset="1" stop-color="white" stop-opacity="0"/>
</radialGradient>
<radialGradient id="paint6_radial_1160_11486" cx="0" cy="0" r="1" gradientUnits="userSpaceOnUse" gradientTransform="translate(14.9895 60.3679) rotate(-25.7092) scale(4.44786 12.9481)">
<stop stop-color="white"/>
<stop offset="1" stop-color="white" stop-opacity="0"/>
</radialGradient>
<radialGradient id="paint7_radial_1160_11486" cx="0" cy="0" r="1" gradientUnits="userSpaceOnUse" gradientTransform="translate(21.169 85.081) rotate(30.0007) scale(9.89068)">
<stop stop-color="#D0F2FF"/>
<stop offset="0.198" stop-color="#D5F3FF"/>
<stop offset="1" stop-color="#85BCF1"/>
</radialGradient>
<radialGradient id="paint8_radial_1160_11486" cx="0" cy="0" r="1" gradientUnits="userSpaceOnUse" gradientTransform="translate(38.3617 85.0812) rotate(30.0007) scale(9.89069 9.89068)">
<stop stop-color="#D0F2FF"/>
<stop offset="0.198" stop-color="#D5F3FF"/>
<stop offset="1" stop-color="#85BCF1"/>
</radialGradient>
<radialGradient id="paint9_radial_1160_11486" cx="0" cy="0" r="1" gradientUnits="userSpaceOnUse" gradientTransform="translate(38.8841 84.4366) rotate(156.037) scale(2.21003 3.2239)">
<stop stop-color="white"/>
<stop offset="1" stop-color="white" stop-opacity="0"/>
</radialGradient>
<radialGradient id="paint10_radial_1160_11486" cx="0" cy="0" r="1" gradientUnits="userSpaceOnUse" gradientTransform="translate(55.5548 85.0811) rotate(30.0007) scale(9.89108 9.89108)">
<stop stop-color="#D0F2FF"/>
<stop offset="0.198" stop-color="#D5F3FF"/>
<stop offset="1" stop-color="#85BCF1"/>
</radialGradient>
<radialGradient id="paint11_radial_1160_11486" cx="0" cy="0" r="1" gradientUnits="userSpaceOnUse" gradientTransform="translate(56.0771 84.4366) rotate(156.037) scale(2.21003 3.2239)">
<stop stop-color="white"/>
<stop offset="1" stop-color="white" stop-opacity="0"/>
</radialGradient>
<radialGradient id="paint12_radial_1160_11486" cx="0" cy="0" r="1" gradientUnits="userSpaceOnUse" gradientTransform="translate(72.7476 85.0813) rotate(30.0007) scale(9.89069 9.89068)">
<stop stop-color="#D0F2FF"/>
<stop offset="0.198" stop-color="#D5F3FF"/>
<stop offset="1" stop-color="#85BCF1"/>
</radialGradient>
<radialGradient id="paint13_radial_1160_11486" cx="0" cy="0" r="1" gradientUnits="userSpaceOnUse" gradientTransform="translate(73.27 84.4366) rotate(156.037) scale(2.21003 3.2239)">
<stop stop-color="white"/>
<stop offset="1" stop-color="white" stop-opacity="0"/>
</radialGradient>
<radialGradient id="paint14_radial_1160_11486" cx="0" cy="0" r="1" gradientUnits="userSpaceOnUse" gradientTransform="translate(29.7656 99.5266) rotate(30.0007) scale(9.89069 9.89068)">
<stop stop-color="#D0F2FF"/>
<stop offset="0.198" stop-color="#D5F3FF"/>
<stop offset="1" stop-color="#85BCF1"/>
</radialGradient>
<radialGradient id="paint15_radial_1160_11486" cx="0" cy="0" r="1" gradientUnits="userSpaceOnUse" gradientTransform="translate(30.2877 98.8822) rotate(156.037) scale(2.21003 3.2239)">
<stop stop-color="white"/>
<stop offset="1" stop-color="white" stop-opacity="0"/>
</radialGradient>
<radialGradient id="paint16_radial_1160_11486" cx="0" cy="0" r="1" gradientUnits="userSpaceOnUse" gradientTransform="translate(46.9585 99.5266) rotate(30.0007) scale(9.89078)">
<stop stop-color="#D0F2FF"/>
<stop offset="0.198" stop-color="#D5F3FF"/>
<stop offset="1" stop-color="#85BCF1"/>
</radialGradient>
<radialGradient id="paint17_radial_1160_11486" cx="0" cy="0" r="1" gradientUnits="userSpaceOnUse" gradientTransform="translate(47.481 98.8821) rotate(156.037) scale(2.21017 3.22411)">
<stop stop-color="white"/>
<stop offset="1" stop-color="white" stop-opacity="0"/>
</radialGradient>
<radialGradient id="paint18_radial_1160_11486" cx="0" cy="0" r="1" gradientUnits="userSpaceOnUse" gradientTransform="translate(64.1514 99.5266) rotate(30.0007) scale(9.89067 9.89068)">
<stop stop-color="#D0F2FF"/>
<stop offset="0.198" stop-color="#D5F3FF"/>
<stop offset="1" stop-color="#85BCF1"/>
</radialGradient>
<radialGradient id="paint19_radial_1160_11486" cx="0" cy="0" r="1" gradientUnits="userSpaceOnUse" gradientTransform="translate(64.6736 98.8822) rotate(156.037) scale(2.21017 3.22411)">
<stop stop-color="white"/>
<stop offset="1" stop-color="white" stop-opacity="0"/>
</radialGradient>
</defs>
</svg>
