<svg width="104" height="104" viewBox="0 0 104 104" fill="none" xmlns="http://www.w3.org/2000/svg">
<path d="M58.4729 75.5499H57.5649H54.1119L61.3019 61.5749C61.6109 60.9659 61.8649 60.2719 62.0139 59.5749C62.9379 55.2369 60.1699 50.9729 55.8339 50.0499C51.4969 49.1259 47.2319 51.8939 46.3099 56.2319L41.5029 78.8079L41.3549 79.5009C41.2899 79.8209 41.2549 80.1509 41.2549 80.4889C41.2549 83.1769 43.4359 85.3579 46.1219 85.3579H51.4429L48.5719 97.3329C48.4679 97.7649 48.6259 98.2329 49.0059 98.5109C49.5129 98.8779 50.2189 98.7649 50.5849 98.2609L62.0189 82.5049C62.5429 81.7819 62.8559 80.8919 62.8559 79.9309C62.8549 77.5109 60.8919 75.5499 58.4729 75.5499Z" fill="url(#paint0_linear_1012_28684)"/>
<path d="M78.995 30.146C78.036 16.099 66.345 5 52.055 5C37.764 5 26.074 16.1 25.114 30.146C14.471 30.671 6 39.468 6 50.244C6 61.359 15.011 70.367 26.124 70.367H77.986C89.099 70.367 98.111 61.359 98.111 50.244C98.11 39.468 89.639 30.671 78.995 30.146Z" fill="url(#paint1_radial_1012_28684)"/>
<path opacity="0.6" d="M53.946 32.6469C46.371 26.5009 43.4121 17.1449 47.3401 11.7449C51.2701 6.34494 60.5961 6.95195 68.1761 13.0929C75.7481 19.2379 78.7041 28.6009 74.7801 33.9949C70.8471 39.3999 61.521 38.792 53.946 32.6469Z" fill="url(#paint2_radial_1012_28684)"/>
<path opacity="0.4" d="M79.1371 50.813C73.1831 45.983 70.8591 38.629 73.9451 34.385C77.0321 30.141 84.3621 30.617 90.3181 35.444C96.2711 40.274 98.5931 47.632 95.5081 51.872C92.4181 56.118 85.0891 55.642 79.1371 50.813Z" fill="url(#paint3_radial_1012_28684)"/>
<path opacity="0.2" d="M20.3872 51.4889C15.9932 44.6339 10.8912 41.3369 8.98019 44.1159C7.07619 46.8909 9.08919 54.7039 13.4802 61.5589C17.8762 68.4129 22.9812 71.7129 24.8872 68.9319C26.7922 66.1499 24.7812 58.3449 20.3872 51.4889Z" fill="url(#paint4_radial_1012_28684)"/>
<path d="M28.9219 83.4579C27.7869 85.4229 25.2729 86.0969 23.3069 84.9619C21.3399 83.8269 20.666 81.3129 21.801 79.3469C22.938 77.3799 29.9579 73.4409 29.9579 73.4409C29.9579 73.4409 30.0579 81.4909 28.9219 83.4579Z" fill="url(#paint5_radial_1012_28684)"/>
<path d="M21.9219 82.775C21.2849 81.111 21.6699 79.359 22.7869 78.863C23.9019 78.367 25.3219 79.314 25.9609 80.98C26.5989 82.646 26.211 84.398 25.096 84.892C23.98 85.388 22.5589 84.441 21.9219 82.775Z" fill="url(#paint6_radial_1012_28684)"/>
<path d="M35.5512 95.5031C34.4152 97.4681 31.9022 98.1421 29.9342 97.0071C27.9682 95.8721 27.2942 93.3591 28.4292 91.3921C29.5652 89.4251 36.5861 85.4861 36.5861 85.4861C36.5861 85.4861 36.6862 93.5361 35.5512 95.5031Z" fill="url(#paint7_radial_1012_28684)"/>
<path d="M28.5501 94.8192C27.9121 93.1552 28.2991 91.4032 29.4151 90.9072C30.5301 90.4112 31.9511 91.3582 32.5891 93.0242C33.2271 94.6902 32.8391 96.4422 31.7251 96.9362C30.6081 97.4332 29.1881 96.4852 28.5501 94.8192Z" fill="url(#paint8_radial_1012_28684)"/>
<path d="M81.945 83.4579C80.81 85.4229 78.295 86.0969 76.33 84.9619C74.363 83.8269 73.688 81.3129 74.825 79.3469C75.96 77.3799 82.981 73.4409 82.981 73.4409C82.981 73.4409 83.08 81.4909 81.945 83.4579Z" fill="url(#paint9_radial_1012_28684)"/>
<path d="M74.9451 82.775C74.3071 81.111 74.6931 79.359 75.8101 78.863C76.9251 78.367 78.3451 79.314 78.9841 80.98C79.6221 82.646 79.2341 84.398 78.1191 84.892C77.0021 85.388 75.5811 84.441 74.9451 82.775Z" fill="url(#paint10_radial_1012_28684)"/>
<path d="M70.5279 95.5031C69.3929 97.4681 66.8789 98.1421 64.9119 97.0071C62.9449 95.8721 62.2719 93.3591 63.4069 91.3921C64.5429 89.4251 71.5629 85.4861 71.5629 85.4861C71.5629 85.4861 71.6619 93.5361 70.5279 95.5031Z" fill="url(#paint11_radial_1012_28684)"/>
<path d="M63.527 94.8192C62.89 93.1552 63.2759 91.4032 64.3919 90.9072C65.5069 90.4112 66.9279 91.3582 67.5669 93.0242C68.2049 94.6902 67.8159 96.4422 66.7019 96.9362C65.5849 97.4332 64.164 96.4852 63.527 94.8192Z" fill="url(#paint12_radial_1012_28684)"/>
<defs>
<linearGradient id="paint0_linear_1012_28684" x1="45.1806" y1="97.9602" x2="56.7049" y2="61.6708" gradientUnits="userSpaceOnUse">
<stop offset="0.1559" stop-color="#FFE036"/>
<stop offset="1" stop-color="#FA761C"/>
</linearGradient>
<radialGradient id="paint1_radial_1012_28684" cx="0" cy="0" r="1" gradientUnits="userSpaceOnUse" gradientTransform="translate(63.669 18.774) rotate(180) scale(70.2562 51.3222)">
<stop stop-color="#B6CCD2"/>
<stop offset="0.198" stop-color="#97B6BE"/>
<stop offset="1" stop-color="#5D87B4"/>
</radialGradient>
<radialGradient id="paint2_radial_1012_28684" cx="0" cy="0" r="1" gradientUnits="userSpaceOnUse" gradientTransform="translate(61.0597 22.8693) rotate(126.034) scale(12.0917 17.6396)">
<stop stop-color="white"/>
<stop offset="1" stop-color="white" stop-opacity="0"/>
</radialGradient>
<radialGradient id="paint3_radial_1012_28684" cx="0" cy="0" r="1" gradientUnits="userSpaceOnUse" gradientTransform="translate(84.727 43.1283) rotate(126.034) scale(9.50254 13.8624)">
<stop stop-color="white"/>
<stop offset="1" stop-color="white" stop-opacity="0"/>
</radialGradient>
<radialGradient id="paint4_radial_1012_28684" cx="0" cy="0" r="1" gradientUnits="userSpaceOnUse" gradientTransform="translate(16.93 56.5105) rotate(-25.7092) scale(4.87086 14.1795)">
<stop stop-color="white"/>
<stop offset="1" stop-color="white" stop-opacity="0"/>
</radialGradient>
<radialGradient id="paint5_radial_1012_28684" cx="0" cy="0" r="1" gradientUnits="userSpaceOnUse" gradientTransform="translate(23.419 82.5213) rotate(30.0008) scale(9.89107 9.89108)">
<stop stop-color="#D0F2FF"/>
<stop offset="0.198" stop-color="#D5F3FF"/>
<stop offset="1" stop-color="#85BCF1"/>
</radialGradient>
<radialGradient id="paint6_radial_1012_28684" cx="0" cy="0" r="1" gradientUnits="userSpaceOnUse" gradientTransform="translate(23.9418 81.877) rotate(156.037) scale(2.20989 3.2237)">
<stop stop-color="white"/>
<stop offset="1" stop-color="white" stop-opacity="0"/>
</radialGradient>
<radialGradient id="paint7_radial_1012_28684" cx="0" cy="0" r="1" gradientUnits="userSpaceOnUse" gradientTransform="translate(30.0473 94.5668) rotate(30.0008) scale(9.89207 9.89209)">
<stop stop-color="#D0F2FF"/>
<stop offset="0.198" stop-color="#D5F3FF"/>
<stop offset="1" stop-color="#85BCF1"/>
</radialGradient>
<radialGradient id="paint8_radial_1012_28684" cx="0" cy="0" r="1" gradientUnits="userSpaceOnUse" gradientTransform="translate(30.57 93.9225) rotate(156.037) scale(2.21003 3.22391)">
<stop stop-color="white"/>
<stop offset="1" stop-color="white" stop-opacity="0"/>
</radialGradient>
<radialGradient id="paint9_radial_1012_28684" cx="0" cy="0" r="1" gradientUnits="userSpaceOnUse" gradientTransform="translate(76.442 82.5215) rotate(30.0007) scale(9.89029 9.89029)">
<stop stop-color="#D0F2FF"/>
<stop offset="0.198" stop-color="#D5F3FF"/>
<stop offset="1" stop-color="#85BCF1"/>
</radialGradient>
<radialGradient id="paint10_radial_1012_28684" cx="0" cy="0" r="1" gradientUnits="userSpaceOnUse" gradientTransform="translate(76.9644 81.8772) rotate(156.037) scale(2.20989 3.2237)">
<stop stop-color="white"/>
<stop offset="1" stop-color="white" stop-opacity="0"/>
</radialGradient>
<radialGradient id="paint11_radial_1012_28684" cx="0" cy="0" r="1" gradientUnits="userSpaceOnUse" gradientTransform="translate(65.0243 94.5668) rotate(30.0009) scale(9.89105 9.89108)">
<stop stop-color="#D0F2FF"/>
<stop offset="0.198" stop-color="#D5F3FF"/>
<stop offset="1" stop-color="#85BCF1"/>
</radialGradient>
<radialGradient id="paint12_radial_1012_28684" cx="0" cy="0" r="1" gradientUnits="userSpaceOnUse" gradientTransform="translate(65.5467 93.9222) rotate(156.037) scale(2.21017 3.22411)">
<stop stop-color="white"/>
<stop offset="1" stop-color="white" stop-opacity="0"/>
</radialGradient>
</defs>
</svg>
